Lilex-Bold.ufo
<glyph name="numbersign" format="1">
  <unicode hex="0023"/>
  <advance width="1200" height="1560"/>
  <outline>
    <contour>
      <point x="166" y="0" type="line" name="hr00"/>
      <point x="400" y="0" type="line"/>
      <point x="646" y="1396" type="line"/>
      <point x="412" y="1396" type="line"/>
      <point x="344" y="1008" type="line"/>
      <point x="94" y="1008" type="line"/>
      <point x="94" y="788" type="line"/>
      <point x="304" y="788" type="line"/>
      <point x="274" y="608" type="line"/>
      <point x="18" y="608" type="line"/>
      <point x="18" y="388" type="line"/>
      <point x="234" y="388" type="line"/>
    </contour>
    <contour>
      <point x="554" y="0" type="line"/>
      <point x="788" y="0" type="line"/>
      <point x="856" y="388" type="line"/>
      <point x="1106" y="388" type="line"/>
      <point x="1106" y="608" type="line"/>
      <point x="896" y="608" type="line"/>
      <point x="926" y="788" type="line"/>
      <point x="1182" y="788" type="line"/>
      <point x="1182" y="1008" type="line"/>
      <point x="966" y="1008" type="line"/>
      <point x="1034" y="1396" type="line"/>
      <point x="800" y="1396" type="line"/>
    </contour>
  </outline>
</glyph>
<glyph name="percent" format="2">
  <advance width="1200" height="1560"/>
  <unicode hex="0025"/>
  <outline>
    <contour>
      <point x="330" y="676" type="curve" smooth="yes"/>
      <point x="528" y="676"/>
      <point x="644" y="818"/>
      <point x="644" y="1048" type="curve" smooth="yes"/>
      <point x="644" y="1278"/>
      <point x="528" y="1420"/>
      <point x="330" y="1420" type="curve" smooth="yes"/>
      <point x="132" y="1420"/>
      <point x="16" y="1278"/>
      <point x="16" y="1048" type="curve" smooth="yes"/>
      <point x="16" y="818"/>
      <point x="132" y="676"/>
    </contour>
    <contour>
      <point x="330" y="850" type="curve" smooth="yes"/>
      <point x="252" y="850"/>
      <point x="226" y="910"/>
      <point x="226" y="1004" type="curve" smooth="yes"/>
      <point x="226" y="1092" type="line" smooth="yes"/>
      <point x="226" y="1186"/>
      <point x="252" y="1246"/>
      <point x="330" y="1246" type="curve" smooth="yes"/>
      <point x="408" y="1246"/>
      <point x="434" y="1186"/>
      <point x="434" y="1092" type="curve" smooth="yes"/>
      <point x="434" y="1004" type="line" smooth="yes"/>
      <point x="434" y="910"/>
      <point x="408" y="850"/>
    </contour>
    <contour>
      <point x="668" y="796" type="line"/>
      <point x="894" y="796" type="line"/>
      <point x="1196" y="1396" type="line" name="hr01"/>
      <point x="970" y="1396" type="line"/>
    </contour>
    <contour>
      <point x="4" y="0" type="line"/>
      <point x="230" y="0" type="line"/>
      <point x="532" y="600" type="line"/>
      <point x="306" y="600" type="line"/>
    </contour>
    <contour>
      <point x="872" y="-24" type="curve" smooth="yes" name="hr02"/>
      <point x="1070" y="-24"/>
      <point x="1186" y="118"/>
      <point x="1186" y="348" type="curve" smooth="yes"/>
      <point x="1186" y="578"/>
      <point x="1070" y="720"/>
      <point x="872" y="720" type="curve" smooth="yes"/>
      <point x="674" y="720"/>
      <point x="558" y="578"/>
      <point x="558" y="348" type="curve" smooth="yes"/>
      <point x="558" y="118"/>
      <point x="674" y="-24"/>
    </contour>
    <contour>
      <point x="872" y="150" type="curve" smooth="yes"/>
      <point x="794" y="150"/>
      <point x="768" y="210"/>
      <point x="768" y="304" type="curve" smooth="yes"/>
      <point x="768" y="392" type="line" smooth="yes"/>
      <point x="768" y="486"/>
      <point x="794" y="546"/>
      <point x="872" y="546" type="curve" smooth="yes"/>
      <point x="950" y="546"/>
      <point x="976" y="486"/>
      <point x="976" y="392" type="curve" smooth="yes"/>
      <point x="976" y="304" type="line" smooth="yes"/>
      <point x="976" y="210"/>
      <point x="950" y="150"/>
    </contour>
  </outline>
</glyph>
<glyph name="ampersand" format="2">
  <advance width="1200" height="1560"/>
  <unicode hex="0026"/>
  <outline>
    <contour>
      <point x="414" y="-24" type="curve" smooth="yes"/>
      <point x="578" y="-24"/>
      <point x="690" y="58"/>
      <point x="708" y="194" type="curve"/>
      <point x="722" y="194" type="line"/>
      <point x="882" y="0" type="line" name="hr01"/>
      <point x="1198" y="0" type="line"/>
      <point x="938" y="316" type="line"/>
      <point x="980" y="410"/>
      <point x="1006" y="500"/>
      <point x="1020" y="584" type="curve"/>
      <point x="1160" y="584" type="line"/>
      <point x="1160" y="804" type="line"/>
      <point x="804" y="804" type="line"/>
      <point x="804" y="716"/>
      <point x="798" y="576"/>
      <point x="782" y="486" type="curve"/>
      <point x="770" y="486" type="line"/>
      <point x="674" y="634" type="line"/>
      <point x="560" y="778" type="line" smooth="yes"/>
      <point x="434" y="938"/>
      <point x="394" y="984"/>
      <point x="394" y="1060" type="curve" smooth="yes"/>
      <point x="394" y="1070" type="line" smooth="yes"/>
      <point x="394" y="1146"/>
      <point x="448" y="1200"/>
      <point x="528" y="1200" type="curve" smooth="yes"/>
      <point x="608" y="1200"/>
      <point x="674" y="1148"/>
      <point x="702" y="1062" type="curve"/>
      <point x="906" y="1172" type="line"/>
      <point x="864" y="1300"/>
      <point x="724" y="1420"/>
      <point x="524" y="1420" type="curve" smooth="yes"/>
      <point x="300" y="1420"/>
      <point x="134" y="1268"/>
      <point x="134" y="1068" type="curve" smooth="yes"/>
      <point x="134" y="966"/>
      <point x="178" y="880"/>
      <point x="264" y="762" type="curve"/>
      <point x="110" y="672"/>
      <point x="28" y="548"/>
      <point x="28" y="380" type="curve" smooth="yes" name="hr02"/>
      <point x="28" y="164"/>
      <point x="164" y="-24"/>
    </contour>
    <contour>
      <point x="488" y="202" type="curve" smooth="yes"/>
      <point x="374" y="202"/>
      <point x="300" y="270"/>
      <point x="300" y="396" type="curve"/>
      <point x="300" y="400" type="line"/>
      <point x="300" y="476"/>
      <point x="316" y="544"/>
      <point x="384" y="610" type="curve"/>
      <point x="642" y="282" type="line"/>
      <point x="606" y="222"/>
      <point x="548" y="202"/>
    </contour>
  </outline>
</glyph>
<glyph name="quotesingle" format="2">
  <advance width="1200" height="1560"/>
  <unicode hex="0027"/>
  <outline>
    <contour>
      <point x="732" y="828" type="line" name="hr00"/>
      <point x="732" y="1480" type="line"/>
      <point x="468" y="1480" type="line"/>
      <point x="468" y="828" type="line"/>
    </contour>
  </outline>
</glyph>
<glyph name="parenleft" format="2">
  <advance width="1200" height="1560"/>
  <unicode hex="0028"/>
  <outline>
    <contour>
      <point x="348" y="622" type="curve" smooth="yes" name="hr00"/>
      <point x="348" y="232"/>
      <point x="538" y="-108"/>
      <point x="764" y="-276" type="curve"/>
      <point x="1060" y="-276" type="line"/>
      <point x="812" y="-106"/>
      <point x="596" y="186"/>
      <point x="596" y="520" type="curve" smooth="yes"/>
      <point x="596" y="724" type="line" smooth="yes"/>
      <point x="596" y="1058"/>
      <point x="812" y="1350"/>
      <point x="1060" y="1520" type="curve"/>
      <point x="764" y="1520" type="line"/>
      <point x="538" y="1352"/>
      <point x="348" y="1012"/>
    </contour>
  </outline>
</glyph>
<glyph name="parenright" format="2">
  <advance width="1200" height="1560"/>
  <unicode hex="0029"/>
  <outline>
    <contour>
      <point x="852" y="622" type="curve" smooth="yes" name="hr00"/>
      <point x="852" y="1012"/>
      <point x="662" y="1352"/>
      <point x="436" y="1520" type="curve"/>
      <point x="140" y="1520" type="line"/>
      <point x="388" y="1350"/>
      <point x="604" y="1058"/>
      <point x="604" y="724" type="curve" smooth="yes"/>
      <point x="604" y="520" type="line" smooth="yes"/>
      <point x="604" y="186"/>
      <point x="388" y="-106"/>
      <point x="140" y="-276" type="curve"/>
      <point x="436" y="-276" type="line"/>
      <point x="662" y="-108"/>
      <point x="852" y="232"/>
    </contour>
  </outline>
</glyph>
<glyph name="asterisk" format="2">
  <advance width="1200" height="1560"/>
  <unicode hex="002A"/>
  <outline>
    <contour>
      <point x="600" y="378" type="line" name="hr00"/>
      <point x="818" y="80" type="line"/>
      <point x="1026" y="218" type="line"/>
      <point x="798" y="518" type="line"/>
      <point x="1140" y="634" type="line"/>
      <point x="1062" y="864" type="line"/>
      <point x="728" y="742" type="line"/>
      <point x="728" y="1096" type="line"/>
      <point x="472" y="1096" type="line"/>
      <point x="472" y="742" type="line"/>
      <point x="138" y="864" type="line"/>
      <point x="60" y="634" type="line"/>
      <point x="402" y="518" type="line"/>
      <point x="174" y="218" type="line"/>
      <point x="382" y="80" type="line"/>
    </contour>
  </outline>
</glyph>
<glyph name="plus" format="1">
  <unicode hex="002B"/>
  <advance width="1200" height="1560"/>
  <outline>
    <contour>
      <point x="728" y="124" type="line" name="hr00"/>
      <point x="728" y="492" type="line"/>
      <point x="1076" y="492" type="line"/>
      <point x="1076" y="728" type="line"/>
      <point x="728" y="728" type="line"/>
      <point x="728" y="1096" type="line"/>
      <point x="472" y="1096" type="line"/>
      <point x="472" y="728" type="line"/>
      <point x="124" y="728" type="line"/>
      <point x="124" y="492" type="line"/>
      <point x="472" y="492" type="line"/>
      <point x="472" y="124" type="line"/>
    </contour>
  </outline>
</glyph>
<glyph name="comma" format="2">
  <advance width="1200" height="1560"/>
  <unicode hex="002C"/>
  <outline>
    <contour>
      <point x="340" y="-302" type="line" name="hr00"/>
      <point x="560" y="-302" type="line"/>
      <point x="834" y="348" type="line"/>
      <point x="454" y="348" type="line"/>
    </contour>
  </outline>
</glyph>
<glyph name="hyphen" format="2">
  <advance width="1200" height="1560"/>
  <unicode hex="002D"/>
  <outline>
    <contour>
      <point x="920" y="468" type="line" name="hr00"/>
      <point x="920" y="752" type="line"/>
      <point x="280" y="752" type="line"/>
      <point x="280" y="468" type="line"/>
    </contour>
  </outline>
</glyph>
<glyph name="period" format="1">
  <unicode hex="002E"/>
  <advance width="1200" height="1560"/>
  <outline>
    <contour>
      <point x="600" y="-24" type="curve" smooth="yes" name="hr00"/>
      <point x="750" y="-24"/>
      <point x="810" y="52"/>
      <point x="810" y="142" type="curve" smooth="yes"/>
      <point x="810" y="212" type="line"/>
      <point x="810" y="302"/>
      <point x="750" y="378"/>
      <point x="600" y="378" type="curve" smooth="yes"/>
      <point x="450" y="378"/>
      <point x="390" y="302"/>
      <point x="390" y="212" type="curve" smooth="yes"/>
      <point x="390" y="142" type="line" smooth="yes"/>
      <point x="390" y="52"/>
      <point x="450" y="-24"/>
    </contour>
  </outline>
</glyph>
<glyph name="slash" format="2">
  <advance width="1200" height="1560"/>
  <unicode hex="002F"/>
  <outline>
    <contour>
      <point x="412" y="-276" type="line" name="hr00"/>
      <point x="1054" y="1520" type="line"/>
      <point x="788" y="1520" type="line"/>
      <point x="146" y="-276" type="line"/>
    </contour>
  </outline>
</glyph>
<glyph name="zero" format="2">
  <advance width="1200" height="1560"/>
  <unicode hex="0030"/>
  <outline>
    <contour>
      <point x="600" y="-24" type="curve" smooth="yes" name="hr00"/>
      <point x="974" y="-24"/>
      <point x="1146" y="242"/>
      <point x="1146" y="698" type="curve" smooth="yes"/>
      <point x="1146" y="1154"/>
      <point x="974" y="1420"/>
      <point x="600" y="1420" type="curve" smooth="yes"/>
      <point x="226" y="1420"/>
      <point x="54" y="1154"/>
      <point x="54" y="698" type="curve" smooth="yes"/>
      <point x="54" y="242"/>
      <point x="226" y="-24"/>
    </contour>
    <contour>
      <point x="600" y="212" type="curve" smooth="yes"/>
      <point x="422" y="212"/>
      <point x="360" y="346"/>
      <point x="360" y="568" type="curve" smooth="yes"/>
      <point x="360" y="828" type="line" smooth="yes"/>
      <point x="360" y="1050"/>
      <point x="422" y="1184"/>
      <point x="600" y="1184" type="curve" smooth="yes"/>
      <point x="778" y="1184"/>
      <point x="840" y="1050"/>
      <point x="840" y="828" type="curve" smooth="yes"/>
      <point x="840" y="568" type="line"/>
      <point x="840" y="346"/>
      <point x="778" y="212"/>
    </contour>
    <contour>
      <point x="600" y="580" type="curve" smooth="yes"/>
      <point x="692" y="580"/>
      <point x="724" y="622"/>
      <point x="724" y="676" type="curve" smooth="yes"/>
      <point x="724" y="720" type="line" smooth="yes"/>
      <point x="724" y="774"/>
      <point x="692" y="816"/>
      <point x="600" y="816" type="curve" smooth="yes"/>
      <point x="508" y="816"/>
      <point x="476" y="774"/>
      <point x="476" y="720" type="curve" smooth="yes"/>
      <point x="476" y="676" type="line"/>
      <point x="476" y="622"/>
      <point x="508" y="580"/>
    </contour>
  </outline>
</glyph>
<glyph name="one" format="1">
  <unicode hex="0031"/>
  <advance width="1200" height="1560"/>
  <outline>
    <contour>
      <point x="1160" y="0" type="line" name="hr00"/>
      <point x="1160" y="242" type="line"/>
      <point x="864" y="242" type="line"/>
      <point x="864" y="1396" type="line"/>
      <point x="404" y="1396" type="line"/>
      <point x="70" y="956" type="line"/>
      <point x="262" y="806" type="line"/>
      <point x="546" y="1178" type="line"/>
      <point x="564" y="1178" type="line"/>
      <point x="564" y="242" type="line"/>
      <point x="188" y="242" type="line"/>
      <point x="188" y="0" type="line"/>
    </contour>
  </outline>
</glyph>
<glyph name="two" format="2">
  <advance width="1200" height="1560"/>
  <unicode hex="0032"/>
  <outline>
    <contour>
      <point x="1110" y="252" type="line" name="hr00"/>
      <point x="438" y="252" type="line"/>
      <point x="704" y="458" type="line"/>
      <point x="914" y="618"/>
      <point x="1080" y="768"/>
      <point x="1080" y="1000" type="curve" smooth="yes"/>
      <point x="1080" y="1242"/>
      <point x="904" y="1420"/>
      <point x="598" y="1420" type="curve" smooth="yes"/>
      <point x="302" y="1420"/>
      <point x="138" y="1256"/>
      <point x="76" y="1064" type="curve"/>
      <point x="338" y="964" type="line"/>
      <point x="368" y="1070"/>
      <point x="434" y="1160"/>
      <point x="568" y="1160" type="curve" smooth="yes"/>
      <point x="684" y="1160"/>
      <point x="760" y="1098"/>
      <point x="760" y="982" type="curve" smooth="yes"/>
      <point x="760" y="962" type="line" smooth="yes"/>
      <point x="760" y="856"/>
      <point x="698" y="770"/>
      <point x="546" y="640" type="curve"/>
      <point x="106" y="274" type="line"/>
      <point x="106" y="0" type="line"/>
      <point x="1110" y="0" type="line"/>
    </contour>
  </outline>
</glyph>
<glyph name="three" format="1">
  <unicode hex="0033"/>
  <advance width="1200" height="1560"/>
  <outline>
    <contour>
      <point x="414" y="844" type="line"/>
      <point x="414" y="594" type="line"/>
      <point x="544" y="594" type="line" smooth="yes"/>
      <point x="700" y="594"/>
      <point x="794" y="536"/>
      <point x="794" y="422" type="curve" smooth="yes"/>
      <point x="794" y="408" type="line" smooth="yes"/>
      <point x="794" y="292"/>
      <point x="712" y="220"/>
      <point x="570" y="220" type="curve" smooth="yes"/>
      <point x="416" y="220"/>
      <point x="332" y="302"/>
      <point x="270" y="416" type="curve"/>
      <point x="48" y="244" type="line"/>
      <point x="138" y="104"/>
      <point x="284" y="-24"/>
      <point x="564" y="-24" type="curve" smooth="yes"/>
      <point x="894" y="-24"/>
      <point x="1110" y="138"/>
      <point x="1110" y="388" type="curve" smooth="yes"/>
      <point x="1110" y="580"/>
      <point x="982" y="694"/>
      <point x="812" y="724" type="curve"/>
      <point x="812" y="736" type="line"/>
      <point x="960" y="762"/>
      <point x="1084" y="872"/>
      <point x="1084" y="1050" type="curve" smooth="yes" name="hr01"/>
      <point x="1084" y="1274"/>
      <point x="886" y="1420"/>
      <point x="584" y="1420" type="curve" smooth="yes"/>
      <point x="340" y="1420"/>
      <point x="202" y="1324"/>
      <point x="94" y="1186" type="curve"/>
      <point x="284" y="1010" type="line"/>
      <point x="354" y="1116"/>
      <point x="458" y="1176"/>
      <point x="572" y="1176" type="curve" smooth="yes"/>
      <point x="696" y="1176"/>
      <point x="768" y="1110"/>
      <point x="768" y="1010" type="curve" smooth="yes"/>
      <point x="768" y="996" type="line" smooth="yes"/>
      <point x="768" y="910"/>
      <point x="700" y="844"/>
      <point x="546" y="844" type="curve" smooth="yes"/>
    </contour>
  </outline>
</glyph>
<glyph name="four" format="1">
  <unicode hex="0034"/>
  <advance width="1200" height="1560"/>
  <outline>
    <contour>
      <point x="966" y="0" type="line" name="hr00"/>
      <point x="966" y="268" type="line"/>
      <point x="1146" y="268" type="line"/>
      <point x="1146" y="500" type="line"/>
      <point x="966" y="500" type="line"/>
      <point x="966" y="1396" type="line"/>
      <point x="606" y="1396" type="line"/>
      <point x="50" y="524" type="line"/>
      <point x="50" y="268" type="line"/>
      <point x="678" y="268" type="line"/>
      <point x="678" y="0" type="line"/>
    </contour>
    <contour>
      <point x="660" y="1086" type="line"/>
      <point x="678" y="1086" type="line"/>
      <point x="678" y="500" type="line"/>
      <point x="292" y="500" type="line"/>
    </contour>
  </outline>
</glyph>
<glyph name="six" format="2">
  <advance width="1200" height="1560"/>
  <unicode hex="0036"/>
  <outline>
    <contour>
      <point x="608" y="-24" type="curve" smooth="yes" name="hr00"/>
      <point x="930" y="-24"/>
      <point x="1138" y="180"/>
      <point x="1138" y="464" type="curve" smooth="yes"/>
      <point x="1138" y="730"/>
      <point x="958" y="900"/>
      <point x="724" y="900" type="curve" smooth="yes"/>
      <point x="542" y="900"/>
      <point x="458" y="796"/>
      <point x="408" y="690" type="curve"/>
      <point x="390" y="696" type="line"/>
      <point x="448" y="966"/>
      <point x="654" y="1154"/>
      <point x="1000" y="1396" type="curve"/>
      <point x="586" y="1396" type="line"/>
      <point x="344" y="1234"/>
      <point x="76" y="922"/>
      <point x="76" y="530" type="curve" smooth="yes"/>
      <point x="76" y="194"/>
      <point x="272" y="-24"/>
    </contour>
    <contour>
      <point x="606" y="210" type="curve" smooth="yes"/>
      <point x="464" y="210"/>
      <point x="388" y="290"/>
      <point x="388" y="428" type="curve" smooth="yes"/>
      <point x="388" y="456" type="line" smooth="yes"/>
      <point x="388" y="594"/>
      <point x="470" y="670"/>
      <point x="606" y="670" type="curve" smooth="yes"/>
      <point x="746" y="670"/>
      <point x="826" y="594"/>
      <point x="826" y="456" type="curve" smooth="yes"/>
      <point x="826" y="428" type="line" smooth="yes"/>
      <point x="826" y="290"/>
      <point x="750" y="210"/>
    </contour>
  </outline>
</glyph>
<glyph name="seven" format="1">
  <unicode hex="0037"/>
  <advance width="1200" height="1560"/>
  <outline>
    <contour>
      <point x="644" y="0" type="line" name="hr00"/>
      <point x="1106" y="1136" type="line"/>
      <point x="1106" y="1396" type="line"/>
      <point x="102" y="1396" type="line"/>
      <point x="102" y="898" type="line"/>
      <point x="356" y="898" type="line"/>
      <point x="356" y="1152" type="line"/>
      <point x="808" y="1152" type="line"/>
      <point x="328" y="0" type="line"/>
    </contour>
  </outline>
</glyph>
<glyph name="eight" format="1">
  <unicode hex="0038"/>
  <advance width="1200" height="1560"/>
  <outline>
    <contour>
      <point x="600" y="-24" type="curve" smooth="yes"/>
      <point x="936" y="-24"/>
      <point x="1128" y="148"/>
      <point x="1128" y="384" type="curve" smooth="yes"/>
      <point x="1128" y="564"/>
      <point x="1012" y="676"/>
      <point x="850" y="720" type="curve"/>
      <point x="850" y="736" type="line"/>
      <point x="988" y="786"/>
      <point x="1086" y="890"/>
      <point x="1086" y="1052" type="curve" smooth="yes" name="hr01"/>
      <point x="1086" y="1266"/>
      <point x="912" y="1420"/>
      <point x="600" y="1420" type="curve" smooth="yes"/>
      <point x="288" y="1420"/>
      <point x="114" y="1266"/>
      <point x="114" y="1052" type="curve" smooth="yes"/>
      <point x="114" y="890"/>
      <point x="212" y="786"/>
      <point x="350" y="736" type="curve"/>
      <point x="350" y="720" type="line"/>
      <point x="188" y="676"/>
      <point x="72" y="564"/>
      <point x="72" y="384" type="curve" smooth="yes" name="hr02"/>
      <point x="72" y="148"/>
      <point x="264" y="-24"/>
    </contour>
    <contour>
      <point x="600" y="206" type="curve" smooth="yes"/>
      <point x="462" y="206"/>
      <point x="386" y="276"/>
      <point x="386" y="384" type="curve" smooth="yes"/>
      <point x="386" y="424" type="line" smooth="yes"/>
      <point x="386" y="534"/>
      <point x="460" y="602"/>
      <point x="600" y="602" type="curve" smooth="yes"/>
      <point x="740" y="602"/>
      <point x="814" y="534"/>
      <point x="814" y="424" type="curve" smooth="yes"/>
      <point x="814" y="384" type="line" smooth="yes"/>
      <point x="814" y="276"/>
      <point x="738" y="206"/>
    </contour>
    <contour>
      <point x="600" y="822" type="curve" smooth="yes"/>
      <point x="468" y="822"/>
      <point x="396" y="888"/>
      <point x="396" y="992" type="curve" smooth="yes" name="hr03"/>
      <point x="396" y="1022" type="line" smooth="yes"/>
      <point x="396" y="1126"/>
      <point x="470" y="1190"/>
      <point x="600" y="1190" type="curve" smooth="yes"/>
      <point x="730" y="1190"/>
      <point x="804" y="1126"/>
      <point x="804" y="1022" type="curve" smooth="yes"/>
      <point x="804" y="992" type="line" smooth="yes"/>
      <point x="804" y="888"/>
      <point x="732" y="822"/>
    </contour>
  </outline>
</glyph>
<glyph name="nine" format="1">
  <unicode hex="0039"/>
  <advance width="1200" height="1560"/>
  <outline>
    <contour>
      <point x="1124" y="866" type="curve" smooth="yes" name="hr00"/>
      <point x="1124" y="1202"/>
      <point x="928" y="1420"/>
      <point x="592" y="1420" type="curve" smooth="yes"/>
      <point x="270" y="1420"/>
      <point x="62" y="1216"/>
      <point x="62" y="932" type="curve" smooth="yes"/>
      <point x="62" y="666"/>
      <point x="242" y="496"/>
      <point x="476" y="496" type="curve" smooth="yes"/>
      <point x="658" y="496"/>
      <point x="742" y="600"/>
      <point x="792" y="706" type="curve"/>
      <point x="810" y="700" type="line"/>
      <point x="752" y="430"/>
      <point x="546" y="242"/>
      <point x="200" y="0" type="curve"/>
      <point x="614" y="0" type="line"/>
      <point x="856" y="162"/>
      <point x="1124" y="474"/>
    </contour>
    <contour>
      <point x="594" y="726" type="curve" smooth="yes"/>
      <point x="454" y="726"/>
      <point x="374" y="802"/>
      <point x="374" y="940" type="curve" smooth="yes"/>
      <point x="374" y="968" type="line" smooth="yes"/>
      <point x="374" y="1106"/>
      <point x="450" y="1186"/>
      <point x="594" y="1186" type="curve" smooth="yes"/>
      <point x="736" y="1186"/>
      <point x="812" y="1106"/>
      <point x="812" y="968" type="curve" smooth="yes"/>
      <point x="812" y="940" type="line" smooth="yes"/>
      <point x="812" y="802"/>
      <point x="730" y="726"/>
    </contour>
  </outline>
</glyph>
<glyph name="less" format="2">
  <advance width="1200" height="1560"/>
  <unicode hex="003C"/>
  <outline>
    <contour>
      <point x="1030" y="12" type="line" name="hr00"/>
      <point x="1030" y="288" type="line"/>
      <point x="436" y="602" type="line"/>
      <point x="436" y="618" type="line"/>
      <point x="1030" y="932" type="line"/>
      <point x="1030" y="1208" type="line"/>
      <point x="170" y="748" type="line"/>
      <point x="170" y="472" type="line"/>
    </contour>
  </outline>
</glyph>
<glyph name="equal" format="2">
  <advance width="1200" height="1560"/>
  <unicode hex="003D"/>
  <outline>
    <contour>
      <point x="1074" y="722" type="line" name="hr00.1"/>
      <point x="1074" y="958" type="line"/>
      <point x="126" y="958" type="line"/>
      <point x="126" y="722" type="line"/>
    </contour>
    <contour>
      <point x="1074" y="262" type="line"/>
      <point x="1074" y="498" type="line"/>
      <point x="126" y="498" type="line"/>
      <point x="126" y="262" type="line"/>
    </contour>
  </outline>
  <guideline y="958" color="1,0,0,1"/>
  <guideline y="262" color="1,0,0,1"/>
  <guideline y="498" color="1,0,0,1"/>
  <guideline y="722" color="1,0,0,1"/>
</glyph>
<glyph name="greater" format="2">
  <advance width="1200" height="1560"/>
  <unicode hex="003E"/>
  <outline>
    <contour>
      <point x="170" y="12" type="line" name="hr00"/>
      <point x="1030" y="472" type="line"/>
      <point x="1030" y="748" type="line"/>
      <point x="170" y="1208" type="line"/>
      <point x="170" y="932" type="line"/>
      <point x="764" y="618" type="line"/>
      <point x="764" y="602" type="line"/>
      <point x="170" y="288" type="line"/>
    </contour>
  </outline>
</glyph>
<glyph name="at" format="1">
  <unicode hex="0040"/>
  <advance width="1200" height="1560"/>
  <outline>
    <contour>
      <point x="892" y="-34" type="line" name="hr00"/>
      <point x="682" y="-34" type="line" smooth="yes"/>
      <point x="406" y="-34"/>
      <point x="300" y="148"/>
      <point x="300" y="458" type="curve" smooth="yes"/>
      <point x="300" y="716" type="line" smooth="yes"/>
      <point x="300" y="1118"/>
      <point x="418" y="1230"/>
      <point x="614" y="1230" type="curve" smooth="yes"/>
      <point x="780" y="1230"/>
      <point x="892" y="1152"/>
      <point x="892" y="926" type="curve" smooth="yes"/>
      <point x="892" y="872" type="line"/>
      <point x="878" y="872" type="line"/>
      <point x="848" y="970"/>
      <point x="782" y="1018"/>
      <point x="690" y="1018" type="curve" smooth="yes"/>
      <point x="534" y="1018"/>
      <point x="442" y="884"/>
      <point x="442" y="588" type="curve" smooth="yes"/>
      <point x="442" y="292"/>
      <point x="534" y="158"/>
      <point x="690" y="158" type="curve" smooth="yes"/>
      <point x="782" y="158"/>
      <point x="848" y="206"/>
      <point x="878" y="304" type="curve"/>
      <point x="892" y="304" type="line"/>
      <point x="892" y="182" type="line"/>
      <point x="1106" y="182" type="line"/>
      <point x="1106" y="926" type="line" smooth="yes"/>
      <point x="1106" y="1204"/>
      <point x="948" y="1420"/>
      <point x="602" y="1420" type="curve" smooth="yes"/>
      <point x="264" y="1420"/>
      <point x="76" y="1216"/>
      <point x="76" y="610" type="curve" smooth="yes"/>
      <point x="76" y="48"/>
      <point x="238" y="-226"/>
      <point x="682" y="-226" type="curve" smooth="yes"/>
      <point x="892" y="-226" type="line"/>
    </contour>
    <contour>
      <point x="778" y="330" type="curve" smooth="yes"/>
      <point x="706" y="330"/>
      <point x="666" y="374"/>
      <point x="666" y="522" type="curve"/>
      <point x="666" y="654" type="line" smooth="yes"/>
      <point x="666" y="802"/>
      <point x="706" y="846"/>
      <point x="778" y="846" type="curve" smooth="yes"/>
      <point x="852" y="846"/>
      <point x="892" y="800"/>
      <point x="892" y="728" type="curve" smooth="yes"/>
      <point x="892" y="448" type="line" smooth="yes"/>
      <point x="892" y="376"/>
      <point x="852" y="330"/>
    </contour>
  </outline>
</glyph>
<glyph name="A" format="2">
  <advance width="1200" height="1560"/>
  <unicode hex="0041"/>
  <anchor x="600" y="0" name="bottom"/>
  <anchor x="1190" y="0" name="bottomright"/>
  <anchor x="600" y="1396" name="top"/>
  <anchor x="300" y="0" name="b.cedillacomb"/>
  <anchor x="570" y="0" name="b.ogonekcomb"/>
  <anchor x="300" y="698" name="m.tildecomb"/>
  <outline>
    <contour>
      <point x="1190" y="0" type="line" name="hr00"/>
      <point x="812" y="1396" type="line"/>
      <point x="388" y="1396" type="line"/>
      <point x="10" y="0" type="line"/>
      <point x="314" y="0" type="line"/>
      <point x="400" y="336" type="line"/>
      <point x="782" y="336" type="line"/>
      <point x="870" y="0" type="line"/>
    </contour>
    <contour>
      <point x="736" y="578" type="line"/>
      <point x="448" y="578" type="line"/>
      <point x="584" y="1106" type="line"/>
      <point x="600" y="1106" type="line"/>
    </contour>
  </outline>
</glyph>
<glyph name="C" format="1">
  <unicode hex="0043"/>
  <advance width="1200" height="1560"/>
  <outline>
    <contour>
      <point x="632" y="-24" type="curve" smooth="yes" name="hr00"/>
      <point x="920" y="-24"/>
      <point x="1070" y="134"/>
      <point x="1126" y="378" type="curve"/>
      <point x="846" y="446" type="line"/>
      <point x="816" y="314"/>
      <point x="766" y="218"/>
      <point x="626" y="218" type="curve" smooth="yes"/>
      <point x="464" y="218"/>
      <point x="402" y="354"/>
      <point x="402" y="576" type="curve" smooth="yes"/>
      <point x="402" y="820" type="line"/>
      <point x="402" y="1042"/>
      <point x="464" y="1178"/>
      <point x="626" y="1178" type="curve" smooth="yes"/>
      <point x="766" y="1178"/>
      <point x="816" y="1082"/>
      <point x="846" y="950" type="curve"/>
      <point x="1126" y="1018" type="line"/>
      <point x="1070" y="1262"/>
      <point x="920" y="1420"/>
      <point x="632" y="1420" type="curve" smooth="yes"/>
      <point x="258" y="1420"/>
      <point x="82" y="1156"/>
      <point x="82" y="698" type="curve" smooth="yes"/>
      <point x="82" y="240"/>
      <point x="258" y="-24"/>
    </contour>
    <contour>
      <point x="606" y="0" type="move" name="bottom"/>
    </contour>
    <contour>
      <point x="624" y="1396" type="move" name="top"/>
    </contour>
  </outline>
</glyph>
<glyph name="D" format="2">
  <advance width="1200" height="1560"/>
  <unicode hex="0044"/>
  <anchor x="556" y="0" name="bottom"/>
  <anchor x="556" y="1396" name="top"/>
  <anchor x="277" y="0" name="b.cedillacomb"/>
  <anchor x="277" y="698" name="m.tildecomb"/>
  <anchor x="277" y="0" name="m.cedillacomb"/>
  <anchor x="277" y="698" name="t.tildecomb"/>
  <outline>
    <contour>
      <point x="128" y="0" type="line" name="hr00"/>
      <point x="578" y="0" type="line"/>
      <point x="952" y="0"/>
      <point x="1132" y="250"/>
      <point x="1132" y="698" type="curve" smooth="yes"/>
      <point x="1132" y="1146"/>
      <point x="952" y="1396"/>
      <point x="578" y="1396" type="curve" smooth="yes"/>
      <point x="128" y="1396" type="line"/>
    </contour>
    <contour>
      <point x="424" y="236" type="line"/>
      <point x="424" y="1160" type="line"/>
      <point x="558" y="1160" type="line" smooth="yes"/>
      <point x="736" y="1160"/>
      <point x="816" y="1042"/>
      <point x="816" y="826" type="curve" smooth="yes"/>
      <point x="816" y="572" type="line"/>
      <point x="816" y="354"/>
      <point x="736" y="236"/>
      <point x="558" y="236" type="curve" smooth="yes"/>
    </contour>
  </outline>
</glyph>
<glyph name="E" format="2">
  <advance width="1200" height="1560"/>
  <unicode hex="0045"/>
  <anchor x="606" y="0" name="bottom"/>
  <anchor x="1052" y="0" name="bottomright"/>
  <anchor x="606" y="1396" name="top"/>
  <anchor x="305" y="0" name="b.cedillacomb"/>
  <anchor x="520" y="0" name="b.ogonekcomb"/>
  <anchor x="305" y="698" name="m.tildecomb"/>
  <outline>
    <contour>
      <point x="1052" y="0" type="line" name="hr00"/>
      <point x="1052" y="246" type="line"/>
      <point x="460" y="246" type="line"/>
      <point x="460" y="584" type="line"/>
      <point x="1032" y="584" type="line"/>
      <point x="1032" y="830" type="line"/>
      <point x="460" y="830" type="line"/>
      <point x="460" y="1150" type="line"/>
      <point x="1052" y="1150" type="line"/>
      <point x="1052" y="1396" type="line"/>
      <point x="160" y="1396" type="line"/>
      <point x="160" y="0" type="line"/>
    </contour>
  </outline>
</glyph>
<glyph name="F" format="1">
  <unicode hex="0046"/>
  <advance width="1200" height="1560"/>
  <outline>
    <contour>
      <point x="460" y="0" type="line" name="hr00"/>
      <point x="460" y="584" type="line"/>
      <point x="1020" y="584" type="line"/>
      <point x="1020" y="830" type="line"/>
      <point x="460" y="830" type="line"/>
      <point x="460" y="1150" type="line"/>
      <point x="1086" y="1150" type="line"/>
      <point x="1086" y="1396" type="line"/>
      <point x="160" y="1396" type="line"/>
      <point x="160" y="0" type="line"/>
    </contour>
    <contour>
      <point x="302" y="0" type="move" name="bottom"/>
    </contour>
    <contour>
      <point x="622" y="1396" type="move" name="top"/>
    </contour>
  </outline>
</glyph>
<glyph name="G" format="2">
  <advance width="1200" height="1560"/>
  <unicode hex="0047"/>
  <anchor x="596" y="0" name="bottom"/>
  <anchor x="602" y="1396" name="top"/>
  <anchor x="300" y="0" name="b.cedillacomb"/>
  <anchor x="306" y="698" name="m.tildecomb"/>
  <anchor x="300" y="0" name="m.cedillacomb"/>
  <anchor x="306" y="698" name="t.tildecomb"/>
  <outline>
    <contour>
      <point x="822" y="0" type="line"/>
      <point x="1090" y="0" type="line"/>
      <point x="1090" y="746" type="line"/>
      <point x="584" y="746" type="line"/>
      <point x="584" y="534" type="line"/>
      <point x="822" y="534" type="line"/>
      <point x="822" y="432" type="line" smooth="yes"/>
      <point x="822" y="308"/>
      <point x="754" y="218"/>
      <point x="620" y="218" type="curve" smooth="yes" name="hr01"/>
      <point x="446" y="218"/>
      <point x="388" y="366"/>
      <point x="388" y="592" type="curve" smooth="yes"/>
      <point x="388" y="820" type="line" smooth="yes"/>
      <point x="388" y="1044"/>
      <point x="444" y="1178"/>
      <point x="596" y="1178" type="curve" smooth="yes"/>
      <point x="734" y="1178"/>
      <point x="780" y="1068"/>
      <point x="810" y="950" type="curve"/>
      <point x="1090" y="1018" type="line"/>
      <point x="1034" y="1258"/>
      <point x="890" y="1420"/>
      <point x="602" y="1420" type="curve" smooth="yes"/>
      <point x="240" y="1420"/>
      <point x="70" y="1160"/>
      <point x="70" y="686" type="curve" smooth="yes"/>
      <point x="70" y="242"/>
      <point x="218" y="-24"/>
      <point x="492" y="-24" type="curve" smooth="yes"/>
      <point x="664" y="-24"/>
      <point x="758" y="82"/>
      <point x="804" y="198" type="curve" name="hr02"/>
      <point x="822" y="198" type="line"/>
    </contour>
  </outline>
</glyph>
<glyph name="H" format="2">
  <advance width="1200" height="1560"/>
  <unicode hex="0048"/>
  <anchor x="600" y="0" name="bottom"/>
  <anchor x="600" y="1396" name="top"/>
  <anchor x="300" y="0" name="b.cedillacomb"/>
  <anchor x="300" y="698" name="m.tildecomb"/>
  <outline>
    <contour>
      <point x="776" y="0" type="line" name="hr00"/>
      <point x="1078" y="0" type="line"/>
      <point x="1078" y="1396" type="line"/>
      <point x="776" y="1396" type="line"/>
      <point x="776" y="830" type="line"/>
      <point x="424" y="830" type="line"/>
      <point x="424" y="1396" type="line"/>
      <point x="122" y="1396" type="line"/>
      <point x="122" y="0" type="line"/>
      <point x="424" y="0" type="line"/>
      <point x="424" y="584" type="line"/>
      <point x="776" y="584" type="line"/>
    </contour>
  </outline>
</glyph>
<glyph name="I" format="1">
  <unicode hex="0049"/>
  <advance width="1200" height="1560"/>
  <outline>
    <contour>
      <point x="1050" y="0" type="line" name="hr00"/>
      <point x="1050" y="222" type="line"/>
      <point x="750" y="222" type="line"/>
      <point x="750" y="1174" type="line"/>
      <point x="1050" y="1174" type="line"/>
      <point x="1050" y="1396" type="line"/>
      <point x="150" y="1396" type="line"/>
      <point x="150" y="1174" type="line"/>
      <point x="450" y="1174" type="line"/>
      <point x="450" y="222" type="line"/>
      <point x="150" y="222" type="line"/>
      <point x="150" y="0" type="line"/>
    </contour>
    <contour>
      <point x="600" y="0" type="move" name="bottom"/>
    </contour>
    <contour>
      <point x="1050" y="0" type="move" name="bottomright"/>
    </contour>
    <contour>
      <point x="600" y="1396" type="move" name="top"/>
    </contour>
  </outline>
</glyph>
<glyph name="J" format="2">
  <advance width="1200" height="1560"/>
  <unicode hex="004A"/>
  <anchor x="550" y="0" name="bottom"/>
  <anchor x="642" y="1396" name="top"/>
  <anchor x="277" y="0" name="b.cedillacomb"/>
  <anchor x="313" y="698" name="m.tildecomb"/>
  <anchor x="277" y="0" name="m.cedillacomb"/>
  <anchor x="313" y="698" name="t.tildecomb"/>
  <outline>
    <contour>
      <point x="258" y="1396" type="line" name="hr00"/>
      <point x="258" y="1150" type="line"/>
      <point x="718" y="1150" type="line"/>
      <point x="718" y="420" type="line" smooth="yes"/>
      <point x="718" y="284"/>
      <point x="658" y="220"/>
      <point x="556" y="220" type="curve" smooth="yes"/>
      <point x="436" y="220"/>
      <point x="382" y="304"/>
      <point x="360" y="422" type="curve"/>
      <point x="76" y="364" type="line"/>
      <point x="120" y="132"/>
      <point x="270" y="-24"/>
      <point x="556" y="-24" type="curve" smooth="yes"/>
      <point x="840" y="-24"/>
      <point x="1022" y="138"/>
      <point x="1022" y="390" type="curve" smooth="yes"/>
      <point x="1022" y="1396" type="line"/>
    </contour>
  </outline>
</glyph>
<glyph name="L" format="1">
  <unicode hex="004C"/>
  <advance width="1200" height="1560"/>
  <outline>
    <contour>
      <point x="1086" y="0" type="line" name="hr00"/>
      <point x="1086" y="246" type="line"/>
      <point x="486" y="246" type="line"/>
      <point x="486" y="1396" type="line"/>
      <point x="184" y="1396" type="line"/>
      <point x="184" y="0" type="line"/>
    </contour>
    <contour>
      <point x="634" y="0" type="move" name="bottom"/>
    </contour>
    <contour>
      <point x="334" y="1396" type="move" name="top"/>
    </contour>
    <contour>
      <point x="640" y="1480" type="move" name="topright"/>
    </contour>
  </outline>
</glyph>
<glyph name="M" format="2">
  <advance width="1200" height="1560"/>
  <unicode hex="004D"/>
  <anchor x="600" y="0" name="bottom"/>
  <anchor x="600" y="1396" name="top"/>
  <anchor x="300" y="0" name="b.cedillacomb"/>
  <anchor x="300" y="698" name="m.tildecomb"/>
  <anchor x="300" y="0" name="m.cedillacomb"/>
  <anchor x="300" y="698" name="t.tildecomb"/>
  <outline>
    <contour>
      <point x="862" y="0" type="line" name="hr00"/>
      <point x="1122" y="0" type="line"/>
      <point x="1122" y="1396" type="line"/>
      <point x="792" y="1396" type="line"/>
      <point x="620" y="926" type="line"/>
      <point x="604" y="926" type="line"/>
      <point x="432" y="1396" type="line"/>
      <point x="78" y="1396" type="line"/>
      <point x="78" y="0" type="line"/>
      <point x="338" y="0" type="line"/>
      <point x="338" y="622" type="line"/>
      <point x="322" y="1012" type="line"/>
      <point x="340" y="1012" type="line"/>
      <point x="600" y="294" type="line"/>
      <point x="860" y="1012" type="line"/>
      <point x="878" y="1012" type="line"/>
      <point x="862" y="622" type="line"/>
    </contour>
  </outline>
</glyph>
<glyph name="N" format="2">
  <advance width="1200" height="1560"/>
  <unicode hex="004E"/>
  <anchor x="600" y="0" name="bottom"/>
  <anchor x="600" y="1396" name="top"/>
  <anchor x="300" y="0" name="b.cedillacomb"/>
  <anchor x="300" y="698" name="m.tildecomb"/>
  <outline>
    <contour>
      <point x="718" y="0" type="line" name="hr00"/>
      <point x="1078" y="0" type="line"/>
      <point x="1078" y="1396" type="line"/>
      <point x="822" y="1396" type="line"/>
      <point x="822" y="468" type="line"/>
      <point x="800" y="468" type="line"/>
      <point x="482" y="1396" type="line"/>
      <point x="122" y="1396" type="line"/>
      <point x="122" y="0" type="line"/>
      <point x="378" y="0" type="line"/>
      <point x="378" y="928" type="line"/>
      <point x="400" y="928" type="line"/>
    </contour>
  </outline>
</glyph>
<glyph name="O" format="2">
  <advance width="1200" height="1560"/>
  <unicode hex="004F"/>
  <anchor x="600" y="0" name="bottom"/>
  <anchor x="600" y="1396" name="top"/>
  <anchor x="300" y="0" name="b.cedillacomb"/>
  <anchor x="300" y="698" name="m.tildecomb"/>
  <outline>
    <contour>
      <point x="600" y="-24" type="curve" smooth="yes" name="hr00"/>
      <point x="974" y="-24"/>
      <point x="1146" y="242"/>
      <point x="1146" y="698" type="curve" smooth="yes"/>
      <point x="1146" y="1154"/>
      <point x="974" y="1420"/>
      <point x="600" y="1420" type="curve" smooth="yes"/>
      <point x="226" y="1420"/>
      <point x="54" y="1154"/>
      <point x="54" y="698" type="curve" smooth="yes"/>
      <point x="54" y="242"/>
      <point x="226" y="-24"/>
    </contour>
    <contour>
      <point x="600" y="218" type="curve" smooth="yes"/>
      <point x="430" y="218"/>
      <point x="374" y="352"/>
      <point x="374" y="576" type="curve" smooth="yes"/>
      <point x="374" y="820" type="line" smooth="yes"/>
      <point x="374" y="1044"/>
      <point x="430" y="1178"/>
      <point x="600" y="1178" type="curve" smooth="yes"/>
      <point x="770" y="1178"/>
      <point x="826" y="1044"/>
      <point x="826" y="820" type="curve" smooth="yes"/>
      <point x="826" y="578" type="line"/>
      <point x="826" y="352"/>
      <point x="770" y="218"/>
    </contour>
  </outline>
</glyph>
<glyph name="P" format="1">
  <unicode hex="0050"/>
  <advance width="1200" height="1560"/>
  <outline>
    <contour>
      <point x="454" y="0" type="line" name="hr00"/>
      <point x="454" y="508" type="line"/>
      <point x="692" y="508" type="line" smooth="yes"/>
      <point x="966" y="508"/>
      <point x="1120" y="682"/>
      <point x="1120" y="952" type="curve" smooth="yes"/>
      <point x="1120" y="1222"/>
      <point x="966" y="1396"/>
      <point x="692" y="1396" type="curve" smooth="yes"/>
      <point x="152" y="1396" type="line"/>
      <point x="152" y="0" type="line"/>
    </contour>
    <contour>
      <point x="454" y="1154" type="line"/>
      <point x="616" y="1154" type="line" smooth="yes"/>
      <point x="756" y="1154"/>
      <point x="804" y="1104"/>
      <point x="804" y="982" type="curve" smooth="yes"/>
      <point x="804" y="922" type="line"/>
      <point x="804" y="800"/>
      <point x="756" y="750"/>
      <point x="616" y="750" type="curve" smooth="yes"/>
      <point x="454" y="750" type="line"/>
    </contour>
    <contour>
      <point x="302" y="0" type="move" name="bottom"/>
    </contour>
    <contour>
      <point x="600" y="1396" type="move" name="top"/>
    </contour>
  </outline>
</glyph>
<glyph name="Q" format="1">
  <unicode hex="0051"/>
  <advance width="1200" height="1560"/>
  <outline>
    <contour>
      <point x="1052" y="-168" type="line" name="hr00"/>
      <point x="730" y="-168" type="line"/>
      <point x="730" y="-12" type="line"/>
      <point x="1014" y="44"/>
      <point x="1146" y="298"/>
      <point x="1146" y="698" type="curve" smooth="yes"/>
      <point x="1146" y="1154"/>
      <point x="974" y="1420"/>
      <point x="600" y="1420" type="curve" smooth="yes"/>
      <point x="226" y="1420"/>
      <point x="54" y="1154"/>
      <point x="54" y="698" type="curve" smooth="yes"/>
      <point x="54" y="298"/>
      <point x="186" y="44"/>
      <point x="470" y="-12" type="curve"/>
      <point x="470" y="-94" type="line" smooth="yes"/>
      <point x="470" y="-268"/>
      <point x="552" y="-382"/>
      <point x="768" y="-382" type="curve" smooth="yes"/>
      <point x="1052" y="-382" type="line"/>
    </contour>
    <contour>
      <point x="600" y="218" type="curve" smooth="yes"/>
      <point x="430" y="218"/>
      <point x="374" y="352"/>
      <point x="374" y="576" type="curve" smooth="yes"/>
      <point x="374" y="820" type="line" smooth="yes"/>
      <point x="374" y="1044"/>
      <point x="430" y="1178"/>
      <point x="600" y="1178" type="curve" smooth="yes"/>
      <point x="770" y="1178"/>
      <point x="826" y="1044"/>
      <point x="826" y="820" type="curve" smooth="yes"/>
      <point x="826" y="578" type="line" smooth="yes"/>
      <point x="826" y="352"/>
      <point x="770" y="218"/>
    </contour>
    <contour>
      <point x="600" y="1396" type="move" name="top"/>
    </contour>
  </outline>
</glyph>
<glyph name="T" format="1">
  <unicode hex="0054"/>
  <advance width="1200" height="1560"/>
  <outline>
    <contour>
      <point x="1152" y="1150" type="line" name="hr00"/>
      <point x="1152" y="1396" type="line"/>
      <point x="48" y="1396" type="line"/>
      <point x="48" y="1150" type="line"/>
      <point x="450" y="1150" type="line"/>
      <point x="450" y="0" type="line"/>
      <point x="750" y="0" type="line"/>
      <point x="750" y="1150" type="line"/>
    </contour>
    <contour>
      <point x="600" y="0" type="move" name="bottom"/>
    </contour>
    <contour>
      <point x="600" y="1396" type="move" name="top"/>
    </contour>
  </outline>
</glyph>
<glyph name="U" format="2">
  <advance width="1200" height="1560"/>
  <unicode hex="0055"/>
  <anchor x="600" y="0" name="bottom"/>
  <anchor x="808" y="0" name="bottomright"/>
  <anchor x="600" y="1396" name="top"/>
  <anchor x="300" y="0" name="b.cedillacomb"/>
  <anchor x="394" y="0" name="b.ogonekcomb"/>
  <anchor x="300" y="698" name="m.tildecomb"/>
  <anchor x="300" y="0" name="m.cedillacomb"/>
  <anchor x="394" y="0" name="m.ogonekcomb"/>
  <anchor x="300" y="698" name="t.tildecomb"/>
  <outline>
    <contour>
      <point x="110" y="1396" type="line" name="hr00"/>
      <point x="110" y="552" type="line" smooth="yes"/>
      <point x="110" y="170"/>
      <point x="194" y="-24"/>
      <point x="600" y="-24" type="curve" smooth="yes"/>
      <point x="1006" y="-24"/>
      <point x="1090" y="170"/>
      <point x="1090" y="552" type="curve" smooth="yes"/>
      <point x="1090" y="1396" type="line"/>
      <point x="790" y="1396" type="line"/>
      <point x="790" y="512" type="line" smooth="yes"/>
      <point x="790" y="334"/>
      <point x="776" y="218"/>
      <point x="600" y="218" type="curve" smooth="yes"/>
      <point x="424" y="218"/>
      <point x="410" y="334"/>
      <point x="410" y="512" type="curve" smooth="yes"/>
      <point x="410" y="1396" type="line"/>
    </contour>
  </outline>
</glyph>
<glyph name="V" format="2">
  <advance width="1200" height="1560"/>
  <unicode hex="0056"/>
  <anchor x="600" y="0" name="bottom"/>
  <anchor x="600" y="1396" name="top"/>
  <anchor x="300" y="0" name="b.cedillacomb"/>
  <anchor x="300" y="698" name="m.tildecomb"/>
  <outline>
    <contour>
      <point x="812" y="0" type="line" name="hr00"/>
      <point x="1182" y="1396" type="line"/>
      <point x="864" y="1396" type="line"/>
      <point x="698" y="686" type="line"/>
      <point x="614" y="284" type="line"/>
      <point x="598" y="284" type="line"/>
      <point x="516" y="686" type="line"/>
      <point x="352" y="1396" type="line"/>
      <point x="18" y="1396" type="line"/>
      <point x="388" y="0" type="line"/>
    </contour>
  </outline>
</glyph>
<glyph name="W" format="2">
  <advance width="1200" height="1560"/>
  <unicode hex="0057"/>
  <anchor x="600" y="0" name="bottom"/>
  <anchor x="600" y="1396" name="top"/>
  <anchor x="300" y="0" name="b.cedillacomb"/>
  <anchor x="300" y="698" name="m.tildecomb"/>
  <anchor x="300" y="0" name="m.cedillacomb"/>
  <anchor x="300" y="698" name="t.tildecomb"/>
  <outline>
    <contour>
      <point x="488" y="0" type="line" name="hr00"/>
      <point x="590" y="770" type="line"/>
      <point x="610" y="770" type="line"/>
      <point x="712" y="0" type="line"/>
      <point x="1092" y="0" type="line"/>
      <point x="1178" y="1396" type="line"/>
      <point x="930" y="1396" type="line"/>
      <point x="890" y="552" type="line"/>
      <point x="878" y="296" type="line"/>
      <point x="860" y="296" type="line"/>
      <point x="740" y="1092" type="line"/>
      <point x="470" y="1092" type="line"/>
      <point x="350" y="296" type="line"/>
      <point x="332" y="296" type="line"/>
      <point x="320" y="560" type="line"/>
      <point x="280" y="1396" type="line"/>
      <point x="22" y="1396" type="line"/>
      <point x="108" y="0" type="line"/>
    </contour>
  </outline>
</glyph>
<glyph name="X" format="2">
  <advance width="1200" height="1560"/>
  <unicode hex="0058"/>
  <anchor x="600" y="0" name="bottom"/>
  <anchor x="600" y="1396" name="top"/>
  <anchor x="300" y="0" name="b.cedillacomb"/>
  <anchor x="300" y="698" name="m.tildecomb"/>
  <anchor x="300" y="0" name="m.cedillacomb"/>
  <anchor x="300" y="698" name="t.tildecomb"/>
  <outline>
    <contour>
      <point x="790" y="718" type="line" name="hr00"/>
      <point x="1156" y="1396" type="line"/>
      <point x="842" y="1396" type="line"/>
      <point x="722" y="1174" type="line"/>
      <point x="618" y="950" type="line"/>
      <point x="602" y="950" type="line"/>
      <point x="500" y="1174" type="line"/>
      <point x="386" y="1396" type="line"/>
      <point x="44" y="1396" type="line"/>
      <point x="410" y="722" type="line"/>
      <point x="18" y="0" type="line"/>
      <point x="332" y="0" type="line"/>
      <point x="480" y="278" type="line"/>
      <point x="580" y="498" type="line"/>
      <point x="598" y="498" type="line"/>
      <point x="696" y="278" type="line"/>
      <point x="840" y="0" type="line"/>
      <point x="1182" y="0" type="line"/>
    </contour>
  </outline>
</glyph>
<glyph name="Y" format="2">
  <advance width="1200" height="1560"/>
  <unicode hex="0059"/>
  <anchor x="600" y="0" name="bottom"/>
  <anchor x="600" y="1396" name="top"/>
  <anchor x="300" y="0" name="b.cedillacomb"/>
  <anchor x="300" y="698" name="m.tildecomb"/>
  <anchor x="300" y="0" name="m.cedillacomb"/>
  <anchor x="300" y="698" name="t.tildecomb"/>
  <outline>
    <contour>
      <point x="750" y="0" type="line" name="hr00"/>
      <point x="750" y="494" type="line"/>
      <point x="1192" y="1396" type="line"/>
      <point x="870" y="1396" type="line"/>
      <point x="722" y="1072" type="line"/>
      <point x="614" y="798" type="line"/>
      <point x="598" y="798" type="line"/>
      <point x="490" y="1072" type="line"/>
      <point x="342" y="1396" type="line"/>
      <point x="8" y="1396" type="line"/>
      <point x="450" y="494" type="line"/>
      <point x="450" y="0" type="line"/>
    </contour>
  </outline>
</glyph>
<glyph name="Z" format="2">
  <advance width="1200" height="1560"/>
  <unicode hex="005A"/>
  <anchor x="598" y="0" name="bottom"/>
  <anchor x="600" y="1396" name="top"/>
  <anchor x="300" y="0" name="b.cedillacomb"/>
  <anchor x="300" y="698" name="m.tildecomb"/>
  <anchor x="300" y="0" name="m.cedillacomb"/>
  <anchor x="300" y="698" name="t.tildecomb"/>
  <outline>
    <contour>
      <point x="1102" y="246" type="line" name="hr00"/>
      <point x="432" y="246" type="line"/>
      <point x="1082" y="1134" type="line"/>
      <point x="1082" y="1396" type="line"/>
      <point x="116" y="1396" type="line"/>
      <point x="116" y="1150" type="line"/>
      <point x="746" y="1150" type="line"/>
      <point x="96" y="262" type="line"/>
      <point x="96" y="0" type="line"/>
      <point x="1102" y="0" type="line"/>
    </contour>
  </outline>
</glyph>
<glyph name="bracketright" format="2">
  <advance width="1200" height="1560"/>
  <unicode hex="005D"/>
  <outline>
    <contour>
      <point x="186" y="1520" type="line" name="hr00"/>
      <point x="186" y="1322" type="line"/>
      <point x="596" y="1322" type="line"/>
      <point x="596" y="-78" type="line"/>
      <point x="186" y="-78" type="line"/>
      <point x="186" y="-276" type="line"/>
      <point x="834" y="-276" type="line"/>
      <point x="834" y="1520" type="line"/>
    </contour>
  </outline>
</glyph>
<glyph name="underscore" format="2">
  <advance width="1200" height="1560"/>
  <unicode hex="005F"/>
  <outline>
    <contour>
      <point x="1080" y="-384" type="line" name="hr00"/>
      <point x="1080" y="-142" type="line"/>
      <point x="120" y="-142" type="line"/>
      <point x="120" y="-384" type="line"/>
    </contour>
  </outline>
</glyph>
<glyph name="grave" format="2">
  <advance width="1200" height="1560"/>
  <unicode hex="0060"/>
  <anchor x="600" y="1032" name="_top"/>
  <outline>
    <contour>
      <point x="568" y="1140" type="line" name="hr00"/>
      <point x="744" y="1226" type="line"/>
      <point x="546" y="1614" type="line"/>
      <point x="300" y="1492" type="line"/>
    </contour>
  </outline>
</glyph>
<glyph name="a" format="2">
  <advance width="1200" height="1560"/>
  <unicode hex="0061"/>
  <anchor x="584" y="0" name="bottom"/>
  <anchor x="1144" y="0" name="bottomright"/>
  <anchor x="584" y="1032" name="top"/>
  <anchor x="283" y="0" name="b.cedillacomb"/>
  <anchor x="550" y="0" name="b.ogonekcomb"/>
  <anchor x="283" y="516" name="m.tildecomb"/>
  <anchor x="283" y="0" name="m.cedillacomb"/>
  <anchor x="550" y="0" name="m.ogonekcomb"/>
  <anchor x="283" y="516" name="t.tildecomb"/>
  <outline>
    <contour>
      <point x="1144" y="0" type="line"/>
      <point x="1144" y="214" type="line"/>
      <point x="1030" y="214" type="line"/>
      <point x="1030" y="666" type="line" smooth="yes"/>
      <point x="1030" y="926"/>
      <point x="862" y="1056"/>
      <point x="580" y="1056" type="curve" smooth="yes"/>
      <point x="350" y="1056"/>
      <point x="200" y="970"/>
      <point x="132" y="854" type="curve"/>
      <point x="294" y="710" type="line"/>
      <point x="350" y="786"/>
      <point x="422" y="840"/>
      <point x="546" y="840" type="curve" smooth="yes"/>
      <point x="682" y="840"/>
      <point x="734" y="776"/>
      <point x="734" y="654" type="curve" smooth="yes"/>
      <point x="734" y="602" type="line"/>
      <point x="568" y="602" type="line" smooth="yes"/>
      <point x="266" y="602"/>
      <point x="104" y="500"/>
      <point x="104" y="284" type="curve" smooth="yes"/>
      <point x="104" y="90"/>
      <point x="236" y="-24"/>
      <point x="436" y="-24" type="curve" smooth="yes" name="hr01"/>
      <point x="594" y="-24"/>
      <point x="714" y="48"/>
      <point x="750" y="182" type="curve"/>
      <point x="760" y="182" type="line"/>
      <point x="772" y="66"/>
      <point x="852" y="0"/>
      <point x="974" y="0" type="curve" smooth="yes" name="hr02"/>
    </contour>
    <contour>
      <point x="548" y="170" type="curve" smooth="yes" name="hr03"/>
      <point x="454" y="170"/>
      <point x="394" y="208"/>
      <point x="394" y="280" type="curve" smooth="yes"/>
      <point x="394" y="320" type="line" smooth="yes"/>
      <point x="394" y="400"/>
      <point x="458" y="442"/>
      <point x="576" y="442" type="curve" smooth="yes"/>
      <point x="734" y="442" type="line"/>
      <point x="734" y="318" type="line" smooth="yes"/>
      <point x="734" y="222"/>
      <point x="652" y="170"/>
    </contour>
  </outline>
</glyph>
<glyph name="b" format="2">
  <advance width="1200" height="1560"/>
  <unicode hex="0062"/>
  <anchor x="620" y="0" name="bottom"/>
  <anchor x="317" y="0" name="b.cedillacomb"/>
  <anchor x="317" y="0" name="m.cedillacomb"/>
  <outline>
    <contour>
      <point x="118" y="0" type="line"/>
      <point x="414" y="0" type="line"/>
      <point x="414" y="188" type="line"/>
      <point x="428" y="188" type="line"/>
      <point x="480" y="64"/>
      <point x="568" y="-24"/>
      <point x="734" y="-24" type="curve" smooth="yes" name="hr01"/>
      <point x="962" y="-24"/>
      <point x="1122" y="142"/>
      <point x="1122" y="516" type="curve" smooth="yes"/>
      <point x="1122" y="890"/>
      <point x="962" y="1056"/>
      <point x="734" y="1056" type="curve" smooth="yes"/>
      <point x="568" y="1056"/>
      <point x="480" y="968"/>
      <point x="428" y="844" type="curve"/>
      <point x="414" y="844" type="line"/>
      <point x="414" y="1480" type="line" name="hr02"/>
      <point x="118" y="1480" type="line"/>
    </contour>
    <contour>
      <point x="606" y="206" type="curve" smooth="yes" name="hr03"/>
      <point x="502" y="206"/>
      <point x="414" y="256"/>
      <point x="414" y="364" type="curve"/>
      <point x="414" y="668" type="line"/>
      <point x="414" y="776"/>
      <point x="502" y="826"/>
      <point x="606" y="826" type="curve" smooth="yes"/>
      <point x="738" y="826"/>
      <point x="814" y="740"/>
      <point x="814" y="596" type="curve" smooth="yes"/>
      <point x="814" y="436" type="line"/>
      <point x="814" y="292"/>
      <point x="738" y="206"/>
    </contour>
  </outline>
</glyph>
<glyph name="c" format="2">
  <advance width="1200" height="1560"/>
  <unicode hex="0063"/>
  <anchor x="602" y="0" name="bottom"/>
  <anchor x="628" y="1032" name="top"/>
  <anchor x="303" y="0" name="b.cedillacomb"/>
  <anchor x="313" y="516" name="m.tildecomb"/>
  <outline>
    <contour>
      <point x="642" y="-24" type="curve" smooth="yes" name="hr00"/>
      <point x="872" y="-24"/>
      <point x="1012" y="78"/>
      <point x="1086" y="228" type="curve"/>
      <point x="862" y="356" type="line"/>
      <point x="818" y="272"/>
      <point x="758" y="212"/>
      <point x="644" y="212" type="curve" smooth="yes"/>
      <point x="504" y="212"/>
      <point x="428" y="296"/>
      <point x="428" y="432" type="curve" smooth="yes"/>
      <point x="428" y="600" type="line" smooth="yes"/>
      <point x="428" y="736"/>
      <point x="506" y="820"/>
      <point x="640" y="820" type="curve" smooth="yes"/>
      <point x="750" y="820"/>
      <point x="806" y="760"/>
      <point x="842" y="680" type="curve"/>
      <point x="1070" y="804" type="line"/>
      <point x="998" y="954"/>
      <point x="866" y="1056"/>
      <point x="640" y="1056" type="curve" smooth="yes"/>
      <point x="318" y="1056"/>
      <point x="120" y="850"/>
      <point x="120" y="516" type="curve" smooth="yes"/>
      <point x="120" y="182"/>
      <point x="316" y="-24"/>
    </contour>
  </outline>
</glyph>
<glyph name="d" format="2">
  <advance width="1200" height="1560"/>
  <unicode hex="0064"/>
  <anchor x="580" y="0" name="bottom"/>
  <anchor x="1184" y="1480" name="topright"/>
  <anchor x="282" y="0" name="b.cedillacomb"/>
  <anchor x="567" y="740" name="m.caronslovakcomb"/>
  <outline>
    <contour>
      <point x="786" y="0" type="line"/>
      <point x="1082" y="0" type="line"/>
      <point x="1082" y="1480" type="line"/>
      <point x="786" y="1480" type="line"/>
      <point x="786" y="844" type="line"/>
      <point x="772" y="844" type="line"/>
      <point x="720" y="968"/>
      <point x="632" y="1056"/>
      <point x="466" y="1056" type="curve" smooth="yes"/>
      <point x="238" y="1056"/>
      <point x="78" y="890"/>
      <point x="78" y="516" type="curve" smooth="yes"/>
      <point x="78" y="142"/>
      <point x="238" y="-24"/>
      <point x="466" y="-24" type="curve" smooth="yes" name="hr01"/>
      <point x="632" y="-24"/>
      <point x="720" y="64"/>
      <point x="772" y="188" type="curve" name="hr02"/>
      <point x="786" y="188" type="line"/>
    </contour>
    <contour>
      <point x="594" y="206" type="curve" smooth="yes" name="hr03"/>
      <point x="462" y="206"/>
      <point x="386" y="292"/>
      <point x="386" y="436" type="curve" smooth="yes"/>
      <point x="386" y="596" type="line"/>
      <point x="386" y="740"/>
      <point x="462" y="826"/>
      <point x="594" y="826" type="curve" smooth="yes"/>
      <point x="698" y="826"/>
      <point x="786" y="776"/>
      <point x="786" y="668" type="curve"/>
      <point x="786" y="364" type="line"/>
      <point x="786" y="256"/>
      <point x="698" y="206"/>
    </contour>
  </outline>
</glyph>
<glyph name="e" format="2">
  <advance width="1200" height="1560"/>
  <unicode hex="0065"/>
  <anchor x="612" y="0" name="bottom"/>
  <anchor x="818" y="0" name="bottomright"/>
  <anchor x="602" y="1032" name="top"/>
  <anchor x="309" y="0" name="b.cedillacomb"/>
  <anchor x="391" y="0" name="b.ogonekcomb"/>
  <anchor x="302" y="516" name="m.tildecomb"/>
  <anchor x="309" y="0" name="m.cedillacomb"/>
  <anchor x="391" y="0" name="m.ogonekcomb"/>
  <anchor x="302" y="516" name="t.tildecomb"/>
  <outline>
    <contour>
      <point x="628" y="-24" type="curve" smooth="yes" name="hr00"/>
      <point x="850" y="-24"/>
      <point x="990" y="60"/>
      <point x="1070" y="158" type="curve"/>
      <point x="910" y="332" type="line"/>
      <point x="846" y="256"/>
      <point x="760" y="204"/>
      <point x="638" y="204" type="curve" smooth="yes"/>
      <point x="480" y="204"/>
      <point x="394" y="294"/>
      <point x="394" y="426" type="curve" smooth="yes"/>
      <point x="394" y="444" type="line"/>
      <point x="1100" y="444" type="line"/>
      <point x="1100" y="532" type="line" smooth="yes"/>
      <point x="1100" y="854"/>
      <point x="910" y="1056"/>
      <point x="602" y="1056" type="curve" smooth="yes"/>
      <point x="292" y="1056"/>
      <point x="100" y="850"/>
      <point x="100" y="512" type="curve" smooth="yes"/>
      <point x="100" y="182"/>
      <point x="282" y="-24"/>
    </contour>
    <contour>
      <point x="604" y="844" type="curve" smooth="yes"/>
      <point x="732" y="844"/>
      <point x="810" y="760"/>
      <point x="810" y="626" type="curve" smooth="yes"/>
      <point x="810" y="610" type="line"/>
      <point x="394" y="610" type="line"/>
      <point x="394" y="626" type="line" smooth="yes"/>
      <point x="394" y="758"/>
      <point x="476" y="844"/>
    </contour>
  </outline>
</glyph>
<glyph name="f" format="2">
  <advance width="1200" height="1560"/>
  <unicode hex="0066"/>
  <anchor x="594" y="0" name="bottom"/>
  <anchor x="308" y="0" name="b.cedillacomb"/>
  <anchor x="308" y="0" name="m.cedillacomb"/>
  <outline>
    <contour>
      <point x="142" y="0" type="line" name="hr00"/>
      <point x="1066" y="0" type="line"/>
      <point x="1066" y="230" type="line"/>
      <point x="742" y="230" type="line"/>
      <point x="742" y="802" type="line"/>
      <point x="1112" y="802" type="line"/>
      <point x="1112" y="1032" type="line"/>
      <point x="742" y="1032" type="line"/>
      <point x="742" y="1250" type="line"/>
      <point x="1112" y="1250" type="line"/>
      <point x="1112" y="1480" type="line"/>
      <point x="762" y="1480" type="line" smooth="yes"/>
      <point x="546" y="1480"/>
      <point x="446" y="1356"/>
      <point x="446" y="1182" type="curve" smooth="yes"/>
      <point x="446" y="1032" type="line"/>
      <point x="122" y="1032" type="line"/>
      <point x="122" y="802" type="line"/>
      <point x="446" y="802" type="line"/>
      <point x="446" y="230" type="line"/>
      <point x="142" y="230" type="line"/>
    </contour>
  </outline>
</glyph>
<glyph name="g" format="2">
  <advance width="1200" height="1560"/>
  <unicode hex="0067"/>
  <anchor x="588" y="1032" name="top"/>
  <anchor x="297" y="516" name="m.tildecomb"/>
  <outline>
    <contour>
      <point x="1166" y="-104" type="curve" smooth="yes"/>
      <point x="1166" y="70"/>
      <point x="1052" y="194"/>
      <point x="756" y="194" type="curve" smooth="yes"/>
      <point x="520" y="194" type="line" smooth="yes"/>
      <point x="438" y="194"/>
      <point x="368" y="198"/>
      <point x="368" y="264" type="curve" smooth="yes"/>
      <point x="368" y="300"/>
      <point x="390" y="324"/>
      <point x="420" y="340" type="curve" name="hr01"/>
      <point x="470" y="326"/>
      <point x="528" y="320"/>
      <point x="588" y="320" type="curve" smooth="yes"/>
      <point x="860" y="320"/>
      <point x="1040" y="450"/>
      <point x="1040" y="688" type="curve" smooth="yes"/>
      <point x="1040" y="834"/>
      <point x="974" y="938"/>
      <point x="862" y="996" type="curve"/>
      <point x="862" y="1014" type="line"/>
      <point x="1110" y="1014" type="line"/>
      <point x="1110" y="1230" type="line"/>
      <point x="928" y="1230" type="line" smooth="yes"/>
      <point x="830" y="1230"/>
      <point x="770" y="1170"/>
      <point x="770" y="1090" type="curve" smooth="yes"/>
      <point x="770" y="1034" type="line"/>
      <point x="716" y="1048"/>
      <point x="654" y="1056"/>
      <point x="588" y="1056" type="curve" smooth="yes" name="hr02"/>
      <point x="318" y="1056"/>
      <point x="140" y="928"/>
      <point x="140" y="688" type="curve" smooth="yes"/>
      <point x="140" y="536"/>
      <point x="212" y="428"/>
      <point x="334" y="370" type="curve"/>
      <point x="334" y="358" type="line"/>
      <point x="222" y="332"/>
      <point x="148" y="290"/>
      <point x="148" y="190" type="curve" smooth="yes" name="hr03"/>
      <point x="148" y="100"/>
      <point x="204" y="54"/>
      <point x="292" y="28" type="curve"/>
      <point x="292" y="16" type="line"/>
      <point x="168" y="-16"/>
      <point x="94" y="-70"/>
      <point x="94" y="-186" type="curve" smooth="yes" name="hr04"/>
      <point x="94" y="-326"/>
      <point x="202" y="-424"/>
      <point x="594" y="-424" type="curve" smooth="yes"/>
      <point x="986" y="-424"/>
      <point x="1166" y="-322"/>
    </contour>
    <contour>
      <point x="886" y="-126" type="curve" smooth="yes"/>
      <point x="886" y="-196"/>
      <point x="826" y="-234"/>
      <point x="692" y="-234" type="curve" smooth="yes"/>
      <point x="518" y="-234" type="line" smooth="yes"/>
      <point x="388" y="-234"/>
      <point x="338" y="-188"/>
      <point x="338" y="-124" type="curve" smooth="yes"/>
      <point x="338" y="-90"/>
      <point x="352" y="-62"/>
      <point x="378" y="-40" type="curve"/>
      <point x="732" y="-40" type="line" smooth="yes"/>
      <point x="852" y="-40"/>
      <point x="886" y="-72"/>
    </contour>
    <contour>
      <point x="588" y="508" type="curve" smooth="yes"/>
      <point x="472" y="508"/>
      <point x="420" y="574"/>
      <point x="420" y="664" type="curve" smooth="yes" name="hr05"/>
      <point x="420" y="712" type="line"/>
      <point x="420" y="802"/>
      <point x="472" y="868"/>
      <point x="588" y="868" type="curve" smooth="yes"/>
      <point x="706" y="868"/>
      <point x="760" y="802"/>
      <point x="760" y="712" type="curve" smooth="yes"/>
      <point x="760" y="664" type="line" smooth="yes"/>
      <point x="760" y="574"/>
      <point x="706" y="508"/>
    </contour>
  </outline>
</glyph>
<glyph name="h" format="2">
  <advance width="1200" height="1560"/>
  <unicode hex="0068"/>
  <anchor x="604" y="0" name="bottom"/>
  <anchor x="278" y="1396" name="top"/>
  <anchor x="303" y="0" name="b.cedillacomb"/>
  <anchor x="138" y="698" name="m.tildecomb"/>
  <outline>
    <contour>
      <point x="130" y="0" type="line" name="hr00"/>
      <point x="426" y="0" type="line"/>
      <point x="426" y="678" type="line"/>
      <point x="426" y="778"/>
      <point x="516" y="828"/>
      <point x="608" y="828" type="curve" smooth="yes"/>
      <point x="724" y="828"/>
      <point x="782" y="758"/>
      <point x="782" y="628" type="curve" smooth="yes"/>
      <point x="782" y="0" type="line"/>
      <point x="1078" y="0" type="line"/>
      <point x="1078" y="668" type="line" smooth="yes"/>
      <point x="1078" y="918"/>
      <point x="940" y="1056"/>
      <point x="742" y="1056" type="curve" smooth="yes"/>
      <point x="576" y="1056"/>
      <point x="484" y="960"/>
      <point x="438" y="844" type="curve"/>
      <point x="426" y="844" type="line"/>
      <point x="426" y="1480" type="line"/>
      <point x="130" y="1480" type="line"/>
    </contour>
  </outline>
</glyph>
<glyph name="i" format="2">
  <advance width="1200" height="1560"/>
  <unicode hex="0069"/>
  <anchor x="664" y="0" name="bottom"/>
  <anchor x="1116" y="0" name="bottomright"/>
  <anchor x="332" y="0" name="b.cedillacomb"/>
  <anchor x="546" y="0" name="b.ogonekcomb"/>
  <outline>
    <contour>
      <point x="664" y="1164" type="curve" smooth="yes"/>
      <point x="796" y="1164"/>
      <point x="842" y="1226"/>
      <point x="842" y="1304" type="curve" smooth="yes"/>
      <point x="842" y="1362" type="line" smooth="yes"/>
      <point x="842" y="1442"/>
      <point x="796" y="1502"/>
      <point x="664" y="1502" type="curve" smooth="yes"/>
      <point x="532" y="1502"/>
      <point x="486" y="1442"/>
      <point x="486" y="1362" type="curve" smooth="yes"/>
      <point x="486" y="1304" type="line" smooth="yes"/>
      <point x="486" y="1226"/>
      <point x="532" y="1164"/>
    </contour>
    <contour>
      <point x="188" y="0" type="line"/>
      <point x="1116" y="0" type="line"/>
      <point x="1116" y="230" type="line"/>
      <point x="812" y="230" type="line" name="hr01"/>
      <point x="812" y="1032" type="line"/>
      <point x="188" y="1032" type="line"/>
      <point x="188" y="802" type="line"/>
      <point x="516" y="802" type="line"/>
      <point x="516" y="230" type="line"/>
      <point x="188" y="230" type="line"/>
    </contour>
  </outline>
</glyph>
<glyph name="k" format="1">
  <unicode hex="006B"/>
  <advance width="1200" height="1560"/>
  <outline>
    <contour>
      <point x="130" y="0" type="line" name="hr00"/>
      <point x="426" y="0" type="line"/>
      <point x="426" y="358" type="line"/>
      <point x="524" y="456" type="line"/>
      <point x="824" y="0" type="line"/>
      <point x="1176" y="0" type="line"/>
      <point x="734" y="624" type="line"/>
      <point x="1134" y="1032" type="line"/>
      <point x="794" y="1032" type="line"/>
      <point x="578" y="802" type="line"/>
      <point x="440" y="640" type="line"/>
      <point x="426" y="640" type="line"/>
      <point x="426" y="1480" type="line"/>
      <point x="130" y="1480" type="line"/>
    </contour>
    <contour>
      <point x="616" y="0" type="move" name="bottom"/>
    </contour>
  </outline>
</glyph>
<glyph name="l" format="1">
  <unicode hex="006C"/>
  <advance width="1200" height="1560"/>
  <outline>
    <contour>
      <point x="136" y="0" type="line" name="hr00"/>
      <point x="1064" y="0" type="line"/>
      <point x="1064" y="230" type="line"/>
      <point x="748" y="230" type="line"/>
      <point x="748" y="1480" type="line"/>
      <point x="136" y="1480" type="line"/>
      <point x="136" y="1250" type="line"/>
      <point x="452" y="1250" type="line"/>
      <point x="452" y="230" type="line"/>
      <point x="136" y="230" type="line"/>
    </contour>
    <contour>
      <point x="600" y="0" type="move" name="bottom"/>
    </contour>
    <contour>
      <point x="600" y="1396" type="move" name="top"/>
    </contour>
    <contour>
      <point x="874" y="1480" type="move" name="topright"/>
    </contour>
  </outline>
</glyph>
<glyph name="m" format="2">
  <advance width="1200" height="1560"/>
  <unicode hex="006D"/>
  <anchor x="600" y="0" name="bottom"/>
  <anchor x="600" y="1032" name="top"/>
  <anchor x="300" y="0" name="b.cedillacomb"/>
  <anchor x="300" y="516" name="m.tildecomb"/>
  <anchor x="300" y="0" name="m.cedillacomb"/>
  <anchor x="300" y="516" name="t.tildecomb"/>
  <outline>
    <contour>
      <point x="298" y="0" type="line"/>
      <point x="298" y="736" type="line"/>
      <point x="298" y="806"/>
      <point x="340" y="838"/>
      <point x="394" y="838" type="curve" smooth="yes"/>
      <point x="446" y="838"/>
      <point x="480" y="804"/>
      <point x="480" y="708" type="curve" smooth="yes"/>
      <point x="480" y="0" type="line"/>
      <point x="720" y="0" type="line"/>
      <point x="720" y="736" type="line"/>
      <point x="720" y="806"/>
      <point x="762" y="838"/>
      <point x="812" y="838" type="curve" smooth="yes"/>
      <point x="866" y="838"/>
      <point x="902" y="804"/>
      <point x="902" y="708" type="curve" smooth="yes"/>
      <point x="902" y="0" type="line"/>
      <point x="1140" y="0" type="line"/>
      <point x="1140" y="738" type="line" smooth="yes"/>
      <point x="1140" y="950"/>
      <point x="1068" y="1056"/>
      <point x="924" y="1056" type="curve" smooth="yes"/>
      <point x="796" y="1056"/>
      <point x="738" y="974"/>
      <point x="704" y="880" type="curve"/>
      <point x="692" y="880" type="line"/>
      <point x="670" y="994"/>
      <point x="606" y="1056"/>
      <point x="508" y="1056" type="curve" smooth="yes"/>
      <point x="398" y="1056"/>
      <point x="344" y="976"/>
      <point x="312" y="880" type="curve"/>
      <point x="298" y="880" type="line"/>
      <point x="298" y="1032" type="line" name="hr01"/>
      <point x="60" y="1032" type="line"/>
      <point x="60" y="0" type="line"/>
    </contour>
  </outline>
</glyph>
<glyph name="p" format="1">
  <unicode hex="0070"/>
  <advance width="1200" height="1560"/>
  <outline>
    <contour>
      <point x="118" y="-400" type="line"/>
      <point x="414" y="-400" type="line"/>
      <point x="414" y="188" type="line"/>
      <point x="428" y="188" type="line"/>
      <point x="480" y="64"/>
      <point x="568" y="-24"/>
      <point x="734" y="-24" type="curve" smooth="yes"/>
      <point x="962" y="-24"/>
      <point x="1122" y="142"/>
      <point x="1122" y="516" type="curve" smooth="yes"/>
      <point x="1122" y="890"/>
      <point x="962" y="1056"/>
      <point x="734" y="1056" type="curve" smooth="yes"/>
      <point x="568" y="1056"/>
      <point x="480" y="968"/>
      <point x="428" y="844" type="curve"/>
      <point x="414" y="844" type="line"/>
      <point x="414" y="1032" type="line" name="hr01"/>
      <point x="118" y="1032" type="line"/>
    </contour>
    <contour>
      <point x="606" y="206" type="curve" smooth="yes"/>
      <point x="502" y="206"/>
      <point x="414" y="256"/>
      <point x="414" y="364" type="curve"/>
      <point x="414" y="668" type="line"/>
      <point x="414" y="776"/>
      <point x="502" y="826"/>
      <point x="606" y="826" type="curve" smooth="yes" name="hr02"/>
      <point x="738" y="826"/>
      <point x="814" y="740"/>
      <point x="814" y="596" type="curve" smooth="yes"/>
      <point x="814" y="436" type="line"/>
      <point x="814" y="292"/>
      <point x="738" y="206"/>
    </contour>
    <contour>
      <point x="620" y="1032" type="move" name="top"/>
    </contour>
  </outline>
</glyph>
<glyph name="q" format="2">
  <advance width="1200" height="1560"/>
  <unicode hex="0071"/>
  <anchor x="580" y="1032" name="top"/>
  <anchor x="282" y="516" name="m.tildecomb"/>
  <outline>
    <contour>
      <point x="786" y="-400" type="line"/>
      <point x="1082" y="-400" type="line"/>
      <point x="1082" y="1032" type="line"/>
      <point x="786" y="1032" type="line"/>
      <point x="786" y="844" type="line"/>
      <point x="772" y="844" type="line"/>
      <point x="720" y="968"/>
      <point x="632" y="1056"/>
      <point x="466" y="1056" type="curve" smooth="yes" name="hr01"/>
      <point x="238" y="1056"/>
      <point x="78" y="890"/>
      <point x="78" y="516" type="curve" smooth="yes"/>
      <point x="78" y="142"/>
      <point x="238" y="-24"/>
      <point x="466" y="-24" type="curve" smooth="yes"/>
      <point x="632" y="-24"/>
      <point x="720" y="64"/>
      <point x="772" y="188" type="curve"/>
      <point x="786" y="188" type="line"/>
    </contour>
    <contour>
      <point x="594" y="206" type="curve" smooth="yes"/>
      <point x="462" y="206"/>
      <point x="386" y="292"/>
      <point x="386" y="436" type="curve" smooth="yes"/>
      <point x="386" y="596" type="line"/>
      <point x="386" y="740"/>
      <point x="462" y="826"/>
      <point x="594" y="826" type="curve" smooth="yes"/>
      <point x="698" y="826"/>
      <point x="786" y="776"/>
      <point x="786" y="668" type="curve"/>
      <point x="786" y="364" type="line"/>
      <point x="786" y="256"/>
      <point x="698" y="206"/>
    </contour>
  </outline>
</glyph>
<glyph name="s" format="2">
  <advance width="1200" height="1560"/>
  <unicode hex="0073"/>
  <anchor x="586" y="0" name="bottom"/>
  <anchor x="610" y="1032" name="top"/>
  <anchor x="294" y="0" name="b.cedillacomb"/>
  <anchor x="298" y="516" name="m.tildecomb"/>
  <outline>
    <contour>
      <point x="588" y="-24" type="curve" smooth="yes" name="hr00"/>
      <point x="894" y="-24"/>
      <point x="1068" y="112"/>
      <point x="1068" y="326" type="curve" smooth="yes"/>
      <point x="1068" y="522"/>
      <point x="922" y="600"/>
      <point x="736" y="628" type="curve"/>
      <point x="572" y="654" type="line" smooth="yes"/>
      <point x="492" y="666"/>
      <point x="444" y="684"/>
      <point x="444" y="744" type="curve" smooth="yes"/>
      <point x="444" y="812"/>
      <point x="504" y="848"/>
      <point x="616" y="848" type="curve" smooth="yes"/>
      <point x="750" y="848"/>
      <point x="848" y="796"/>
      <point x="908" y="730" type="curve"/>
      <point x="1056" y="898" type="line"/>
      <point x="970" y="998"/>
      <point x="828" y="1056"/>
      <point x="626" y="1056" type="curve" smooth="yes"/>
      <point x="328" y="1056"/>
      <point x="154" y="926"/>
      <point x="154" y="710" type="curve" smooth="yes"/>
      <point x="154" y="514"/>
      <point x="300" y="436"/>
      <point x="484" y="408" type="curve" smooth="yes"/>
      <point x="650" y="382" type="line" smooth="yes"/>
      <point x="730" y="370"/>
      <point x="778" y="352"/>
      <point x="778" y="294" type="curve" smooth="yes"/>
      <point x="778" y="220"/>
      <point x="706" y="184"/>
      <point x="590" y="184" type="curve" smooth="yes"/>
      <point x="452" y="184"/>
      <point x="344" y="236"/>
      <point x="264" y="324" type="curve"/>
      <point x="98" y="170" type="line"/>
      <point x="182" y="50"/>
      <point x="360" y="-24"/>
    </contour>
  </outline>
</glyph>
<glyph name="t" format="2">
  <advance width="1200" height="1560"/>
  <unicode hex="0074"/>
  <anchor x="722" y="0" name="bottom"/>
  <anchor x="792" y="1560" name="topright"/>
  <anchor x="375" y="0" name="b.cedillacomb"/>
  <anchor x="387" y="760" name="m.caronslovakcomb"/>
  <outline>
    <contour>
      <point x="1062" y="0" type="line" name="hr00"/>
      <point x="1062" y="230" type="line"/>
      <point x="660" y="230" type="line"/>
      <point x="660" y="802" type="line"/>
      <point x="1062" y="802" type="line"/>
      <point x="1062" y="1032" type="line"/>
      <point x="660" y="1032" type="line"/>
      <point x="660" y="1396" type="line"/>
      <point x="388" y="1396" type="line"/>
      <point x="388" y="1154" type="line" smooth="yes"/>
      <point x="388" y="1062"/>
      <point x="354" y="1032"/>
      <point x="266" y="1032" type="curve" smooth="yes"/>
      <point x="84" y="1032" type="line"/>
      <point x="84" y="802" type="line"/>
      <point x="364" y="802" type="line"/>
      <point x="364" y="298" type="line" smooth="yes"/>
      <point x="364" y="124"/>
      <point x="466" y="0"/>
      <point x="680" y="0" type="curve" smooth="yes"/>
    </contour>
  </outline>
</glyph>
<glyph name="u" format="1">
  <unicode hex="0075"/>
  <advance width="1200" height="1560"/>
  <outline>
    <contour>
      <point x="774" y="0" type="line"/>
      <point x="1070" y="0" type="line"/>
      <point x="1070" y="1032" type="line"/>
      <point x="774" y="1032" type="line"/>
      <point x="774" y="354" type="line" smooth="yes"/>
      <point x="774" y="254"/>
      <point x="684" y="204"/>
      <point x="592" y="204" type="curve" smooth="yes" name="hr01"/>
      <point x="476" y="204"/>
      <point x="418" y="274"/>
      <point x="418" y="404" type="curve" smooth="yes"/>
      <point x="418" y="1032" type="line"/>
      <point x="122" y="1032" type="line"/>
      <point x="122" y="364" type="line" smooth="yes"/>
      <point x="122" y="114"/>
      <point x="260" y="-24"/>
      <point x="458" y="-24" type="curve" smooth="yes"/>
      <point x="624" y="-24"/>
      <point x="716" y="72"/>
      <point x="762" y="188" type="curve" name="hr02"/>
      <point x="774" y="188" type="line"/>
    </contour>
    <contour>
      <point x="596" y="0" type="move" name="bottom"/>
    </contour>
    <contour>
      <point x="1070" y="0" type="move" name="bottomright"/>
    </contour>
    <contour>
      <point x="596" y="1032" type="move" name="top"/>
    </contour>
  </outline>
</glyph>
<glyph name="v" format="2">
  <advance width="1200" height="1560"/>
  <unicode hex="0076"/>
  <anchor x="600" y="0" name="bottom"/>
  <anchor x="600" y="1032" name="top"/>
  <anchor x="300" y="0" name="b.cedillacomb"/>
  <anchor x="300" y="516" name="m.tildecomb"/>
  <outline>
    <contour>
      <point x="776" y="0" type="line" name="hr00"/>
      <point x="1146" y="1032" type="line"/>
      <point x="846" y="1032" type="line"/>
      <point x="712" y="590" type="line"/>
      <point x="614" y="246" type="line"/>
      <point x="598" y="246" type="line"/>
      <point x="500" y="590" type="line"/>
      <point x="366" y="1032" type="line"/>
      <point x="54" y="1032" type="line"/>
      <point x="424" y="0" type="line"/>
    </contour>
  </outline>
</glyph>
<glyph name="w" format="1">
  <unicode hex="0077"/>
  <advance width="1200" height="1560"/>
  <outline>
    <contour>
      <point x="136" y="0" type="line" name="hr00"/>
      <point x="488" y="0" type="line"/>
      <point x="590" y="712" type="line"/>
      <point x="610" y="712" type="line"/>
      <point x="712" y="0" type="line"/>
      <point x="1064" y="0" type="line"/>
      <point x="1186" y="1032" type="line"/>
      <point x="952" y="1032" type="line"/>
      <point x="876" y="196" type="line"/>
      <point x="856" y="196" type="line"/>
      <point x="736" y="1032" type="line"/>
      <point x="476" y="1032" type="line"/>
      <point x="354" y="196" type="line"/>
      <point x="334" y="196" type="line"/>
      <point x="260" y="1032" type="line"/>
      <point x="14" y="1032" type="line"/>
    </contour>
    <contour>
      <point x="600" y="0" type="move" name="bottom"/>
    </contour>
    <contour>
      <point x="600" y="1032" type="move" name="top"/>
    </contour>
  </outline>
</glyph>
<glyph name="x" format="1">
  <unicode hex="0078"/>
  <advance width="1200" height="1560"/>
  <outline>
    <contour>
      <point x="358" y="0" type="line" name="hr00"/>
      <point x="490" y="194" type="line"/>
      <point x="578" y="332" type="line"/>
      <point x="594" y="332" type="line"/>
      <point x="684" y="194" type="line"/>
      <point x="814" y="0" type="line"/>
      <point x="1154" y="0" type="line"/>
      <point x="768" y="540" type="line"/>
      <point x="1128" y="1032" type="line"/>
      <point x="818" y="1032" type="line"/>
      <point x="706" y="866" type="line"/>
      <point x="620" y="732" type="line"/>
      <point x="604" y="732" type="line"/>
      <point x="520" y="866" type="line"/>
      <point x="410" y="1032" type="line"/>
      <point x="72" y="1032" type="line"/>
      <point x="432" y="524" type="line"/>
      <point x="46" y="0" type="line"/>
    </contour>
    <contour>
      <point x="600" y="0" type="move" name="bottom"/>
    </contour>
    <contour>
      <point x="600" y="1032" type="move" name="top"/>
    </contour>
  </outline>
</glyph>
<glyph name="z" format="2">
  <advance width="1200" height="1560"/>
  <unicode hex="007A"/>
  <anchor x="600" y="0" name="bottom"/>
  <anchor x="600" y="1032" name="top"/>
  <anchor x="300" y="0" name="b.cedillacomb"/>
  <anchor x="300" y="516" name="m.tildecomb"/>
  <outline>
    <contour>
      <point x="1068" y="0" type="line" name="hr00"/>
      <point x="1068" y="230" type="line"/>
      <point x="474" y="230" type="line"/>
      <point x="1048" y="786" type="line"/>
      <point x="1048" y="1032" type="line"/>
      <point x="152" y="1032" type="line"/>
      <point x="152" y="802" type="line"/>
      <point x="706" y="802" type="line"/>
      <point x="132" y="246" type="line"/>
      <point x="132" y="0" type="line"/>
    </contour>
  </outline>
</glyph>
<glyph name="asciitilde" format="2">
  <advance width="1200" height="1560"/>
  <unicode hex="007E"/>
  <outline>
    <contour>
      <point x="818" y="420" type="curve" smooth="yes"/>
      <point x="976" y="420"/>
      <point x="1086" y="544"/>
      <point x="1128" y="724" type="curve"/>
      <point x="916" y="800" type="line"/>
      <point x="884" y="710"/>
      <point x="850" y="666"/>
      <point x="786" y="666" type="curve" smooth="yes"/>
      <point x="736" y="666"/>
      <point x="688" y="692"/>
      <point x="620" y="726" type="curve" smooth="yes"/>
      <point x="540" y="766"/>
      <point x="466" y="800"/>
      <point x="382" y="800" type="curve" smooth="yes" name="hr01"/>
      <point x="224" y="800"/>
      <point x="114" y="676"/>
      <point x="72" y="496" type="curve"/>
      <point x="284" y="420" type="line"/>
      <point x="316" y="510"/>
      <point x="350" y="554"/>
      <point x="414" y="554" type="curve" smooth="yes"/>
      <point x="464" y="554"/>
      <point x="512" y="528"/>
      <point x="580" y="494" type="curve" smooth="yes"/>
      <point x="660" y="454"/>
      <point x="734" y="420"/>
    </contour>
  </outline>
</glyph>
<glyph name="exclamdown" format="2">
  <advance width="1200" height="1560"/>
  <unicode hex="00A1"/>
  <outline>
    <contour>
      <point x="762" y="-364" type="line"/>
      <point x="762" y="42" type="line"/>
      <point x="648" y="546" type="line"/>
      <point x="552" y="546" type="line"/>
      <point x="438" y="42" type="line"/>
      <point x="438" y="-364" type="line"/>
    </contour>
    <contour>
      <point x="600" y="682" type="curve" smooth="yes"/>
      <point x="742" y="682"/>
      <point x="796" y="752"/>
      <point x="796" y="836" type="curve" smooth="yes" name="hr01"/>
      <point x="796" y="900" type="line" smooth="yes"/>
      <point x="796" y="986"/>
      <point x="742" y="1056"/>
      <point x="600" y="1056" type="curve" smooth="yes"/>
      <point x="458" y="1056"/>
      <point x="404" y="986"/>
      <point x="404" y="900" type="curve" smooth="yes"/>
      <point x="404" y="836" type="line" smooth="yes"/>
      <point x="404" y="752"/>
      <point x="458" y="682"/>
    </contour>
  </outline>
</glyph>
<glyph name="cent" format="2">
  <advance width="1200" height="1560"/>
  <unicode hex="00A2"/>
  <outline>
    <contour>
      <point x="744" y="-228" type="line" name="hr00"/>
      <point x="744" y="-16" type="line"/>
      <point x="914" y="10"/>
      <point x="1024" y="102"/>
      <point x="1086" y="228" type="curve"/>
      <point x="876" y="346" type="line"/>
      <point x="844" y="286"/>
      <point x="794" y="232"/>
      <point x="726" y="208" type="curve"/>
      <point x="726" y="822" type="line"/>
      <point x="788" y="796"/>
      <point x="830" y="744"/>
      <point x="856" y="688" type="curve"/>
      <point x="1070" y="804" type="line"/>
      <point x="1010" y="930"/>
      <point x="908" y="1022"/>
      <point x="744" y="1048" type="curve"/>
      <point x="744" y="1260" type="line"/>
      <point x="516" y="1260" type="line"/>
      <point x="516" y="1044" type="line"/>
      <point x="268" y="998"/>
      <point x="120" y="804"/>
      <point x="120" y="516" type="curve" smooth="yes"/>
      <point x="120" y="228"/>
      <point x="266" y="34"/>
      <point x="516" y="-12" type="curve"/>
      <point x="516" y="-228" type="line"/>
    </contour>
    <contour>
      <point x="404" y="432" type="curve" smooth="yes"/>
      <point x="404" y="600" type="line" smooth="yes"/>
      <point x="404" y="706"/>
      <point x="450" y="786"/>
      <point x="536" y="820" type="curve"/>
      <point x="536" y="212" type="line"/>
      <point x="448" y="248"/>
      <point x="404" y="328"/>
    </contour>
  </outline>
</glyph>
<glyph name="sterling" format="1">
  <unicode hex="00A3"/>
  <advance width="1200" height="1560"/>
  <outline>
    <contour>
      <point x="1106" y="0" type="line"/>
      <point x="1106" y="256" type="line"/>
      <point x="448" y="256" type="line"/>
      <point x="448" y="274" type="line"/>
      <point x="520" y="312"/>
      <point x="604" y="388"/>
      <point x="604" y="524" type="curve" smooth="yes"/>
      <point x="604" y="527"/>
      <point x="604" y="536"/>
      <point x="604" y="538" type="curve"/>
      <point x="884" y="538" type="line"/>
      <point x="884" y="758" type="line"/>
      <point x="534" y="758" type="line"/>
      <point x="506" y="822"/>
      <point x="478" y="886"/>
      <point x="478" y="960" type="curve" smooth="yes" name="hr01"/>
      <point x="478" y="1088"/>
      <point x="556" y="1162"/>
      <point x="680" y="1162" type="curve" smooth="yes"/>
      <point x="790" y="1162"/>
      <point x="858" y="1104"/>
      <point x="920" y="1024" type="curve"/>
      <point x="1118" y="1210" type="line"/>
      <point x="1016" y="1344"/>
      <point x="872" y="1420"/>
      <point x="670" y="1420" type="curve" smooth="yes"/>
      <point x="372" y="1420"/>
      <point x="172" y="1254"/>
      <point x="172" y="1008" type="curve" smooth="yes"/>
      <point x="172" y="912"/>
      <point x="202" y="832"/>
      <point x="234" y="758" type="curve"/>
      <point x="92" y="758" type="line"/>
      <point x="92" y="538" type="line"/>
      <point x="306" y="538" type="line"/>
      <point x="308" y="530"/>
      <point x="308" y="522"/>
      <point x="308" y="514" type="curve" smooth="yes" name="hr02"/>
      <point x="308" y="402"/>
      <point x="244" y="318"/>
      <point x="138" y="272" type="curve"/>
      <point x="138" y="0" type="line"/>
    </contour>
  </outline>
</glyph>
<glyph name="brokenbar" format="1">
  <unicode hex="00A6"/>
  <advance width="1200" height="1560"/>
  <outline>
    <contour>
      <point x="726" y="802" type="line" name="hr00"/>
      <point x="726" y="1520" type="line"/>
      <point x="474" y="1520" type="line"/>
      <point x="474" y="802" type="line"/>
    </contour>
    <contour>
      <point x="726" y="-276" type="line"/>
      <point x="726" y="442" type="line"/>
      <point x="474" y="442" type="line"/>
      <point x="474" y="-276" type="line"/>
    </contour>
  </outline>
</glyph>
<glyph name="section" format="2">
  <advance width="1200" height="1560"/>
  <unicode hex="00A7"/>
  <outline>
    <contour>
      <point x="1022" y="6" type="curve" smooth="yes"/>
      <point x="1022" y="118"/>
      <point x="974" y="216"/>
      <point x="864" y="286" type="curve"/>
      <point x="864" y="318" type="line"/>
      <point x="1014" y="380"/>
      <point x="1084" y="478"/>
      <point x="1084" y="592" type="curve" smooth="yes" name="hr01"/>
      <point x="1084" y="710"/>
      <point x="1006" y="830"/>
      <point x="776" y="892" type="curve" smooth="yes"/>
      <point x="620" y="934" type="line" smooth="yes"/>
      <point x="498" y="966"/>
      <point x="442" y="1002"/>
      <point x="442" y="1074" type="curve" smooth="yes"/>
      <point x="442" y="1156"/>
      <point x="518" y="1210"/>
      <point x="634" y="1210" type="curve" smooth="yes"/>
      <point x="734" y="1210"/>
      <point x="822" y="1170"/>
      <point x="892" y="1100" type="curve"/>
      <point x="1038" y="1276" type="line"/>
      <point x="922" y="1382"/>
      <point x="774" y="1420"/>
      <point x="636" y="1420" type="curve" smooth="yes"/>
      <point x="374" y="1420"/>
      <point x="192" y="1280"/>
      <point x="192" y="1062" type="curve" smooth="yes"/>
      <point x="192" y="950"/>
      <point x="240" y="852"/>
      <point x="350" y="782" type="curve"/>
      <point x="350" y="750" type="line"/>
      <point x="200" y="688"/>
      <point x="130" y="590"/>
      <point x="130" y="476" type="curve" smooth="yes" name="hr02"/>
      <point x="130" y="358"/>
      <point x="208" y="238"/>
      <point x="438" y="176" type="curve" smooth="yes"/>
      <point x="594" y="134" type="line" smooth="yes"/>
      <point x="716" y="102"/>
      <point x="772" y="66"/>
      <point x="772" y="-6" type="curve" smooth="yes"/>
      <point x="772" y="-88"/>
      <point x="696" y="-142"/>
      <point x="580" y="-142" type="curve" smooth="yes"/>
      <point x="480" y="-142"/>
      <point x="392" y="-102"/>
      <point x="322" y="-32" type="curve"/>
      <point x="176" y="-208" type="line"/>
      <point x="292" y="-314"/>
      <point x="440" y="-352"/>
      <point x="578" y="-352" type="curve" smooth="yes"/>
      <point x="840" y="-352"/>
      <point x="1022" y="-212"/>
    </contour>
    <contour>
      <point x="838" y="504" type="curve" smooth="yes" name="hr03"/>
      <point x="838" y="442"/>
      <point x="810" y="388"/>
      <point x="762" y="336" type="curve"/>
      <point x="742" y="344"/>
      <point x="720" y="352"/>
      <point x="696" y="358" type="curve" smooth="yes"/>
      <point x="542" y="400" type="line" smooth="yes"/>
      <point x="410" y="436"/>
      <point x="376" y="496"/>
      <point x="376" y="564" type="curve" smooth="yes"/>
      <point x="376" y="626"/>
      <point x="404" y="680"/>
      <point x="452" y="732" type="curve"/>
      <point x="472" y="724"/>
      <point x="494" y="716"/>
      <point x="518" y="710" type="curve" smooth="yes"/>
      <point x="672" y="668" type="line" smooth="yes"/>
      <point x="804" y="632"/>
      <point x="838" y="572"/>
    </contour>
  </outline>
</glyph>
<glyph name="dieresis" format="2">
  <advance width="1200" height="1560"/>
  <unicode hex="00A8"/>
  <anchor x="600" y="1032" name="_top"/>
  <outline>
    <contour>
      <point x="380" y="1182" type="curve" smooth="yes" name="hr00"/>
      <point x="500" y="1182"/>
      <point x="542" y="1238"/>
      <point x="542" y="1308" type="curve" smooth="yes"/>
      <point x="542" y="1360" type="line" smooth="yes"/>
      <point x="542" y="1430"/>
      <point x="500" y="1484"/>
      <point x="380" y="1484" type="curve" smooth="yes"/>
      <point x="262" y="1484"/>
      <point x="220" y="1430"/>
      <point x="220" y="1360" type="curve" smooth="yes"/>
      <point x="220" y="1308" type="line" smooth="yes"/>
      <point x="220" y="1238"/>
      <point x="262" y="1182"/>
    </contour>
    <contour>
      <point x="820" y="1182" type="curve" smooth="yes"/>
      <point x="938" y="1182"/>
      <point x="980" y="1238"/>
      <point x="980" y="1308" type="curve" smooth="yes"/>
      <point x="980" y="1360" type="line" smooth="yes"/>
      <point x="980" y="1430"/>
      <point x="938" y="1484"/>
      <point x="820" y="1484" type="curve" smooth="yes"/>
      <point x="700" y="1484"/>
      <point x="658" y="1430"/>
      <point x="658" y="1360" type="curve" smooth="yes"/>
      <point x="658" y="1308" type="line" smooth="yes"/>
      <point x="658" y="1238"/>
      <point x="700" y="1182"/>
    </contour>
  </outline>
</glyph>
<glyph name="copyright" format="2">
  <advance width="1200" height="1560"/>
  <unicode hex="00A9"/>
  <outline>
    <contour>
      <point x="600" y="36" type="curve" smooth="yes" name="hr00"/>
      <point x="934" y="36"/>
      <point x="1200" y="290"/>
      <point x="1200" y="698" type="curve" smooth="yes"/>
      <point x="1200" y="1106"/>
      <point x="934" y="1360"/>
      <point x="600" y="1360" type="curve" smooth="yes"/>
      <point x="266" y="1360"/>
      <point x="0" y="1106"/>
      <point x="0" y="698" type="curve" smooth="yes"/>
      <point x="0" y="290"/>
      <point x="266" y="36"/>
    </contour>
    <contour>
      <point x="600" y="146" type="curve" smooth="yes"/>
      <point x="326" y="146"/>
      <point x="126" y="364"/>
      <point x="126" y="638" type="curve" smooth="yes"/>
      <point x="126" y="758" type="line" smooth="yes"/>
      <point x="126" y="1032"/>
      <point x="326" y="1250"/>
      <point x="600" y="1250" type="curve" smooth="yes"/>
      <point x="874" y="1250"/>
      <point x="1074" y="1032"/>
      <point x="1074" y="758" type="curve" smooth="yes"/>
      <point x="1074" y="638" type="line" smooth="yes"/>
      <point x="1074" y="364"/>
      <point x="874" y="146"/>
    </contour>
    <contour>
      <point x="618" y="306" type="curve" smooth="yes"/>
      <point x="798" y="306"/>
      <point x="892" y="402"/>
      <point x="938" y="510" type="curve"/>
      <point x="768" y="596" type="line"/>
      <point x="740" y="538"/>
      <point x="698" y="492"/>
      <point x="624" y="492" type="curve" smooth="yes"/>
      <point x="542" y="492"/>
      <point x="494" y="548"/>
      <point x="494" y="626" type="curve" smooth="yes"/>
      <point x="494" y="772" type="line" smooth="yes"/>
      <point x="494" y="848"/>
      <point x="542" y="904"/>
      <point x="622" y="904" type="curve" smooth="yes"/>
      <point x="690" y="904"/>
      <point x="730" y="862"/>
      <point x="756" y="800" type="curve"/>
      <point x="926" y="886" type="line"/>
      <point x="878" y="1006"/>
      <point x="782" y="1090"/>
      <point x="618" y="1090" type="curve" smooth="yes"/>
      <point x="402" y="1090"/>
      <point x="250" y="936"/>
      <point x="250" y="696" type="curve" smooth="yes"/>
      <point x="250" y="462"/>
      <point x="396" y="306"/>
    </contour>
  </outline>
</glyph>
<glyph name="logicalnot" format="2">
  <advance width="1200" height="1560"/>
  <unicode hex="00AC"/>
  <outline>
    <contour>
      <point x="1044" y="108" type="line" name="hr00"/>
      <point x="1044" y="728" type="line"/>
      <point x="124" y="728" type="line"/>
      <point x="124" y="492" type="line"/>
      <point x="802" y="492" type="line"/>
      <point x="802" y="108" type="line"/>
    </contour>
  </outline>
</glyph>
<glyph name="registered" format="2">
  <advance width="1200" height="1560"/>
  <unicode hex="00AE"/>
  <outline>
    <contour>
      <point x="600" y="692" type="curve" smooth="yes" name="hr00"/>
      <point x="804" y="692"/>
      <point x="966" y="848"/>
      <point x="966" y="1056" type="curve" smooth="yes"/>
      <point x="966" y="1264"/>
      <point x="804" y="1420"/>
      <point x="600" y="1420" type="curve" smooth="yes"/>
      <point x="396" y="1420"/>
      <point x="234" y="1264"/>
      <point x="234" y="1056" type="curve" smooth="yes"/>
      <point x="234" y="848"/>
      <point x="396" y="692"/>
    </contour>
    <contour>
      <point x="600" y="774" type="curve" smooth="yes"/>
      <point x="446" y="774"/>
      <point x="330" y="878"/>
      <point x="330" y="1036" type="curve" smooth="yes"/>
      <point x="330" y="1076" type="line" smooth="yes"/>
      <point x="330" y="1234"/>
      <point x="446" y="1338"/>
      <point x="600" y="1338" type="curve" smooth="yes"/>
      <point x="754" y="1338"/>
      <point x="870" y="1234"/>
      <point x="870" y="1076" type="curve" smooth="yes"/>
      <point x="870" y="1036" type="line" smooth="yes"/>
      <point x="870" y="878"/>
      <point x="754" y="774"/>
    </contour>
    <contour>
      <point x="556" y="980" type="line"/>
      <point x="600" y="980" type="line"/>
      <point x="660" y="872" type="line"/>
      <point x="782" y="872" type="line"/>
      <point x="704" y="1002" type="line"/>
      <point x="746" y="1022"/>
      <point x="772" y="1060"/>
      <point x="772" y="1116" type="curve" smooth="yes"/>
      <point x="772" y="1188"/>
      <point x="728" y="1242"/>
      <point x="628" y="1242" type="curve" smooth="yes"/>
      <point x="444" y="1242" type="line"/>
      <point x="444" y="872" type="line"/>
      <point x="556" y="872" type="line"/>
    </contour>
    <contour>
      <point x="556" y="1062" type="line"/>
      <point x="556" y="1156" type="line"/>
      <point x="604" y="1156" type="line" smooth="yes"/>
      <point x="636" y="1156"/>
      <point x="656" y="1140"/>
      <point x="656" y="1116" type="curve" smooth="yes"/>
      <point x="656" y="1102" type="line" smooth="yes"/>
      <point x="656" y="1076"/>
      <point x="636" y="1062"/>
      <point x="604" y="1062" type="curve" smooth="yes"/>
    </contour>
  </outline>
</glyph>
<glyph name="macron" format="1">
  <unicode hex="00AF"/>
  <advance width="1200" height="1560"/>
  <outline>
    <contour>
      <point x="294" y="1230" type="line" name="hr00"/>
      <point x="906" y="1230" type="line"/>
      <point x="906" y="1436" type="line"/>
      <point x="294" y="1436" type="line"/>
    </contour>
    <contour>
      <point x="600" y="1032" type="move" name="_top"/>
    </contour>
  </outline>
</glyph>
<glyph name="degree" format="1">
  <unicode hex="00B0"/>
  <advance width="1200" height="1560"/>
  <outline>
    <contour>
      <point x="600" y="668" type="curve" smooth="yes" name="hr00"/>
      <point x="812" y="668"/>
      <point x="976" y="830"/>
      <point x="976" y="1044" type="curve" smooth="yes"/>
      <point x="976" y="1258"/>
      <point x="812" y="1420"/>
      <point x="600" y="1420" type="curve" smooth="yes"/>
      <point x="388" y="1420"/>
      <point x="224" y="1258"/>
      <point x="224" y="1044" type="curve" smooth="yes"/>
      <point x="224" y="830"/>
      <point x="388" y="668"/>
    </contour>
    <contour>
      <point x="600" y="858" type="curve" smooth="yes"/>
      <point x="496" y="858"/>
      <point x="428" y="940"/>
      <point x="428" y="1044" type="curve" smooth="yes"/>
      <point x="428" y="1148"/>
      <point x="496" y="1230"/>
      <point x="600" y="1230" type="curve" smooth="yes"/>
      <point x="704" y="1230"/>
      <point x="772" y="1148"/>
      <point x="772" y="1044" type="curve" smooth="yes"/>
      <point x="772" y="940"/>
      <point x="704" y="858"/>
    </contour>
  </outline>
</glyph>
<glyph name="plusminus" format="2">
  <advance width="1200" height="1560"/>
  <unicode hex="00B1"/>
  <outline>
    <contour>
      <point x="728" y="368" type="line" name="hr00"/>
      <point x="728" y="700" type="line"/>
      <point x="1076" y="700" type="line"/>
      <point x="1076" y="936" type="line"/>
      <point x="728" y="936" type="line"/>
      <point x="728" y="1268" type="line"/>
      <point x="472" y="1268" type="line"/>
      <point x="472" y="936" type="line"/>
      <point x="124" y="936" type="line"/>
      <point x="124" y="700" type="line"/>
      <point x="472" y="700" type="line"/>
      <point x="472" y="368" type="line"/>
    </contour>
    <contour>
      <point x="1076" y="0" type="line"/>
      <point x="1076" y="238" type="line"/>
      <point x="124" y="238" type="line"/>
      <point x="124" y="0" type="line"/>
    </contour>
  </outline>
</glyph>
<glyph name="twosuperior" format="1">
  <unicode hex="00B2"/>
  <advance width="1200" height="1560"/>
  <outline>
    <contour>
      <point x="900" y="824" type="line" name="hr00"/>
      <point x="546" y="824" type="line"/>
      <point x="664" y="890" type="line" smooth="yes"/>
      <point x="782" y="956"/>
      <point x="892" y="1044"/>
      <point x="892" y="1180" type="curve" smooth="yes"/>
      <point x="892" y="1312"/>
      <point x="788" y="1408"/>
      <point x="608" y="1408" type="curve" smooth="yes"/>
      <point x="440" y="1408"/>
      <point x="338" y="1324"/>
      <point x="300" y="1212" type="curve"/>
      <point x="478" y="1146" type="line"/>
      <point x="492" y="1194"/>
      <point x="522" y="1236"/>
      <point x="588" y="1236" type="curve" smooth="yes"/>
      <point x="626" y="1236"/>
      <point x="674" y="1222"/>
      <point x="674" y="1168" type="curve"/>
      <point x="674" y="1166" type="line"/>
      <point x="674" y="1106"/>
      <point x="640" y="1076"/>
      <point x="540" y="1000" type="curve" smooth="yes"/>
      <point x="322" y="834" type="line"/>
      <point x="322" y="658" type="line"/>
      <point x="900" y="658" type="line"/>
    </contour>
  </outline>
</glyph>
<glyph name="threesuperior" format="2">
  <advance width="1200" height="1560"/>
  <unicode hex="00B3"/>
  <outline>
    <contour>
      <point x="502" y="1116" type="line"/>
      <point x="502" y="952" type="line"/>
      <point x="564" y="952" type="line" smooth="yes"/>
      <point x="636" y="952"/>
      <point x="686" y="932"/>
      <point x="686" y="880" type="curve"/>
      <point x="686" y="876" type="line"/>
      <point x="686" y="832"/>
      <point x="648" y="804"/>
      <point x="586" y="804" type="curve" smooth="yes"/>
      <point x="506" y="804"/>
      <point x="458" y="850"/>
      <point x="428" y="912" type="curve"/>
      <point x="276" y="796" type="line"/>
      <point x="328" y="714"/>
      <point x="414" y="646"/>
      <point x="586" y="646" type="curve" smooth="yes"/>
      <point x="772" y="646"/>
      <point x="900" y="730"/>
      <point x="900" y="866" type="curve" smooth="yes"/>
      <point x="900" y="960"/>
      <point x="836" y="1020"/>
      <point x="736" y="1036" type="curve"/>
      <point x="736" y="1044" type="line"/>
      <point x="818" y="1054"/>
      <point x="888" y="1114"/>
      <point x="888" y="1206" type="curve" smooth="yes" name="hr01"/>
      <point x="888" y="1326"/>
      <point x="776" y="1408"/>
      <point x="588" y="1408" type="curve" smooth="yes"/>
      <point x="448" y="1408"/>
      <point x="368" y="1364"/>
      <point x="298" y="1282" type="curve"/>
      <point x="422" y="1164" type="line"/>
      <point x="464" y="1220"/>
      <point x="526" y="1250"/>
      <point x="582" y="1250" type="curve" smooth="yes"/>
      <point x="640" y="1250"/>
      <point x="672" y="1220"/>
      <point x="672" y="1186" type="curve" smooth="yes"/>
      <point x="672" y="1178" type="line" smooth="yes"/>
      <point x="672" y="1144"/>
      <point x="642" y="1116"/>
      <point x="570" y="1116" type="curve" smooth="yes"/>
    </contour>
  </outline>
</glyph>
<glyph name="acute" format="2">
  <advance width="1200" height="1560"/>
  <unicode hex="00B4"/>
  <anchor x="600" y="1032" name="_top"/>
  <outline>
    <contour>
      <point x="900" y="1492" type="line" name="hr00"/>
      <point x="654" y="1614" type="line"/>
      <point x="456" y="1226" type="line"/>
      <point x="632" y="1140" type="line"/>
    </contour>
  </outline>
</glyph>
<glyph name="mu" format="2">
  <advance width="1200" height="1560"/>
  <unicode hex="00B5"/>
  <outline>
    <contour>
      <point x="426" y="-400" type="line"/>
      <point x="426" y="-206" type="line"/>
      <point x="368" y="60" type="line"/>
      <point x="380" y="60" type="line"/>
      <point x="424" y="-6"/>
      <point x="474" y="-24"/>
      <point x="526" y="-24" type="curve" smooth="yes"/>
      <point x="654" y="-24"/>
      <point x="730" y="80"/>
      <point x="762" y="188" type="curve"/>
      <point x="774" y="188" type="line"/>
      <point x="774" y="0" type="line" name="hr01"/>
      <point x="1070" y="0" type="line"/>
      <point x="1070" y="1032" type="line"/>
      <point x="774" y="1032" type="line"/>
      <point x="774" y="354" type="line" smooth="yes"/>
      <point x="774" y="254"/>
      <point x="686" y="204"/>
      <point x="596" y="204" type="curve" smooth="yes" name="hr02"/>
      <point x="482" y="204"/>
      <point x="426" y="280"/>
      <point x="426" y="424" type="curve" smooth="yes"/>
      <point x="426" y="1032" type="line"/>
      <point x="130" y="1032" type="line"/>
      <point x="130" y="-400" type="line"/>
    </contour>
  </outline>
</glyph>
<glyph name="paragraph" format="1">
  <unicode hex="00B6"/>
  <advance width="1200" height="1560"/>
  <outline>
    <contour>
      <point x="490" y="-298" type="line" name="hr00"/>
      <point x="728" y="-298" type="line"/>
      <point x="728" y="1164" type="line"/>
      <point x="866" y="1164" type="line"/>
      <point x="866" y="-298" type="line"/>
      <point x="1104" y="-298" type="line"/>
      <point x="1104" y="1396" type="line"/>
      <point x="490" y="1396" type="line" smooth="yes"/>
      <point x="242" y="1396"/>
      <point x="40" y="1206"/>
      <point x="40" y="944" type="curve" smooth="yes"/>
      <point x="40" y="682"/>
      <point x="242" y="492"/>
      <point x="490" y="492" type="curve"/>
    </contour>
  </outline>
</glyph>
<glyph name="periodcentered" format="1">
  <unicode hex="00B7"/>
  <advance width="1200" height="1560"/>
  <outline>
    <contour>
      <point x="600" y="408" type="curve" smooth="yes" name="hr00"/>
      <point x="750" y="408"/>
      <point x="810" y="484"/>
      <point x="810" y="574" type="curve" smooth="yes"/>
      <point x="810" y="644" type="line" smooth="yes"/>
      <point x="810" y="734"/>
      <point x="750" y="810"/>
      <point x="600" y="810" type="curve" smooth="yes"/>
      <point x="450" y="810"/>
      <point x="390" y="734"/>
      <point x="390" y="644" type="curve" smooth="yes"/>
      <point x="390" y="574" type="line" smooth="yes"/>
      <point x="390" y="484"/>
      <point x="450" y="408"/>
    </contour>
  </outline>
</glyph>
<glyph name="onesuperior" format="2">
  <advance width="1200" height="1560"/>
  <unicode hex="00B9"/>
  <outline>
    <contour>
      <point x="926" y="658" type="line" name="hr00"/>
      <point x="926" y="816" type="line"/>
      <point x="764" y="816" type="line"/>
      <point x="764" y="1396" type="line"/>
      <point x="552" y="1396" type="line"/>
      <point x="328" y="1284" type="line"/>
      <point x="404" y="1140" type="line"/>
      <point x="562" y="1212" type="line"/>
      <point x="562" y="816" type="line"/>
      <point x="376" y="816" type="line"/>
      <point x="376" y="658" type="line"/>
    </contour>
  </outline>
</glyph>
<glyph name="ordmasculine" format="1">
  <unicode hex="00BA"/>
  <advance width="1200" height="1560"/>
  <outline>
    <contour>
      <point x="600" y="664" type="curve" smooth="yes" name="hr00"/>
      <point x="826" y="664"/>
      <point x="962" y="808"/>
      <point x="962" y="1042" type="curve" smooth="yes"/>
      <point x="962" y="1276"/>
      <point x="826" y="1420"/>
      <point x="600" y="1420" type="curve" smooth="yes"/>
      <point x="374" y="1420"/>
      <point x="238" y="1276"/>
      <point x="238" y="1042" type="curve" smooth="yes"/>
      <point x="238" y="808"/>
      <point x="374" y="664"/>
    </contour>
    <contour>
      <point x="600" y="818" type="curve" smooth="yes"/>
      <point x="508" y="818"/>
      <point x="452" y="878"/>
      <point x="452" y="984" type="curve" smooth="yes"/>
      <point x="452" y="1100" type="line" smooth="yes"/>
      <point x="452" y="1206"/>
      <point x="508" y="1266"/>
      <point x="600" y="1266" type="curve" smooth="yes"/>
      <point x="692" y="1266"/>
      <point x="748" y="1206"/>
      <point x="748" y="1100" type="curve" smooth="yes"/>
      <point x="748" y="984" type="line" smooth="yes"/>
      <point x="748" y="878"/>
      <point x="692" y="818"/>
    </contour>
  </outline>
</glyph>
<glyph name="questiondown" format="1">
  <unicode hex="00BF"/>
  <advance width="1200" height="1560"/>
  <outline>
    <contour>
      <point x="618" y="-388" type="curve" smooth="yes"/>
      <point x="894" y="-388"/>
      <point x="1032" y="-228"/>
      <point x="1078" y="-68" type="curve"/>
      <point x="834" y="34" type="line"/>
      <point x="808" y="-66"/>
      <point x="736" y="-136"/>
      <point x="628" y="-136" type="curve" smooth="yes"/>
      <point x="532" y="-136"/>
      <point x="458" y="-90"/>
      <point x="458" y="20" type="curve" smooth="yes"/>
      <point x="458" y="48" type="line" smooth="yes"/>
      <point x="458" y="200"/>
      <point x="584" y="252"/>
      <point x="784" y="260" type="curve"/>
      <point x="784" y="566" type="line"/>
      <point x="504" y="566" type="line"/>
      <point x="504" y="422" type="line"/>
      <point x="312" y="390"/>
      <point x="146" y="248"/>
      <point x="146" y="22" type="curve" smooth="yes"/>
      <point x="146" y="-220"/>
      <point x="334" y="-388"/>
    </contour>
    <contour>
      <point x="640" y="682" type="curve" smooth="yes"/>
      <point x="780" y="682"/>
      <point x="836" y="752"/>
      <point x="836" y="836" type="curve" smooth="yes" name="hr01"/>
      <point x="836" y="900" type="line" smooth="yes"/>
      <point x="836" y="986"/>
      <point x="780" y="1056"/>
      <point x="640" y="1056" type="curve" smooth="yes"/>
      <point x="498" y="1056"/>
      <point x="442" y="986"/>
      <point x="442" y="900" type="curve" smooth="yes"/>
      <point x="442" y="836" type="line" smooth="yes"/>
      <point x="442" y="752"/>
      <point x="498" y="682"/>
    </contour>
  </outline>
</glyph>
<glyph name="Ccedilla" format="2">
  <advance width="1200" height="1560"/>
  <unicode hex="00C7"/>
  <outline>
    <contour>
      <point x="626" y="1178" type="curve" smooth="yes" name="hr00"/>
      <point x="766" y="1178"/>
      <point x="816" y="1082"/>
      <point x="846" y="950" type="curve"/>
      <point x="1126" y="1018" type="line"/>
      <point x="1070" y="1262"/>
      <point x="920" y="1420"/>
      <point x="632" y="1420" type="curve" smooth="yes"/>
      <point x="258" y="1420"/>
      <point x="82" y="1156"/>
      <point x="82" y="698" type="curve" smooth="yes"/>
      <point x="82" y="282"/>
      <point x="226" y="26"/>
      <point x="534" y="-16" type="curve"/>
      <point x="506" y="-148" type="line"/>
      <point x="548" y="-152" type="line" smooth="yes"/>
      <point x="672" y="-164"/>
      <point x="698" y="-202"/>
      <point x="698" y="-232" type="curve" smooth="yes"/>
      <point x="698" y="-266"/>
      <point x="660" y="-282"/>
      <point x="610" y="-282" type="curve" smooth="yes"/>
      <point x="548" y="-282"/>
      <point x="504" y="-256"/>
      <point x="478" y="-224" type="curve"/>
      <point x="386" y="-336" type="line"/>
      <point x="420" y="-376"/>
      <point x="496" y="-424"/>
      <point x="634" y="-424" type="curve" smooth="yes"/>
      <point x="770" y="-424"/>
      <point x="898" y="-378"/>
      <point x="898" y="-242" type="curve" smooth="yes"/>
      <point x="898" y="-144"/>
      <point x="832" y="-104"/>
      <point x="752" y="-104" type="curve" smooth="yes"/>
      <point x="720" y="-104"/>
      <point x="688" y="-110"/>
      <point x="656" y="-118" type="curve"/>
      <point x="648" y="-110" type="line"/>
      <point x="666" y="-22" type="line"/>
      <point x="932" y="-10"/>
      <point x="1072" y="144"/>
      <point x="1126" y="378" type="curve"/>
      <point x="846" y="446" type="line"/>
      <point x="816" y="314"/>
      <point x="766" y="218"/>
      <point x="626" y="218" type="curve" smooth="yes"/>
      <point x="464" y="218"/>
      <point x="402" y="354"/>
      <point x="402" y="576" type="curve" smooth="yes"/>
      <point x="402" y="820" type="line" smooth="yes"/>
      <point x="402" y="1042"/>
      <point x="464" y="1178"/>
    </contour>
  </outline>
</glyph>
<glyph name="multiply" format="2">
  <advance width="1200" height="1560"/>
  <unicode hex="00D7"/>
  <outline>
    <contour>
      <point x="890" y="150" type="line" name="hr00"/>
      <point x="1060" y="320" type="line"/>
      <point x="770" y="610" type="line"/>
      <point x="1060" y="900" type="line"/>
      <point x="890" y="1070" type="line"/>
      <point x="600" y="780" type="line"/>
      <point x="310" y="1070" type="line"/>
      <point x="140" y="900" type="line"/>
      <point x="430" y="610" type="line"/>
      <point x="140" y="320" type="line"/>
      <point x="310" y="150" type="line"/>
      <point x="600" y="440" type="line"/>
    </contour>
  </outline>
</glyph>
<glyph name="Oslash" format="2">
  <advance width="1200" height="1560"/>
  <unicode hex="00D8"/>
  <anchor x="600" y="1396" name="top"/>
  <anchor x="300" y="698" name="m.tildecomb"/>
  <anchor x="300" y="698" name="t.tildecomb"/>
  <outline>
    <contour>
      <point x="600" y="-24" type="curve" smooth="yes" name="hr00"/>
      <point x="974" y="-24"/>
      <point x="1146" y="242"/>
      <point x="1146" y="698" type="curve" smooth="yes"/>
      <point x="1146" y="912"/>
      <point x="1108" y="1084"/>
      <point x="1030" y="1206" type="curve"/>
      <point x="1162" y="1420" type="line"/>
      <point x="974" y="1528" type="line"/>
      <point x="868" y="1358" type="line"/>
      <point x="794" y="1400"/>
      <point x="706" y="1420"/>
      <point x="600" y="1420" type="curve" smooth="yes"/>
      <point x="226" y="1420"/>
      <point x="54" y="1154"/>
      <point x="54" y="698" type="curve" smooth="yes"/>
      <point x="54" y="484"/>
      <point x="92" y="312"/>
      <point x="170" y="190" type="curve"/>
      <point x="38" y="-24" type="line"/>
      <point x="226" y="-132" type="line"/>
      <point x="332" y="38" type="line"/>
      <point x="406" y="-4"/>
      <point x="494" y="-24"/>
    </contour>
    <contour>
      <point x="374" y="576" type="curve" smooth="yes"/>
      <point x="374" y="820" type="line" smooth="yes"/>
      <point x="374" y="1044"/>
      <point x="430" y="1178"/>
      <point x="600" y="1178" type="curve" smooth="yes"/>
      <point x="660" y="1178"/>
      <point x="708" y="1162"/>
      <point x="742" y="1130" type="curve"/>
      <point x="378" y="498" type="line"/>
      <point x="374" y="524"/>
      <point x="374" y="548"/>
    </contour>
    <contour>
      <point x="600" y="218" type="curve" smooth="yes"/>
      <point x="540" y="218"/>
      <point x="492" y="234"/>
      <point x="458" y="266" type="curve"/>
      <point x="822" y="898" type="line"/>
      <point x="826" y="870"/>
      <point x="826" y="848"/>
      <point x="826" y="820" type="curve" smooth="yes"/>
      <point x="826" y="576" type="line" smooth="yes"/>
      <point x="826" y="352"/>
      <point x="770" y="218"/>
    </contour>
  </outline>
</glyph>
<glyph name="Thorn" format="2">
  <advance width="1200" height="1560"/>
  <unicode hex="00DE"/>
  <outline>
    <contour>
      <point x="454" y="0" type="line" name="hr00"/>
      <point x="454" y="266" type="line"/>
      <point x="682" y="266" type="line" smooth="yes"/>
      <point x="958" y="266"/>
      <point x="1110" y="442"/>
      <point x="1110" y="710" type="curve" smooth="yes"/>
      <point x="1110" y="978"/>
      <point x="958" y="1154"/>
      <point x="682" y="1154" type="curve" smooth="yes"/>
      <point x="454" y="1154" type="line"/>
      <point x="454" y="1396" type="line"/>
      <point x="152" y="1396" type="line"/>
      <point x="152" y="0" type="line"/>
    </contour>
    <contour>
      <point x="454" y="912" type="line"/>
      <point x="608" y="912" type="line" smooth="yes"/>
      <point x="748" y="912"/>
      <point x="796" y="862"/>
      <point x="796" y="740" type="curve" smooth="yes"/>
      <point x="796" y="680" type="line"/>
      <point x="796" y="558"/>
      <point x="748" y="508"/>
      <point x="608" y="508" type="curve" smooth="yes"/>
      <point x="454" y="508" type="line"/>
    </contour>
  </outline>
</glyph>
<glyph name="germandbls" format="2">
  <advance width="1200" height="1560"/>
  <unicode hex="00DF"/>
  <outline>
    <contour>
      <point x="408" y="0" type="line" name="hr00"/>
      <point x="408" y="810" type="line"/>
      <point x="792" y="810" type="line"/>
      <point x="546" y="460" type="line"/>
      <point x="546" y="238" type="line"/>
      <point x="594" y="238" type="line" smooth="yes"/>
      <point x="770" y="238"/>
      <point x="850" y="182"/>
      <point x="850" y="52" type="curve" smooth="yes"/>
      <point x="850" y="6" type="line" smooth="yes"/>
      <point x="850" y="-120"/>
      <point x="774" y="-178"/>
      <point x="606" y="-178" type="curve" smooth="yes"/>
      <point x="492" y="-178" type="line"/>
      <point x="492" y="-400" type="line"/>
      <point x="624" y="-400" type="line" smooth="yes"/>
      <point x="944" y="-400"/>
      <point x="1148" y="-252"/>
      <point x="1148" y="32" type="curve" smooth="yes"/>
      <point x="1148" y="258"/>
      <point x="1018" y="386"/>
      <point x="802" y="426" type="curve"/>
      <point x="1080" y="820" type="line"/>
      <point x="1080" y="1032" type="line"/>
      <point x="408" y="1032" type="line"/>
      <point x="408" y="1258" type="line"/>
      <point x="752" y="1258" type="line"/>
      <point x="752" y="1480" type="line"/>
      <point x="436" y="1480" type="line" smooth="yes"/>
      <point x="220" y="1480"/>
      <point x="120" y="1356"/>
      <point x="120" y="1182" type="curve" smooth="yes"/>
      <point x="120" y="0" type="line"/>
    </contour>
  </outline>
</glyph>
<glyph name="ae" format="2">
  <advance width="1200" height="1560"/>
  <unicode hex="00E6"/>
  <anchor x="596" y="1032" name="top"/>
  <anchor x="300" y="516" name="m.tildecomb"/>
  <anchor x="300" y="516" name="t.tildecomb"/>
  <outline>
    <contour>
      <point x="274" y="-24" type="curve" smooth="yes" name="hr00"/>
      <point x="400" y="-24"/>
      <point x="492" y="48"/>
      <point x="516" y="210" type="curve"/>
      <point x="524" y="210" type="line"/>
      <point x="572" y="46"/>
      <point x="698" y="-24"/>
      <point x="836" y="-24" type="curve" smooth="yes"/>
      <point x="1022" y="-24"/>
      <point x="1116" y="102"/>
      <point x="1156" y="258" type="curve"/>
      <point x="962" y="312" type="line"/>
      <point x="942" y="234"/>
      <point x="908" y="168"/>
      <point x="834" y="168" type="curve" smooth="yes"/>
      <point x="740" y="168"/>
      <point x="690" y="272"/>
      <point x="690" y="426" type="curve" smooth="yes"/>
      <point x="690" y="456" type="line"/>
      <point x="1168" y="456" type="line"/>
      <point x="1168" y="594" type="line" smooth="yes"/>
      <point x="1168" y="876"/>
      <point x="1036" y="1056"/>
      <point x="834" y="1056" type="curve" smooth="yes"/>
      <point x="730" y="1056"/>
      <point x="650" y="1008"/>
      <point x="594" y="910" type="curve"/>
      <point x="586" y="910" type="line"/>
      <point x="540" y="1004"/>
      <point x="458" y="1056"/>
      <point x="336" y="1056" type="curve" smooth="yes"/>
      <point x="182" y="1056"/>
      <point x="70" y="974"/>
      <point x="26" y="802" type="curve"/>
      <point x="210" y="736" type="line"/>
      <point x="234" y="820"/>
      <point x="264" y="872"/>
      <point x="336" y="872" type="curve" smooth="yes"/>
      <point x="412" y="872"/>
      <point x="452" y="814"/>
      <point x="452" y="724" type="curve" smooth="yes"/>
      <point x="452" y="610" type="line"/>
      <point x="372" y="610" type="line" smooth="yes"/>
      <point x="138" y="610"/>
      <point x="8" y="496"/>
      <point x="8" y="282" type="curve" smooth="yes"/>
      <point x="8" y="78"/>
      <point x="124" y="-24"/>
    </contour>
    <contour>
      <point x="338" y="156" type="curve" smooth="yes"/>
      <point x="272" y="156"/>
      <point x="240" y="202"/>
      <point x="240" y="276" type="curve" smooth="yes"/>
      <point x="240" y="314" type="line" smooth="yes"/>
      <point x="240" y="408"/>
      <point x="296" y="456"/>
      <point x="394" y="456" type="curve" smooth="yes"/>
      <point x="452" y="456" type="line"/>
      <point x="452" y="358" type="line" smooth="yes"/>
      <point x="452" y="228"/>
      <point x="422" y="156"/>
    </contour>
    <contour>
      <point x="820" y="876" type="curve" smooth="yes"/>
      <point x="908" y="876"/>
      <point x="950" y="798"/>
      <point x="950" y="698" type="curve" smooth="yes"/>
      <point x="950" y="610" type="line"/>
      <point x="690" y="610" type="line"/>
      <point x="690" y="698" type="line" smooth="yes"/>
      <point x="690" y="798"/>
      <point x="732" y="876"/>
    </contour>
  </outline>
</glyph>
<glyph name="ccedilla" format="2">
  <advance width="1200" height="1560"/>
  <unicode hex="00E7"/>
  <outline>
    <contour>
      <point x="640" y="1056" type="curve" smooth="yes" name="hr00"/>
      <point x="318" y="1056"/>
      <point x="120" y="850"/>
      <point x="120" y="516" type="curve" smooth="yes"/>
      <point x="120" y="222"/>
      <point x="272" y="28"/>
      <point x="530" y="-14" type="curve"/>
      <point x="502" y="-148" type="line"/>
      <point x="544" y="-152" type="line" smooth="yes"/>
      <point x="668" y="-164"/>
      <point x="694" y="-202"/>
      <point x="694" y="-232" type="curve" smooth="yes"/>
      <point x="694" y="-266"/>
      <point x="656" y="-282"/>
      <point x="606" y="-282" type="curve" smooth="yes"/>
      <point x="544" y="-282"/>
      <point x="500" y="-256"/>
      <point x="474" y="-224" type="curve"/>
      <point x="382" y="-336" type="line"/>
      <point x="416" y="-376"/>
      <point x="492" y="-424"/>
      <point x="630" y="-424" type="curve" smooth="yes"/>
      <point x="766" y="-424"/>
      <point x="894" y="-378"/>
      <point x="894" y="-242" type="curve" smooth="yes"/>
      <point x="894" y="-144"/>
      <point x="828" y="-104"/>
      <point x="748" y="-104" type="curve" smooth="yes"/>
      <point x="716" y="-104"/>
      <point x="684" y="-110"/>
      <point x="652" y="-118" type="curve"/>
      <point x="644" y="-110" type="line"/>
      <point x="662" y="-24" type="line"/>
      <point x="880" y="-18"/>
      <point x="1014" y="82"/>
      <point x="1086" y="228" type="curve"/>
      <point x="862" y="356" type="line"/>
      <point x="818" y="272"/>
      <point x="758" y="212"/>
      <point x="644" y="212" type="curve" smooth="yes"/>
      <point x="504" y="212"/>
      <point x="428" y="296"/>
      <point x="428" y="432" type="curve" smooth="yes"/>
      <point x="428" y="600" type="line" smooth="yes"/>
      <point x="428" y="736"/>
      <point x="506" y="820"/>
      <point x="640" y="820" type="curve" smooth="yes"/>
      <point x="750" y="820"/>
      <point x="806" y="760"/>
      <point x="842" y="680" type="curve"/>
      <point x="1070" y="804" type="line"/>
      <point x="998" y="954"/>
      <point x="866" y="1056"/>
    </contour>
  </outline>
</glyph>
<glyph name="eth" format="2">
  <advance width="1200" height="1560"/>
  <unicode hex="00F0"/>
  <outline>
    <contour>
      <point x="866" y="1506" type="line" name="hr00"/>
      <point x="696" y="1406" type="line"/>
      <point x="662" y="1432"/>
      <point x="628" y="1458"/>
      <point x="594" y="1480" type="curve"/>
      <point x="142" y="1480" type="line"/>
      <point x="260" y="1418"/>
      <point x="370" y="1348"/>
      <point x="466" y="1272" type="curve"/>
      <point x="302" y="1176" type="line"/>
      <point x="404" y="1056" type="line"/>
      <point x="588" y="1164" type="line"/>
      <point x="700" y="1056"/>
      <point x="780" y="938"/>
      <point x="816" y="816" type="curve"/>
      <point x="798" y="808" type="line"/>
      <point x="734" y="926"/>
      <point x="634" y="1000"/>
      <point x="484" y="1000" type="curve" smooth="yes"/>
      <point x="240" y="1000"/>
      <point x="80" y="804"/>
      <point x="80" y="506" type="curve" smooth="yes"/>
      <point x="80" y="178"/>
      <point x="276" y="-24"/>
      <point x="606" y="-24" type="curve" smooth="yes"/>
      <point x="914" y="-24"/>
      <point x="1122" y="150"/>
      <point x="1122" y="556" type="curve" smooth="yes"/>
      <point x="1122" y="880"/>
      <point x="990" y="1120"/>
      <point x="816" y="1298" type="curve"/>
      <point x="966" y="1386" type="line"/>
    </contour>
    <contour>
      <point x="604" y="196" type="curve" smooth="yes"/>
      <point x="472" y="196"/>
      <point x="386" y="282"/>
      <point x="386" y="434" type="curve" smooth="yes"/>
      <point x="386" y="542" type="line" smooth="yes"/>
      <point x="386" y="692"/>
      <point x="466" y="776"/>
      <point x="602" y="776" type="curve" smooth="yes"/>
      <point x="732" y="776"/>
      <point x="816" y="698"/>
      <point x="816" y="546" type="curve" smooth="yes"/>
      <point x="816" y="434" type="line" smooth="yes"/>
      <point x="816" y="282"/>
      <point x="736" y="196"/>
    </contour>
  </outline>
</glyph>
<glyph name="divide" format="2">
  <advance width="1200" height="1560"/>
  <unicode hex="00F7"/>
  <outline>
    <contour>
      <point x="1076" y="492" type="line" name="hr00"/>
      <point x="1076" y="728" type="line"/>
      <point x="124" y="728" type="line"/>
      <point x="124" y="492" type="line"/>
    </contour>
    <contour>
      <point x="600" y="58" type="curve" smooth="yes"/>
      <point x="726" y="58"/>
      <point x="776" y="118"/>
      <point x="776" y="196" type="curve" smooth="yes"/>
      <point x="776" y="244" type="line" smooth="yes"/>
      <point x="776" y="320"/>
      <point x="726" y="382"/>
      <point x="600" y="382" type="curve" smooth="yes"/>
      <point x="474" y="382"/>
      <point x="424" y="320"/>
      <point x="424" y="244" type="curve" smooth="yes"/>
      <point x="424" y="196" type="line" smooth="yes"/>
      <point x="424" y="118"/>
      <point x="474" y="58"/>
    </contour>
    <contour>
      <point x="600" y="838" type="curve" smooth="yes"/>
      <point x="726" y="838"/>
      <point x="776" y="900"/>
      <point x="776" y="976" type="curve" smooth="yes"/>
      <point x="776" y="1024" type="line" smooth="yes"/>
      <point x="776" y="1102"/>
      <point x="726" y="1162"/>
      <point x="600" y="1162" type="curve" smooth="yes"/>
      <point x="474" y="1162"/>
      <point x="424" y="1102"/>
      <point x="424" y="1024" type="curve" smooth="yes"/>
      <point x="424" y="976" type="line" smooth="yes"/>
      <point x="424" y="900"/>
      <point x="474" y="838"/>
    </contour>
  </outline>
</glyph>
<glyph name="oslash" format="2">
  <advance width="1200" height="1560"/>
  <unicode hex="00F8"/>
  <anchor x="600" y="1032" name="top"/>
  <anchor x="300" y="516" name="m.tildecomb"/>
  <anchor x="300" y="516" name="t.tildecomb"/>
  <outline>
    <contour>
      <point x="210" y="-118" type="line" name="hr00"/>
      <point x="338" y="36" type="line"/>
      <point x="410" y="-2"/>
      <point x="500" y="-24"/>
      <point x="600" y="-24" type="curve" smooth="yes"/>
      <point x="922" y="-24"/>
      <point x="1118" y="182"/>
      <point x="1118" y="516" type="curve" smooth="yes"/>
      <point x="1118" y="656"/>
      <point x="1084" y="774"/>
      <point x="1016" y="864" type="curve"/>
      <point x="1154" y="1030" type="line"/>
      <point x="990" y="1150" type="line"/>
      <point x="862" y="996" type="line"/>
      <point x="790" y="1034"/>
      <point x="700" y="1056"/>
      <point x="600" y="1056" type="curve" smooth="yes"/>
      <point x="278" y="1056"/>
      <point x="82" y="850"/>
      <point x="82" y="516" type="curve" smooth="yes"/>
      <point x="82" y="376"/>
      <point x="116" y="258"/>
      <point x="184" y="168" type="curve"/>
      <point x="46" y="2" type="line"/>
    </contour>
    <contour>
      <point x="600" y="836" type="curve" smooth="yes"/>
      <point x="648" y="836"/>
      <point x="690" y="824"/>
      <point x="722" y="802" type="curve"/>
      <point x="392" y="400" type="line"/>
      <point x="388" y="414"/>
      <point x="388" y="434"/>
      <point x="388" y="450" type="curve" smooth="yes"/>
      <point x="388" y="598" type="line" smooth="yes"/>
      <point x="388" y="750"/>
      <point x="468" y="836"/>
    </contour>
    <contour>
      <point x="600" y="196" type="curve" smooth="yes"/>
      <point x="552" y="196"/>
      <point x="510" y="208"/>
      <point x="478" y="230" type="curve"/>
      <point x="808" y="632" type="line"/>
      <point x="812" y="618"/>
      <point x="812" y="598"/>
      <point x="812" y="582" type="curve" smooth="yes"/>
      <point x="812" y="434" type="line" smooth="yes"/>
      <point x="812" y="282"/>
      <point x="732" y="196"/>
    </contour>
  </outline>
</glyph>
<glyph name="Aogonek" format="2">
  <advance width="1200" height="1560"/>
  <unicode hex="0104"/>
  <outline>
    <contour>
      <point x="10" y="0" type="line"/>
      <point x="314" y="0" type="line"/>
      <point x="400" y="336" type="line"/>
      <point x="782" y="336" type="line"/>
      <point x="870" y="0" type="line"/>
      <point x="996" y="0" type="line"/>
      <point x="1000" y="-8" type="line"/>
      <point x="852" y="-76"/>
      <point x="762" y="-142"/>
      <point x="762" y="-254" type="curve" smooth="yes" name="hr01"/>
      <point x="762" y="-382"/>
      <point x="878" y="-424"/>
      <point x="1010" y="-424" type="curve" smooth="yes"/>
      <point x="1136" y="-424"/>
      <point x="1220" y="-386"/>
      <point x="1254" y="-322" type="curve"/>
      <point x="1148" y="-220" type="line"/>
      <point x="1120" y="-252"/>
      <point x="1086" y="-276"/>
      <point x="1038" y="-276" type="curve" smooth="yes"/>
      <point x="998" y="-276"/>
      <point x="962" y="-260"/>
      <point x="962" y="-210" type="curve" smooth="yes"/>
      <point x="962" y="-162"/>
      <point x="994" y="-120"/>
      <point x="1190" y="0" type="curve" name="hr02"/>
      <point x="812" y="1396" type="line"/>
      <point x="388" y="1396" type="line"/>
    </contour>
    <contour>
      <point x="736" y="578" type="line"/>
      <point x="448" y="578" type="line"/>
      <point x="584" y="1106" type="line"/>
      <point x="600" y="1106" type="line"/>
    </contour>
  </outline>
</glyph>
<glyph name="aogonek" format="1">
  <unicode hex="0105"/>
  <advance width="1200" height="1560"/>
  <outline>
    <contour>
      <point x="1144" y="214" type="line"/>
      <point x="1030" y="214" type="line"/>
      <point x="1030" y="666" type="line" smooth="yes"/>
      <point x="1030" y="926"/>
      <point x="862" y="1056"/>
      <point x="580" y="1056" type="curve" smooth="yes"/>
      <point x="350" y="1056"/>
      <point x="200" y="970"/>
      <point x="132" y="854" type="curve"/>
      <point x="294" y="710" type="line"/>
      <point x="350" y="786"/>
      <point x="422" y="840"/>
      <point x="546" y="840" type="curve" smooth="yes"/>
      <point x="682" y="840"/>
      <point x="734" y="776"/>
      <point x="734" y="654" type="curve" smooth="yes"/>
      <point x="734" y="602" type="line"/>
      <point x="568" y="602" type="line" smooth="yes"/>
      <point x="266" y="602"/>
      <point x="104" y="500"/>
      <point x="104" y="284" type="curve" smooth="yes"/>
      <point x="104" y="90"/>
      <point x="236" y="-24"/>
      <point x="436" y="-24" type="curve" smooth="yes" name="hr01"/>
      <point x="594" y="-24"/>
      <point x="714" y="48"/>
      <point x="750" y="182" type="curve"/>
      <point x="760" y="182" type="line"/>
      <point x="770" y="72"/>
      <point x="840" y="8"/>
      <point x="950" y="0" type="curve" name="hr02"/>
      <point x="954" y="-8" type="line"/>
      <point x="806" y="-76"/>
      <point x="716" y="-142"/>
      <point x="716" y="-254" type="curve" smooth="yes"/>
      <point x="716" y="-382"/>
      <point x="832" y="-424"/>
      <point x="964" y="-424" type="curve" smooth="yes"/>
      <point x="1090" y="-424"/>
      <point x="1174" y="-386"/>
      <point x="1208" y="-322" type="curve"/>
      <point x="1102" y="-220" type="line"/>
      <point x="1074" y="-252"/>
      <point x="1040" y="-276"/>
      <point x="992" y="-276" type="curve" smooth="yes"/>
      <point x="952" y="-276"/>
      <point x="916" y="-260"/>
      <point x="916" y="-210" type="curve" smooth="yes"/>
      <point x="916" y="-162"/>
      <point x="948" y="-120"/>
      <point x="1144" y="0" type="curve"/>
    </contour>
    <contour>
      <point x="734" y="442" type="line" name="hr03"/>
      <point x="734" y="318" type="line" smooth="yes"/>
      <point x="734" y="222"/>
      <point x="652" y="170"/>
      <point x="546" y="170" type="curve" smooth="yes"/>
      <point x="454" y="170"/>
      <point x="394" y="208"/>
      <point x="394" y="280" type="curve" smooth="yes"/>
      <point x="394" y="320" type="line" smooth="yes"/>
      <point x="394" y="400"/>
      <point x="458" y="442"/>
      <point x="576" y="442" type="curve" smooth="yes"/>
    </contour>
  </outline>
</glyph>
<glyph name="dcaron" format="1">
  <unicode hex="010F"/>
  <advance width="1200" height="1560"/>
  <outline>
    <contour>
      <point x="370" y="-24" type="curve" smooth="yes"/>
      <point x="508" y="-24"/>
      <point x="572" y="62"/>
      <point x="612" y="186" type="curve"/>
      <point x="628" y="186" type="line"/>
      <point x="628" y="0" type="line" name="hr01"/>
      <point x="910" y="0" type="line"/>
      <point x="910" y="1480" type="line"/>
      <point x="628" y="1480" type="line"/>
      <point x="628" y="846" type="line"/>
      <point x="612" y="846" type="line"/>
      <point x="572" y="970"/>
      <point x="508" y="1056"/>
      <point x="370" y="1056" type="curve" smooth="yes"/>
      <point x="172" y="1056"/>
      <point x="54" y="886"/>
      <point x="54" y="516" type="curve" smooth="yes"/>
      <point x="54" y="146"/>
      <point x="172" y="-24"/>
    </contour>
    <contour>
      <point x="488" y="194" type="curve" smooth="yes"/>
      <point x="400" y="194"/>
      <point x="348" y="254"/>
      <point x="348" y="400" type="curve" smooth="yes"/>
      <point x="348" y="632" type="line" smooth="yes"/>
      <point x="348" y="778"/>
      <point x="400" y="838"/>
      <point x="488" y="838" type="curve" smooth="yes"/>
      <point x="570" y="838"/>
      <point x="628" y="784"/>
      <point x="628" y="672" type="curve" smooth="yes"/>
      <point x="628" y="360" type="line" smooth="yes"/>
      <point x="628" y="248"/>
      <point x="570" y="194"/>
    </contour>
    <contour>
      <point x="1012" y="1058" type="line"/>
      <point x="1166" y="1058" type="line"/>
      <point x="1274" y="1480" type="line"/>
      <point x="1016" y="1480" type="line"/>
    </contour>
  </outline>
</glyph>
<glyph name="Dcroat" format="2">
  <advance width="1200" height="1560"/>
  <unicode hex="0110"/>
  <outline>
    <contour>
      <point x="138" y="0" type="line" name="hr00"/>
      <point x="578" y="0" type="line" smooth="yes"/>
      <point x="952" y="0"/>
      <point x="1132" y="250"/>
      <point x="1132" y="698" type="curve" smooth="yes"/>
      <point x="1132" y="1146"/>
      <point x="952" y="1396"/>
      <point x="578" y="1396" type="curve" smooth="yes"/>
      <point x="138" y="1396" type="line"/>
      <point x="138" y="850" type="line"/>
      <point x="20" y="850" type="line"/>
      <point x="20" y="622" type="line"/>
      <point x="138" y="622" type="line"/>
    </contour>
    <contour>
      <point x="434" y="236" type="line"/>
      <point x="434" y="632" type="line"/>
      <point x="654" y="632" type="line"/>
      <point x="654" y="840" type="line"/>
      <point x="434" y="840" type="line"/>
      <point x="434" y="1160" type="line"/>
      <point x="558" y="1160" type="line" smooth="yes"/>
      <point x="736" y="1160"/>
      <point x="816" y="1042"/>
      <point x="816" y="826" type="curve" smooth="yes"/>
      <point x="816" y="572" type="line" smooth="yes"/>
      <point x="816" y="354"/>
      <point x="736" y="236"/>
      <point x="558" y="236" type="curve" smooth="yes"/>
    </contour>
  </outline>
</glyph>
<glyph name="Eogonek" format="1">
  <unicode hex="0118"/>
  <advance width="1200" height="1560"/>
  <outline>
    <contour>
      <point x="160" y="0" type="line" name="hr00"/>
      <point x="860" y="0" type="line"/>
      <point x="862" y="-8" type="line"/>
      <point x="714" y="-76"/>
      <point x="624" y="-142"/>
      <point x="624" y="-254" type="curve" smooth="yes"/>
      <point x="624" y="-382"/>
      <point x="740" y="-424"/>
      <point x="872" y="-424" type="curve" smooth="yes"/>
      <point x="998" y="-424"/>
      <point x="1082" y="-386"/>
      <point x="1116" y="-322" type="curve"/>
      <point x="1010" y="-220" type="line"/>
      <point x="982" y="-252"/>
      <point x="948" y="-276"/>
      <point x="900" y="-276" type="curve" smooth="yes"/>
      <point x="860" y="-276"/>
      <point x="824" y="-260"/>
      <point x="824" y="-210" type="curve" smooth="yes"/>
      <point x="824" y="-162"/>
      <point x="856" y="-120"/>
      <point x="1052" y="0" type="curve"/>
      <point x="1052" y="246" type="line"/>
      <point x="460" y="246" type="line"/>
      <point x="460" y="584" type="line"/>
      <point x="1032" y="584" type="line"/>
      <point x="1032" y="830" type="line"/>
      <point x="460" y="830" type="line"/>
      <point x="460" y="1150" type="line"/>
      <point x="1052" y="1150" type="line"/>
      <point x="1052" y="1396" type="line"/>
      <point x="160" y="1396" type="line"/>
    </contour>
  </outline>
</glyph>
<glyph name="Hbar" format="2">
  <advance width="1200" height="1560"/>
  <unicode hex="0126"/>
  <outline>
    <contour>
      <point x="776" y="0" type="line" name="hr00"/>
      <point x="1078" y="0" type="line"/>
      <point x="1078" y="1014" type="line"/>
      <point x="1188" y="1014" type="line"/>
      <point x="1188" y="1240" type="line"/>
      <point x="1078" y="1240" type="line"/>
      <point x="1078" y="1396" type="line"/>
      <point x="776" y="1396" type="line"/>
      <point x="776" y="1226" type="line"/>
      <point x="424" y="1226" type="line"/>
      <point x="424" y="1396" type="line"/>
      <point x="122" y="1396" type="line"/>
      <point x="122" y="1240" type="line"/>
      <point x="12" y="1240" type="line"/>
      <point x="12" y="1014" type="line"/>
      <point x="122" y="1014" type="line"/>
      <point x="122" y="0" type="line"/>
      <point x="424" y="0" type="line"/>
      <point x="424" y="584" type="line"/>
      <point x="776" y="584" type="line"/>
    </contour>
    <contour>
      <point x="424" y="830" type="line"/>
      <point x="424" y="1028" type="line"/>
      <point x="776" y="1028" type="line"/>
      <point x="776" y="830" type="line"/>
    </contour>
  </outline>
</glyph>
<glyph name="hbar" format="1">
  <unicode hex="0127"/>
  <advance width="1200" height="1560"/>
  <outline>
    <contour>
      <point x="426" y="0" type="line" name="hr00"/>
      <point x="426" y="678" type="line" smooth="yes"/>
      <point x="426" y="778"/>
      <point x="516" y="828"/>
      <point x="608" y="828" type="curve" smooth="yes"/>
      <point x="724" y="828"/>
      <point x="782" y="758"/>
      <point x="782" y="628" type="curve" smooth="yes"/>
      <point x="782" y="0" type="line"/>
      <point x="1078" y="0" type="line"/>
      <point x="1078" y="668" type="line" smooth="yes"/>
      <point x="1078" y="918"/>
      <point x="940" y="1056"/>
      <point x="742" y="1056" type="curve" smooth="yes"/>
      <point x="576" y="1056"/>
      <point x="484" y="960"/>
      <point x="438" y="844" type="curve"/>
      <point x="426" y="844" type="line"/>
      <point x="426" y="1160" type="line"/>
      <point x="706" y="1160" type="line"/>
      <point x="706" y="1380" type="line"/>
      <point x="426" y="1380" type="line"/>
      <point x="426" y="1480" type="line"/>
      <point x="130" y="1480" type="line"/>
      <point x="130" y="1380" type="line"/>
      <point x="18" y="1380" type="line"/>
      <point x="18" y="1160" type="line"/>
      <point x="130" y="1160" type="line"/>
      <point x="130" y="0" type="line"/>
    </contour>
  </outline>
</glyph>
<glyph name="Iogonek" format="1">
  <unicode hex="012E"/>
  <advance width="1200" height="1560"/>
  <outline>
    <contour>
      <point x="150" y="0" type="line"/>
      <point x="856" y="0" type="line"/>
      <point x="860" y="-8" type="line"/>
      <point x="712" y="-76"/>
      <point x="622" y="-142"/>
      <point x="622" y="-254" type="curve" smooth="yes"/>
      <point x="622" y="-382"/>
      <point x="738" y="-424"/>
      <point x="870" y="-424" type="curve" smooth="yes"/>
      <point x="996" y="-424"/>
      <point x="1080" y="-386"/>
      <point x="1114" y="-322" type="curve"/>
      <point x="1008" y="-220" type="line"/>
      <point x="980" y="-252"/>
      <point x="946" y="-276"/>
      <point x="898" y="-276" type="curve" smooth="yes"/>
      <point x="858" y="-276"/>
      <point x="822" y="-260"/>
      <point x="822" y="-210" type="curve" smooth="yes"/>
      <point x="822" y="-162"/>
      <point x="854" y="-120"/>
      <point x="1050" y="0" type="curve"/>
      <point x="1050" y="222" type="line"/>
      <point x="750" y="222" type="line" name="hr01"/>
      <point x="750" y="1174" type="line"/>
      <point x="1050" y="1174" type="line"/>
      <point x="1050" y="1396" type="line"/>
      <point x="150" y="1396" type="line"/>
      <point x="150" y="1174" type="line"/>
      <point x="450" y="1174" type="line"/>
      <point x="450" y="222" type="line"/>
      <point x="150" y="222" type="line"/>
    </contour>
  </outline>
</glyph>
<glyph name="iogonek" format="2">
  <advance width="1200" height="1560"/>
  <unicode hex="012F"/>
  <outline>
    <contour>
      <point x="936" y="-424" type="curve" smooth="yes"/>
      <point x="1062" y="-424"/>
      <point x="1146" y="-386"/>
      <point x="1180" y="-322" type="curve"/>
      <point x="1074" y="-220" type="line"/>
      <point x="1046" y="-252"/>
      <point x="1012" y="-276"/>
      <point x="964" y="-276" type="curve" smooth="yes"/>
      <point x="924" y="-276"/>
      <point x="888" y="-260"/>
      <point x="888" y="-210" type="curve" smooth="yes"/>
      <point x="888" y="-162"/>
      <point x="920" y="-120"/>
      <point x="1116" y="0" type="curve"/>
      <point x="1116" y="230" type="line"/>
      <point x="812" y="230" type="line" name="hr01"/>
      <point x="812" y="1032" type="line"/>
      <point x="188" y="1032" type="line"/>
      <point x="188" y="802" type="line"/>
      <point x="516" y="802" type="line"/>
      <point x="516" y="230" type="line"/>
      <point x="188" y="230" type="line"/>
      <point x="188" y="0" type="line"/>
      <point x="924" y="0" type="line"/>
      <point x="926" y="-8" type="line"/>
      <point x="778" y="-76"/>
      <point x="688" y="-142"/>
      <point x="688" y="-254" type="curve" smooth="yes" name="hr02"/>
      <point x="688" y="-382"/>
      <point x="804" y="-424"/>
    </contour>
    <contour>
      <point x="664" y="1164" type="curve" smooth="yes"/>
      <point x="796" y="1164"/>
      <point x="842" y="1226"/>
      <point x="842" y="1304" type="curve" smooth="yes" name="hr03"/>
      <point x="842" y="1362" type="line" smooth="yes"/>
      <point x="842" y="1442"/>
      <point x="796" y="1502"/>
      <point x="664" y="1502" type="curve" smooth="yes"/>
      <point x="532" y="1502"/>
      <point x="486" y="1442"/>
      <point x="486" y="1362" type="curve" smooth="yes"/>
      <point x="486" y="1304" type="line" smooth="yes"/>
      <point x="486" y="1226"/>
      <point x="532" y="1164"/>
    </contour>
  </outline>
</glyph>
<glyph name="dotlessi" format="2">
  <advance width="1200" height="1560"/>
  <unicode hex="0131"/>
  <anchor x="664" y="0" name="bottom"/>
  <anchor x="1116" y="0" name="bottomright"/>
  <anchor x="664" y="1032" name="top"/>
  <anchor x="332" y="0" name="b.cedillacomb"/>
  <anchor x="546" y="0" name="b.ogonekcomb"/>
  <anchor x="332" y="516" name="m.tildecomb"/>
  <outline>
    <contour>
      <point x="188" y="0" type="line" name="hr00"/>
      <point x="1116" y="0" type="line"/>
      <point x="1116" y="230" type="line"/>
      <point x="812" y="230" type="line"/>
      <point x="812" y="1032" type="line"/>
      <point x="188" y="1032" type="line"/>
      <point x="188" y="802" type="line"/>
      <point x="516" y="802" type="line"/>
      <point x="516" y="230" type="line"/>
      <point x="188" y="230" type="line"/>
    </contour>
  </outline>
</glyph>
<glyph name="napostrophe" format="2">
  <advance width="1200" height="1560"/>
  <unicode hex="0149"/>
  <outline>
    <contour>
      <point x="222" y="0" type="line"/>
      <point x="502" y="0" type="line"/>
      <point x="502" y="678" type="line"/>
      <point x="502" y="786"/>
      <point x="582" y="840"/>
      <point x="666" y="840" type="curve" smooth="yes"/>
      <point x="766" y="840"/>
      <point x="818" y="764"/>
      <point x="818" y="628" type="curve" smooth="yes"/>
      <point x="818" y="0" type="line"/>
      <point x="1098" y="0" type="line"/>
      <point x="1098" y="684" type="line" smooth="yes"/>
      <point x="1098" y="934"/>
      <point x="978" y="1056"/>
      <point x="800" y="1056" type="curve" smooth="yes"/>
      <point x="642" y="1056"/>
      <point x="556" y="960"/>
      <point x="514" y="844" type="curve"/>
      <point x="502" y="844" type="line"/>
      <point x="502" y="1032" type="line" name="hr01"/>
      <point x="222" y="1032" type="line"/>
    </contour>
    <contour>
      <point x="0" y="1058" type="line" name="hr02"/>
      <point x="138" y="1058" type="line"/>
      <point x="270" y="1480" type="line"/>
      <point x="12" y="1480" type="line"/>
    </contour>
  </outline>
</glyph>
<glyph name="Eng" format="1">
  <unicode hex="014A"/>
  <advance width="1200" height="1560"/>
  <outline>
    <contour>
      <point x="378" y="0" type="line" name="hr00"/>
      <point x="378" y="928" type="line"/>
      <point x="400" y="928" type="line"/>
      <point x="718" y="0" type="line"/>
      <point x="804" y="0" type="line"/>
      <point x="804" y="-180" type="line"/>
      <point x="378" y="-180" type="line"/>
      <point x="378" y="-400" type="line"/>
      <point x="764" y="-400" type="line" smooth="yes"/>
      <point x="976" y="-400"/>
      <point x="1078" y="-276"/>
      <point x="1078" y="-102" type="curve" smooth="yes"/>
      <point x="1078" y="1396" type="line"/>
      <point x="822" y="1396" type="line"/>
      <point x="822" y="468" type="line"/>
      <point x="800" y="468" type="line"/>
      <point x="482" y="1396" type="line"/>
      <point x="122" y="1396" type="line"/>
      <point x="122" y="0" type="line"/>
    </contour>
  </outline>
</glyph>
<glyph name="OE" format="2">
  <advance width="1200" height="1560"/>
  <unicode hex="0152"/>
  <outline>
    <contour>
      <point x="1172" y="0" type="line" name="hr00"/>
      <point x="1172" y="222" type="line"/>
      <point x="862" y="222" type="line"/>
      <point x="862" y="596" type="line"/>
      <point x="1152" y="596" type="line"/>
      <point x="1152" y="818" type="line"/>
      <point x="862" y="818" type="line"/>
      <point x="862" y="1174" type="line"/>
      <point x="1172" y="1174" type="line"/>
      <point x="1172" y="1396" type="line"/>
      <point x="554" y="1396" type="line" smooth="yes"/>
      <point x="194" y="1396"/>
      <point x="20" y="1146"/>
      <point x="20" y="698" type="curve" smooth="yes"/>
      <point x="20" y="250"/>
      <point x="194" y="0"/>
      <point x="554" y="0" type="curve" smooth="yes"/>
    </contour>
    <contour>
      <point x="574" y="222" type="line" smooth="yes"/>
      <point x="394" y="222"/>
      <point x="312" y="344"/>
      <point x="312" y="580" type="curve" smooth="yes"/>
      <point x="312" y="816" type="line" smooth="yes"/>
      <point x="312" y="1052"/>
      <point x="394" y="1174"/>
      <point x="574" y="1174" type="curve" smooth="yes"/>
      <point x="586" y="1174" type="line"/>
      <point x="586" y="222" type="line"/>
    </contour>
  </outline>
</glyph>
<glyph name="oe" format="1">
  <unicode hex="0153"/>
  <advance width="1200" height="1560"/>
  <outline>
    <contour>
      <point x="366" y="168" type="curve" smooth="yes" name="hr00"/>
      <point x="294" y="168"/>
      <point x="250" y="234"/>
      <point x="250" y="350" type="curve" smooth="yes"/>
      <point x="250" y="682" type="line" smooth="yes"/>
      <point x="250" y="798"/>
      <point x="294" y="864"/>
      <point x="366" y="864" type="curve" smooth="yes"/>
      <point x="438" y="864"/>
      <point x="482" y="798"/>
      <point x="482" y="682" type="curve" smooth="yes"/>
      <point x="482" y="350" type="line" smooth="yes"/>
      <point x="482" y="234"/>
      <point x="438" y="168"/>
    </contour>
    <contour>
      <point x="706" y="610" type="line"/>
      <point x="706" y="698" type="line" smooth="yes"/>
      <point x="706" y="798"/>
      <point x="744" y="876"/>
      <point x="828" y="876" type="curve" smooth="yes"/>
      <point x="912" y="876"/>
      <point x="950" y="798"/>
      <point x="950" y="698" type="curve" smooth="yes"/>
      <point x="950" y="610" type="line"/>
    </contour>
    <contour>
      <point x="846" y="-24" type="curve" smooth="yes"/>
      <point x="1026" y="-24"/>
      <point x="1118" y="102"/>
      <point x="1156" y="258" type="curve"/>
      <point x="962" y="312" type="line"/>
      <point x="944" y="234"/>
      <point x="912" y="168"/>
      <point x="842" y="168" type="curve" smooth="yes"/>
      <point x="754" y="168"/>
      <point x="706" y="272"/>
      <point x="706" y="426" type="curve" smooth="yes"/>
      <point x="706" y="456" type="line"/>
      <point x="1168" y="456" type="line"/>
      <point x="1168" y="594" type="line" smooth="yes"/>
      <point x="1168" y="878"/>
      <point x="1040" y="1056"/>
      <point x="840" y="1056" type="curve" smooth="yes"/>
      <point x="738" y="1056"/>
      <point x="660" y="1008"/>
      <point x="602" y="908" type="curve"/>
      <point x="594" y="908" type="line"/>
      <point x="544" y="1004"/>
      <point x="468" y="1056"/>
      <point x="352" y="1056" type="curve" smooth="yes"/>
      <point x="152" y="1056"/>
      <point x="24" y="904"/>
      <point x="24" y="516" type="curve" smooth="yes"/>
      <point x="24" y="126"/>
      <point x="154" y="-24"/>
      <point x="348" y="-24" type="curve" smooth="yes"/>
      <point x="456" y="-24"/>
      <point x="530" y="24"/>
      <point x="582" y="108" type="curve"/>
      <point x="590" y="108" type="line"/>
      <point x="650" y="16"/>
      <point x="742" y="-24"/>
    </contour>
  </outline>
</glyph>
<glyph name="Scedilla" format="1">
  <unicode hex="015E"/>
  <advance width="1200" height="1560"/>
  <outline>
    <contour>
      <point x="612" y="-424" type="curve" smooth="yes"/>
      <point x="748" y="-424"/>
      <point x="876" y="-378"/>
      <point x="876" y="-242" type="curve" smooth="yes"/>
      <point x="876" y="-144"/>
      <point x="810" y="-104"/>
      <point x="730" y="-104" type="curve" smooth="yes"/>
      <point x="698" y="-104"/>
      <point x="666" y="-110"/>
      <point x="634" y="-118" type="curve"/>
      <point x="626" y="-110" type="line"/>
      <point x="644" y="-22" type="line"/>
      <point x="950" y="0"/>
      <point x="1112" y="182"/>
      <point x="1112" y="428" type="curve" smooth="yes" name="hr01"/>
      <point x="1112" y="648"/>
      <point x="982" y="780"/>
      <point x="758" y="820" type="curve" smooth="yes"/>
      <point x="612" y="846" type="line" smooth="yes"/>
      <point x="476" y="870"/>
      <point x="422" y="912"/>
      <point x="422" y="1008" type="curve" smooth="yes"/>
      <point x="422" y="1118"/>
      <point x="490" y="1172"/>
      <point x="624" y="1172" type="curve" smooth="yes"/>
      <point x="750" y="1172"/>
      <point x="852" y="1124"/>
      <point x="926" y="1042" type="curve"/>
      <point x="1096" y="1234" type="line"/>
      <point x="998" y="1348"/>
      <point x="834" y="1420"/>
      <point x="620" y="1420" type="curve" smooth="yes"/>
      <point x="304" y="1420"/>
      <point x="118" y="1262"/>
      <point x="118" y="994" type="curve" smooth="yes"/>
      <point x="118" y="790"/>
      <point x="224" y="636"/>
      <point x="474" y="594" type="curve" smooth="yes"/>
      <point x="620" y="570" type="line" smooth="yes"/>
      <point x="756" y="548"/>
      <point x="808" y="502"/>
      <point x="808" y="404" type="curve" smooth="yes"/>
      <point x="808" y="284"/>
      <point x="730" y="218"/>
      <point x="588" y="218" type="curve" smooth="yes"/>
      <point x="464" y="218"/>
      <point x="338" y="270"/>
      <point x="236" y="382" type="curve"/>
      <point x="62" y="192" type="line"/>
      <point x="158" y="72"/>
      <point x="312" y="-6"/>
      <point x="510" y="-22" type="curve"/>
      <point x="484" y="-148" type="line"/>
      <point x="526" y="-152" type="line" smooth="yes"/>
      <point x="650" y="-164"/>
      <point x="676" y="-202"/>
      <point x="676" y="-232" type="curve" smooth="yes" name="hr02"/>
      <point x="676" y="-266"/>
      <point x="638" y="-282"/>
      <point x="588" y="-282" type="curve" smooth="yes"/>
      <point x="526" y="-282"/>
      <point x="482" y="-256"/>
      <point x="456" y="-224" type="curve"/>
      <point x="364" y="-336" type="line"/>
      <point x="398" y="-376"/>
      <point x="474" y="-424"/>
    </contour>
  </outline>
</glyph>
<glyph name="scedilla" format="2">
  <advance width="1200" height="1560"/>
  <unicode hex="015F"/>
  <outline>
    <contour>
      <point x="614" y="-424" type="curve" smooth="yes"/>
      <point x="750" y="-424"/>
      <point x="878" y="-378"/>
      <point x="878" y="-242" type="curve" smooth="yes"/>
      <point x="878" y="-144"/>
      <point x="812" y="-104"/>
      <point x="732" y="-104" type="curve" smooth="yes"/>
      <point x="700" y="-104"/>
      <point x="668" y="-110"/>
      <point x="636" y="-118" type="curve"/>
      <point x="628" y="-110" type="line"/>
      <point x="646" y="-22" type="line"/>
      <point x="916" y="-4"/>
      <point x="1068" y="126"/>
      <point x="1068" y="326" type="curve" smooth="yes" name="hr01"/>
      <point x="1068" y="522"/>
      <point x="922" y="600"/>
      <point x="736" y="628" type="curve"/>
      <point x="572" y="654" type="line" smooth="yes"/>
      <point x="492" y="666"/>
      <point x="444" y="684"/>
      <point x="444" y="744" type="curve" smooth="yes"/>
      <point x="444" y="812"/>
      <point x="504" y="848"/>
      <point x="616" y="848" type="curve" smooth="yes"/>
      <point x="750" y="848"/>
      <point x="848" y="796"/>
      <point x="908" y="730" type="curve"/>
      <point x="1056" y="898" type="line"/>
      <point x="970" y="998"/>
      <point x="828" y="1056"/>
      <point x="626" y="1056" type="curve" smooth="yes"/>
      <point x="328" y="1056"/>
      <point x="154" y="926"/>
      <point x="154" y="710" type="curve" smooth="yes"/>
      <point x="154" y="514"/>
      <point x="300" y="436"/>
      <point x="484" y="408" type="curve" smooth="yes"/>
      <point x="650" y="382" type="line" smooth="yes"/>
      <point x="730" y="370"/>
      <point x="778" y="352"/>
      <point x="778" y="294" type="curve" smooth="yes"/>
      <point x="778" y="220"/>
      <point x="706" y="184"/>
      <point x="590" y="184" type="curve" smooth="yes"/>
      <point x="452" y="184"/>
      <point x="344" y="236"/>
      <point x="264" y="324" type="curve"/>
      <point x="98" y="170" type="line"/>
      <point x="172" y="64"/>
      <point x="320" y="-6"/>
      <point x="512" y="-20" type="curve"/>
      <point x="486" y="-148" type="line"/>
      <point x="528" y="-152" type="line" smooth="yes"/>
      <point x="652" y="-164"/>
      <point x="678" y="-202"/>
      <point x="678" y="-232" type="curve" smooth="yes" name="hr02"/>
      <point x="678" y="-266"/>
      <point x="640" y="-282"/>
      <point x="590" y="-282" type="curve" smooth="yes"/>
      <point x="528" y="-282"/>
      <point x="484" y="-256"/>
      <point x="458" y="-224" type="curve"/>
      <point x="366" y="-336" type="line"/>
      <point x="400" y="-376"/>
      <point x="476" y="-424"/>
    </contour>
  </outline>
</glyph>
<glyph name="Tbar" format="2">
  <advance width="1200" height="1560"/>
  <unicode hex="0166"/>
  <outline>
    <contour>
      <point x="1036" y="564" type="line" name="hr00"/>
      <point x="1036" y="792" type="line"/>
      <point x="750" y="792" type="line"/>
      <point x="750" y="1150" type="line"/>
      <point x="1152" y="1150" type="line"/>
      <point x="1152" y="1396" type="line"/>
      <point x="48" y="1396" type="line"/>
      <point x="48" y="1150" type="line"/>
      <point x="450" y="1150" type="line"/>
      <point x="450" y="792" type="line"/>
      <point x="164" y="792" type="line"/>
      <point x="164" y="564" type="line"/>
      <point x="450" y="564" type="line"/>
      <point x="450" y="0" type="line"/>
      <point x="750" y="0" type="line"/>
      <point x="750" y="564" type="line"/>
    </contour>
  </outline>
</glyph>
<glyph name="tbar" format="2">
  <advance width="1200" height="1560"/>
  <unicode hex="0167"/>
  <outline>
    <contour>
      <point x="1062" y="230" type="line" name="hr00"/>
      <point x="660" y="230" type="line"/>
      <point x="660" y="424" type="line"/>
      <point x="962" y="424" type="line"/>
      <point x="962" y="634" type="line"/>
      <point x="660" y="634" type="line"/>
      <point x="660" y="802" type="line"/>
      <point x="1062" y="802" type="line"/>
      <point x="1062" y="1032" type="line"/>
      <point x="660" y="1032" type="line"/>
      <point x="660" y="1396" type="line"/>
      <point x="388" y="1396" type="line"/>
      <point x="388" y="1154" type="line" smooth="yes"/>
      <point x="388" y="1062"/>
      <point x="354" y="1032"/>
      <point x="266" y="1032" type="curve" smooth="yes"/>
      <point x="84" y="1032" type="line"/>
      <point x="84" y="802" type="line"/>
      <point x="364" y="802" type="line"/>
      <point x="364" y="634" type="line"/>
      <point x="188" y="634" type="line"/>
      <point x="188" y="424" type="line"/>
      <point x="364" y="424" type="line"/>
      <point x="364" y="298" type="line" smooth="yes"/>
      <point x="364" y="124"/>
      <point x="466" y="0"/>
      <point x="680" y="0" type="curve" smooth="yes"/>
      <point x="1062" y="0" type="line"/>
    </contour>
  </outline>
</glyph>
<glyph name="Uogonek" format="2">
  <advance width="1200" height="1560"/>
  <unicode hex="0172"/>
  <outline>
    <contour>
      <point x="110" y="1396" type="line" name="hr00"/>
      <point x="110" y="552" type="line" smooth="yes"/>
      <point x="110" y="176"/>
      <point x="194" y="-24"/>
      <point x="588" y="-24" type="curve" smooth="yes"/>
      <point x="628" y="-24"/>
      <point x="648" y="-22"/>
      <point x="670" y="-18" type="curve"/>
      <point x="674" y="-28" type="line"/>
      <point x="522" y="-94"/>
      <point x="436" y="-150"/>
      <point x="436" y="-256" type="curve" smooth="yes"/>
      <point x="436" y="-380"/>
      <point x="550" y="-424"/>
      <point x="684" y="-424" type="curve" smooth="yes"/>
      <point x="810" y="-424"/>
      <point x="894" y="-386"/>
      <point x="928" y="-322" type="curve"/>
      <point x="822" y="-220" type="line"/>
      <point x="794" y="-252"/>
      <point x="760" y="-276"/>
      <point x="712" y="-276" type="curve" smooth="yes"/>
      <point x="674" y="-276"/>
      <point x="636" y="-260"/>
      <point x="636" y="-210" type="curve" smooth="yes"/>
      <point x="636" y="-164"/>
      <point x="666" y="-140"/>
      <point x="860" y="-2" type="curve" smooth="yes"/>
      <point x="1080" y="154"/>
      <point x="1090" y="298"/>
      <point x="1090" y="552" type="curve" smooth="yes"/>
      <point x="1090" y="1396" type="line"/>
      <point x="790" y="1396" type="line"/>
      <point x="790" y="512" type="line" smooth="yes"/>
      <point x="790" y="334"/>
      <point x="776" y="218"/>
      <point x="600" y="218" type="curve" smooth="yes"/>
      <point x="424" y="218"/>
      <point x="410" y="334"/>
      <point x="410" y="512" type="curve" smooth="yes"/>
      <point x="410" y="1396" type="line"/>
    </contour>
  </outline>
</glyph>
<glyph name="Schwa" format="2">
  <advance width="1200" height="1560"/>
  <unicode hex="018F"/>
  <outline>
    <contour>
      <point x="600" y="-24" type="curve" smooth="yes" name="hr00"/>
      <point x="974" y="-24"/>
      <point x="1146" y="242"/>
      <point x="1146" y="698" type="curve" smooth="yes"/>
      <point x="1146" y="1154"/>
      <point x="976" y="1420"/>
      <point x="596" y="1420" type="curve" smooth="yes"/>
      <point x="320" y="1420"/>
      <point x="150" y="1278"/>
      <point x="86" y="1028" type="curve"/>
      <point x="346" y="930" type="line"/>
      <point x="380" y="1076"/>
      <point x="444" y="1180"/>
      <point x="596" y="1180" type="curve" smooth="yes"/>
      <point x="778" y="1180"/>
      <point x="840" y="1034"/>
      <point x="840" y="820" type="curve" smooth="yes"/>
      <point x="840" y="798" type="line"/>
      <point x="54" y="798" type="line"/>
      <point x="54" y="698" type="line" smooth="yes"/>
      <point x="54" y="242"/>
      <point x="226" y="-24"/>
    </contour>
    <contour>
      <point x="600" y="212" type="curve" smooth="yes"/>
      <point x="418" y="212"/>
      <point x="360" y="350"/>
      <point x="360" y="576" type="curve" smooth="yes"/>
      <point x="360" y="582" type="line"/>
      <point x="840" y="582" type="line"/>
      <point x="840" y="576" type="line" smooth="yes"/>
      <point x="840" y="350"/>
      <point x="782" y="212"/>
    </contour>
  </outline>
</glyph>
<glyph name="florin" format="1">
  <unicode hex="0192"/>
  <advance width="1200" height="1560"/>
  <outline>
    <contour>
      <point x="-100" y="-400" type="line" name="hr00"/>
      <point x="268" y="-400" type="line" smooth="yes"/>
      <point x="482" y="-400"/>
      <point x="582" y="-296"/>
      <point x="610" y="-122" type="curve"/>
      <point x="738" y="646" type="line"/>
      <point x="1086" y="646" type="line"/>
      <point x="1122" y="876" type="line"/>
      <point x="778" y="876" type="line"/>
      <point x="826" y="1166" type="line"/>
      <point x="1196" y="1166" type="line"/>
      <point x="1234" y="1396" type="line"/>
      <point x="864" y="1396" type="line" smooth="yes"/>
      <point x="648" y="1396"/>
      <point x="550" y="1292"/>
      <point x="522" y="1118" type="curve" smooth="yes"/>
      <point x="482" y="876" type="line"/>
      <point x="154" y="876" type="line"/>
      <point x="116" y="646" type="line"/>
      <point x="442" y="646" type="line"/>
      <point x="306" y="-170" type="line"/>
      <point x="-62" y="-170" type="line"/>
    </contour>
  </outline>
</glyph>
<glyph name="Ohorn" format="2">
  <advance width="1200" height="1560"/>
  <unicode hex="01A0"/>
  <anchor x="600" y="0" name="bottom"/>
  <anchor x="600" y="1396" name="top"/>
  <anchor x="300" y="0" name="b.cedillacomb"/>
  <anchor x="300" y="698" name="m.tildecomb"/>
  <anchor x="300" y="0" name="m.cedillacomb"/>
  <anchor x="300" y="698" name="t.tildecomb"/>
  <outline>
    <contour>
      <point x="1186" y="1626" type="line"/>
      <point x="938" y="1626" type="line"/>
      <point x="938" y="1396" type="line"/>
      <point x="778" y="1396" type="line"/>
      <point x="726" y="1412"/>
      <point x="666" y="1420"/>
      <point x="600" y="1420" type="curve" smooth="yes" name="hr01"/>
      <point x="226" y="1420"/>
      <point x="54" y="1154"/>
      <point x="54" y="698" type="curve" smooth="yes"/>
      <point x="54" y="242"/>
      <point x="226" y="-24"/>
      <point x="600" y="-24" type="curve" smooth="yes"/>
      <point x="974" y="-24"/>
      <point x="1146" y="242"/>
      <point x="1146" y="698" type="curve" smooth="yes"/>
      <point x="1146" y="930"/>
      <point x="1114" y="1110"/>
      <point x="1012" y="1220" type="curve" name="hr02"/>
      <point x="1040" y="1222"/>
      <point x="1063" y="1226"/>
      <point x="1083" y="1232" type="curve" smooth="yes"/>
      <point x="1143" y="1251"/>
      <point x="1171" y="1291"/>
      <point x="1181" y="1352" type="curve" smooth="yes"/>
      <point x="1185" y="1373"/>
      <point x="1186" y="1395"/>
      <point x="1186" y="1420" type="curve" smooth="yes" name="hr03"/>
    </contour>
    <contour>
      <point x="600" y="218" type="curve" smooth="yes"/>
      <point x="430" y="218"/>
      <point x="374" y="352"/>
      <point x="374" y="576" type="curve" smooth="yes"/>
      <point x="374" y="820" type="line" smooth="yes"/>
      <point x="374" y="1044"/>
      <point x="430" y="1178"/>
      <point x="600" y="1178" type="curve" smooth="yes"/>
      <point x="770" y="1178"/>
      <point x="826" y="1044"/>
      <point x="826" y="820" type="curve" smooth="yes" name="hr04"/>
      <point x="826" y="578" type="line" smooth="yes"/>
      <point x="826" y="352"/>
      <point x="770" y="218"/>
    </contour>
  </outline>
</glyph>
<glyph name="ohorn" format="2">
  <advance width="1200" height="1560"/>
  <unicode hex="01A1"/>
  <anchor x="600" y="0" name="bottom"/>
  <anchor x="600" y="1032" name="top"/>
  <anchor x="300" y="0" name="b.cedillacomb"/>
  <anchor x="300" y="516" name="m.tildecomb"/>
  <anchor x="300" y="0" name="m.cedillacomb"/>
  <anchor x="300" y="516" name="t.tildecomb"/>
  <outline>
    <contour>
      <point x="918" y="1262" type="line"/>
      <point x="918" y="1032" type="line"/>
      <point x="778" y="1032" type="line"/>
      <point x="724" y="1048"/>
      <point x="664" y="1056"/>
      <point x="600" y="1056" type="curve" smooth="yes" name="hr01"/>
      <point x="278" y="1056"/>
      <point x="82" y="850"/>
      <point x="82" y="516" type="curve" smooth="yes"/>
      <point x="82" y="182"/>
      <point x="278" y="-24"/>
      <point x="600" y="-24" type="curve" smooth="yes"/>
      <point x="922" y="-24"/>
      <point x="1118" y="182"/>
      <point x="1118" y="516" type="curve" smooth="yes"/>
      <point x="1118" y="660"/>
      <point x="1080" y="772"/>
      <point x="1014" y="856" type="curve" name="hr02"/>
      <point x="1026" y="857"/>
      <point x="1036" y="859"/>
      <point x="1046" y="861" type="curve" smooth="yes"/>
      <point x="1140" y="882"/>
      <point x="1166" y="948"/>
      <point x="1166" y="1056" type="curve" smooth="yes" name="hr03"/>
      <point x="1166" y="1262" type="line"/>
    </contour>
    <contour>
      <point x="600" y="196" type="curve" smooth="yes"/>
      <point x="468" y="196"/>
      <point x="388" y="282"/>
      <point x="388" y="434" type="curve" smooth="yes"/>
      <point x="388" y="598" type="line" smooth="yes"/>
      <point x="388" y="750"/>
      <point x="468" y="836"/>
      <point x="600" y="836" type="curve" smooth="yes"/>
      <point x="732" y="836"/>
      <point x="812" y="750"/>
      <point x="812" y="598" type="curve" smooth="yes" name="hr04"/>
      <point x="812" y="434" type="line" smooth="yes"/>
      <point x="812" y="282"/>
      <point x="732" y="196"/>
    </contour>
  </outline>
</glyph>
<glyph name="Uhorn" format="2">
  <advance width="1200" height="1560"/>
  <unicode hex="01AF"/>
  <anchor x="600" y="0" name="bottom"/>
  <anchor x="600" y="1396" name="top"/>
  <anchor x="300" y="0" name="b.cedillacomb"/>
  <anchor x="300" y="698" name="m.tildecomb"/>
  <anchor x="300" y="0" name="m.cedillacomb"/>
  <anchor x="300" y="698" name="t.tildecomb"/>
  <outline>
    <contour>
      <point x="110" y="1396" type="line"/>
      <point x="110" y="646" type="line"/>
      <point x="110" y="552" type="line" smooth="yes"/>
      <point x="110" y="170"/>
      <point x="194" y="-24"/>
      <point x="600" y="-24" type="curve" smooth="yes"/>
      <point x="1006" y="-24"/>
      <point x="1090" y="170"/>
      <point x="1090" y="552" type="curve" smooth="yes"/>
      <point x="1090" y="1228" type="line"/>
      <point x="1147" y="1244"/>
      <point x="1177" y="1278"/>
      <point x="1191" y="1329" type="curve"/>
      <point x="1197" y="1355"/>
      <point x="1200" y="1385"/>
      <point x="1200" y="1420" type="curve" smooth="yes" name="hr01"/>
      <point x="1200" y="1626" type="line"/>
      <point x="952" y="1626" type="line"/>
      <point x="952" y="1396" type="line"/>
      <point x="790" y="1396" type="line" name="hr02"/>
      <point x="790" y="512" type="line" smooth="yes"/>
      <point x="790" y="334"/>
      <point x="776" y="218"/>
      <point x="600" y="218" type="curve" smooth="yes"/>
      <point x="424" y="218"/>
      <point x="410" y="334"/>
      <point x="410" y="512" type="curve" smooth="yes"/>
      <point x="410" y="1396" type="line"/>
    </contour>
  </outline>
</glyph>
<glyph name="uhorn" format="2">
  <advance width="1200" height="1560"/>
  <unicode hex="01B0"/>
  <anchor x="596" y="0" name="bottom"/>
  <anchor x="596" y="1032" name="top"/>
  <anchor x="297" y="0" name="b.cedillacomb"/>
  <anchor x="297" y="516" name="m.tildecomb"/>
  <anchor x="297" y="0" name="m.cedillacomb"/>
  <anchor x="297" y="516" name="t.tildecomb"/>
  <outline>
    <contour>
      <point x="1196" y="1262" type="line"/>
      <point x="948" y="1262" type="line"/>
      <point x="948" y="1032" type="line"/>
      <point x="774" y="1032" type="line" name="hr01"/>
      <point x="774" y="354" type="line" smooth="yes"/>
      <point x="774" y="254"/>
      <point x="684" y="204"/>
      <point x="592" y="204" type="curve" smooth="yes"/>
      <point x="476" y="204"/>
      <point x="418" y="274"/>
      <point x="418" y="404" type="curve"/>
      <point x="418" y="404"/>
      <point x="418" y="404"/>
      <point x="418" y="404" type="curve"/>
      <point x="418" y="1032" type="line"/>
      <point x="122" y="1032" type="line"/>
      <point x="122" y="364" type="line" smooth="yes"/>
      <point x="122" y="114"/>
      <point x="260" y="-24"/>
      <point x="458" y="-24" type="curve" smooth="yes"/>
      <point x="624" y="-24"/>
      <point x="716" y="72"/>
      <point x="762" y="188" type="curve"/>
      <point x="774" y="188" type="line"/>
      <point x="774" y="0" type="line" name="hr02"/>
      <point x="1070" y="0" type="line"/>
      <point x="1070" y="860" type="line"/>
      <point x="1095" y="865"/>
      <point x="1115" y="873"/>
      <point x="1131" y="884" type="curve" smooth="yes"/>
      <point x="1180" y="916"/>
      <point x="1196" y="974"/>
      <point x="1196" y="1056" type="curve" smooth="yes" name="hr03"/>
    </contour>
  </outline>
</glyph>
<glyph name="dotlessj" format="2">
  <advance width="1200" height="1560"/>
  <unicode hex="0237"/>
  <anchor x="728" y="1032" name="top"/>
  <anchor x="392" y="516" name="m.tildecomb"/>
  <anchor x="392" y="516" name="t.tildecomb"/>
  <outline>
    <contour>
      <point x="184" y="-400" type="line" name="hr00"/>
      <point x="562" y="-400" type="line" smooth="yes"/>
      <point x="774" y="-400"/>
      <point x="876" y="-276"/>
      <point x="876" y="-102" type="curve" smooth="yes"/>
      <point x="876" y="1032" type="line"/>
      <point x="180" y="1032" type="line"/>
      <point x="180" y="802" type="line"/>
      <point x="580" y="802" type="line"/>
      <point x="580" y="-170" type="line"/>
      <point x="184" y="-170" type="line"/>
    </contour>
  </outline>
</glyph>
<glyph name="schwa" format="2">
  <advance width="1200" height="1560"/>
  <unicode hex="0259"/>
  <outline>
    <contour>
      <point x="100" y="588" type="line" name="hr00"/>
      <point x="100" y="500" type="line" smooth="yes"/>
      <point x="100" y="178"/>
      <point x="290" y="-24"/>
      <point x="598" y="-24" type="curve" smooth="yes"/>
      <point x="908" y="-24"/>
      <point x="1100" y="182"/>
      <point x="1100" y="520" type="curve" smooth="yes"/>
      <point x="1100" y="850"/>
      <point x="918" y="1056"/>
      <point x="572" y="1056" type="curve" smooth="yes"/>
      <point x="350" y="1056"/>
      <point x="210" y="972"/>
      <point x="130" y="874" type="curve"/>
      <point x="290" y="700" type="line"/>
      <point x="354" y="776"/>
      <point x="440" y="828"/>
      <point x="562" y="828" type="curve" smooth="yes"/>
      <point x="720" y="828"/>
      <point x="806" y="738"/>
      <point x="806" y="606" type="curve" smooth="yes"/>
      <point x="806" y="588" type="line"/>
    </contour>
    <contour>
      <point x="390" y="422" type="line"/>
      <point x="806" y="422" type="line"/>
      <point x="806" y="406" type="line" smooth="yes"/>
      <point x="806" y="274"/>
      <point x="724" y="188"/>
      <point x="596" y="188" type="curve" smooth="yes"/>
      <point x="468" y="188"/>
      <point x="390" y="272"/>
      <point x="390" y="406" type="curve" smooth="yes"/>
    </contour>
  </outline>
</glyph>
<glyph name="commaturnedtop" format="2">
  <advance width="1200" height="1560"/>
  <unicode hex="02BB"/>
  <anchor x="600" y="1032" name="_top"/>
  <outline>
    <contour>
      <point x="442" y="1158" type="line" name="hr00"/>
      <point x="756" y="1158" type="line"/>
      <point x="792" y="1588" type="line"/>
      <point x="616" y="1588" type="line"/>
    </contour>
  </outline>
</glyph>
<glyph name="caronslovak" format="2">
  <advance width="1200" height="1560"/>
  <unicode hex="02BC"/>
  <anchor x="274" y="1480" name="_topright"/>
  <outline>
    <contour>
      <point x="600" y="1480" type="line" name="hr00"/>
      <point x="286" y="1480" type="line"/>
      <point x="274" y="1050" type="line"/>
      <point x="468" y="1050" type="line"/>
    </contour>
  </outline>
</glyph>
<glyph name="circumflex" format="2">
  <advance width="1200" height="1560"/>
  <unicode hex="02C6"/>
  <anchor x="600" y="1032" name="_top"/>
  <outline>
    <contour>
      <point x="476" y="1572" type="line" name="hr00"/>
      <point x="212" y="1254" type="line"/>
      <point x="354" y="1138" type="line"/>
      <point x="596" y="1368" type="line"/>
      <point x="838" y="1138" type="line"/>
      <point x="988" y="1254" type="line"/>
      <point x="724" y="1572" type="line"/>
    </contour>
  </outline>
</glyph>
<glyph name="caron" format="2">
  <advance width="1200" height="1560"/>
  <unicode hex="02C7"/>
  <anchor x="600" y="1032" name="_top"/>
  <outline>
    <contour>
      <point x="724" y="1156" type="line" name="hr00"/>
      <point x="988" y="1474" type="line"/>
      <point x="846" y="1590" type="line"/>
      <point x="604" y="1360" type="line"/>
      <point x="362" y="1590" type="line"/>
      <point x="212" y="1474" type="line"/>
      <point x="476" y="1156" type="line"/>
    </contour>
  </outline>
</glyph>
<glyph name="breve" format="2">
  <advance width="1200" height="1560"/>
  <unicode hex="02D8"/>
  <anchor x="600" y="1032" name="_top"/>
  <outline>
    <contour>
      <point x="600" y="1140" type="curve" smooth="yes" name="hr00"/>
      <point x="840" y="1140"/>
      <point x="938" y="1336"/>
      <point x="988" y="1480" type="curve"/>
      <point x="822" y="1564" type="line"/>
      <point x="780" y="1500" type="line" smooth="yes"/>
      <point x="718" y="1404"/>
      <point x="678" y="1346"/>
      <point x="600" y="1346" type="curve" smooth="yes"/>
      <point x="522" y="1346"/>
      <point x="482" y="1404"/>
      <point x="420" y="1500" type="curve" smooth="yes"/>
      <point x="378" y="1564" type="line"/>
      <point x="212" y="1480" type="line"/>
      <point x="262" y="1336"/>
      <point x="360" y="1140"/>
    </contour>
  </outline>
</glyph>
<glyph name="dotaccent" format="1">
  <unicode hex="02D9"/>
  <advance width="1200" height="1560"/>
  <outline>
    <contour>
      <point x="600" y="1164" type="curve" smooth="yes" name="hr00"/>
      <point x="732" y="1164"/>
      <point x="778" y="1226"/>
      <point x="778" y="1304" type="curve" smooth="yes"/>
      <point x="778" y="1362" type="line" smooth="yes"/>
      <point x="778" y="1442"/>
      <point x="732" y="1502"/>
      <point x="600" y="1502" type="curve" smooth="yes"/>
      <point x="468" y="1502"/>
      <point x="422" y="1442"/>
      <point x="422" y="1362" type="curve" smooth="yes"/>
      <point x="422" y="1304" type="line" smooth="yes"/>
      <point x="422" y="1226"/>
      <point x="468" y="1164"/>
    </contour>
    <contour>
      <point x="600" y="1032" type="move" name="_top"/>
    </contour>
  </outline>
</glyph>
<glyph name="ring" format="2">
  <advance width="1200" height="1560"/>
  <unicode hex="02DA"/>
  <anchor x="600" y="1032" name="_top"/>
  <outline>
    <contour>
      <point x="600" y="1098" type="curve" smooth="yes" name="hr00"/>
      <point x="766" y="1098"/>
      <point x="896" y="1220"/>
      <point x="896" y="1384" type="curve" smooth="yes"/>
      <point x="896" y="1550"/>
      <point x="766" y="1670"/>
      <point x="600" y="1670" type="curve" smooth="yes"/>
      <point x="434" y="1670"/>
      <point x="304" y="1548"/>
      <point x="304" y="1384" type="curve" smooth="yes"/>
      <point x="304" y="1218"/>
      <point x="434" y="1098"/>
    </contour>
    <contour>
      <point x="600" y="1248" type="curve" smooth="yes"/>
      <point x="534" y="1248"/>
      <point x="498" y="1286"/>
      <point x="498" y="1350" type="curve" smooth="yes"/>
      <point x="498" y="1418" type="line" smooth="yes"/>
      <point x="498" y="1480"/>
      <point x="534" y="1520"/>
      <point x="600" y="1520" type="curve" smooth="yes"/>
      <point x="666" y="1520"/>
      <point x="702" y="1482"/>
      <point x="702" y="1418" type="curve" smooth="yes"/>
      <point x="702" y="1350" type="line" smooth="yes"/>
      <point x="702" y="1288"/>
      <point x="666" y="1248"/>
    </contour>
  </outline>
</glyph>
<glyph name="ogonek" format="2">
  <advance width="1200" height="1560"/>
  <unicode hex="02DB"/>
  <anchor x="600" y="0" name="_bottomright"/>
  <outline>
    <contour>
      <point x="420" y="-424" type="curve" smooth="yes" name="hr00"/>
      <point x="546" y="-424"/>
      <point x="630" y="-386"/>
      <point x="664" y="-322" type="curve"/>
      <point x="558" y="-220" type="line"/>
      <point x="530" y="-252"/>
      <point x="496" y="-276"/>
      <point x="448" y="-276" type="curve" smooth="yes"/>
      <point x="408" y="-276"/>
      <point x="372" y="-260"/>
      <point x="372" y="-210" type="curve" smooth="yes"/>
      <point x="372" y="-162"/>
      <point x="404" y="-120"/>
      <point x="600" y="0" type="curve"/>
      <point x="580" y="44" type="line"/>
      <point x="400" y="24" type="line"/>
      <point x="410" y="-8" type="line"/>
      <point x="262" y="-76"/>
      <point x="172" y="-142"/>
      <point x="172" y="-254" type="curve" smooth="yes"/>
      <point x="172" y="-382"/>
      <point x="288" y="-424"/>
    </contour>
  </outline>
</glyph>
<glyph name="tilde" format="2">
  <advance width="1200" height="1560"/>
  <unicode hex="02DC"/>
  <anchor x="600" y="1032" name="_top"/>
  <outline>
    <contour>
      <point x="752" y="1184" type="curve" smooth="yes"/>
      <point x="858" y="1184"/>
      <point x="932" y="1240"/>
      <point x="980" y="1312" type="curve"/>
      <point x="876" y="1448" type="line"/>
      <point x="834" y="1414"/>
      <point x="804" y="1398"/>
      <point x="758" y="1398" type="curve" smooth="yes"/>
      <point x="706" y="1398"/>
      <point x="660" y="1418"/>
      <point x="602" y="1442" type="curve" smooth="yes"/>
      <point x="552" y="1464"/>
      <point x="508" y="1482"/>
      <point x="448" y="1482" type="curve" smooth="yes" name="hr01"/>
      <point x="342" y="1482"/>
      <point x="268" y="1426"/>
      <point x="220" y="1354" type="curve"/>
      <point x="324" y="1218" type="line"/>
      <point x="366" y="1252"/>
      <point x="396" y="1268"/>
      <point x="442" y="1268" type="curve" smooth="yes"/>
      <point x="494" y="1268"/>
      <point x="540" y="1248"/>
      <point x="598" y="1224" type="curve" smooth="yes"/>
      <point x="648" y="1202"/>
      <point x="692" y="1184"/>
    </contour>
  </outline>
</glyph>
<glyph name="hungarumlaut" format="2">
  <advance width="1200" height="1560"/>
  <unicode hex="02DD"/>
  <anchor x="600" y="1032" name="_top"/>
  <outline>
    <contour>
      <point x="688" y="1492" type="line" name="hr00"/>
      <point x="456" y="1606" type="line"/>
      <point x="258" y="1218" type="line"/>
      <point x="420" y="1140" type="line"/>
    </contour>
    <contour>
      <point x="1098" y="1492" type="line"/>
      <point x="866" y="1606" type="line"/>
      <point x="668" y="1218" type="line"/>
      <point x="830" y="1140" type="line"/>
    </contour>
  </outline>
</glyph>
<glyph name="horncomb" format="2">
  <advance width="0" height="1560"/>
  <unicode hex="031B"/>
  <outline>
    <contour>
      <point x="250" y="1262" type="line" name="hr00"/>
      <point x="2" y="1262" type="line"/>
      <point x="2" y="1032" type="line"/>
      <point x="-250" y="1032" type="line"/>
      <point x="-250" y="854" type="line"/>
      <point x="50" y="854" type="line" smooth="yes"/>
      <point x="210" y="854"/>
      <point x="250" y="922"/>
      <point x="250" y="1056" type="curve" smooth="yes"/>
    </contour>
  </outline>
</glyph>
<glyph name="dotbelowcomb" format="1">
  <unicode hex="0323"/>
  <advance width="0" height="1560"/>
  <outline>
    <contour>
      <point x="0" y="-406" type="curve" smooth="yes" name="hr00"/>
      <point x="118" y="-406"/>
      <point x="162" y="-352"/>
      <point x="162" y="-282" type="curve" smooth="yes"/>
      <point x="162" y="-230" type="line" smooth="yes"/>
      <point x="162" y="-158"/>
      <point x="118" y="-104"/>
      <point x="0" y="-104" type="curve" smooth="yes"/>
      <point x="-118" y="-104"/>
      <point x="-162" y="-158"/>
      <point x="-162" y="-230" type="curve" smooth="yes"/>
      <point x="-162" y="-282" type="line" smooth="yes"/>
      <point x="-162" y="-352"/>
      <point x="-118" y="-406"/>
    </contour>
    <contour>
      <point x="0" y="0" type="move" name="_bottom"/>
    </contour>
  </outline>
</glyph>
<glyph name="commabelowcomb" format="2">
  <advance width="0" height="1560"/>
  <unicode hex="0326"/>
  <anchor x="0" y="0" name="_bottom"/>
  <anchor x="0" y="0" name="_b.cedillacomb"/>
  <outline>
    <contour>
      <point x="-192" y="-538" type="line" name="hr00"/>
      <point x="-16" y="-538" type="line"/>
      <point x="158" y="-108" type="line"/>
      <point x="-156" y="-108" type="line"/>
    </contour>
  </outline>
</glyph>
<glyph name="pi" format="1">
  <unicode hex="03C0"/>
  <advance width="1200" height="1560"/>
  <outline>
    <contour>
      <point x="160" y="0" type="line" name="hr00"/>
      <point x="456" y="0" type="line"/>
      <point x="456" y="802" type="line"/>
      <point x="734" y="802" type="line"/>
      <point x="734" y="298" type="line" smooth="yes"/>
      <point x="734" y="124"/>
      <point x="836" y="0"/>
      <point x="1050" y="0" type="curve" smooth="yes"/>
      <point x="1150" y="0" type="line"/>
      <point x="1150" y="230" type="line"/>
      <point x="1030" y="230" type="line"/>
      <point x="1030" y="802" type="line"/>
      <point x="1150" y="802" type="line"/>
      <point x="1150" y="1032" type="line"/>
      <point x="40" y="1032" type="line"/>
      <point x="40" y="802" type="line"/>
      <point x="160" y="802" type="line"/>
    </contour>
  </outline>
</glyph>
<glyph name="uni0402" format="2">
  <advance width="1200" height="1560"/>
  <unicode hex="0402"/>
  <outline>
    <contour>
      <point x="576" y="-382" type="line" name="hr00"/>
      <point x="844" y="-382" type="line" smooth="yes"/>
      <point x="1058" y="-382"/>
      <point x="1158" y="-258"/>
      <point x="1158" y="-84" type="curve" smooth="yes"/>
      <point x="1158" y="438" type="line" smooth="yes"/>
      <point x="1158" y="774"/>
      <point x="1050" y="888"/>
      <point x="794" y="888" type="curve" smooth="yes"/>
      <point x="710" y="888"/>
      <point x="642" y="868"/>
      <point x="586" y="844" type="curve"/>
      <point x="576" y="844" type="line"/>
      <point x="576" y="1150" type="line"/>
      <point x="840" y="1150" type="line"/>
      <point x="840" y="1396" type="line"/>
      <point x="10" y="1396" type="line"/>
      <point x="10" y="1150" type="line"/>
      <point x="274" y="1150" type="line"/>
      <point x="274" y="0" type="line"/>
      <point x="576" y="0" type="line"/>
      <point x="576" y="612" type="line"/>
      <point x="616" y="632"/>
      <point x="664" y="646"/>
      <point x="716" y="646" type="curve" smooth="yes"/>
      <point x="812" y="646"/>
      <point x="856" y="602"/>
      <point x="856" y="446" type="curve" smooth="yes"/>
      <point x="856" y="-136" type="line"/>
      <point x="576" y="-136" type="line"/>
    </contour>
  </outline>
</glyph>
<glyph name="uni0404" format="1">
  <unicode hex="0404"/>
  <advance width="1200" height="1560"/>
  <outline>
    <contour>
      <point x="756" y="584" type="line" name="hr00"/>
      <point x="756" y="830" type="line"/>
      <point x="390" y="830" type="line"/>
      <point x="390" y="861"/>
      <point x="392" y="890"/>
      <point x="395" y="917" type="curve" smooth="yes"/>
      <point x="412" y="1081"/>
      <point x="478" y="1178"/>
      <point x="622" y="1178" type="curve" smooth="yes"/>
      <point x="774" y="1178"/>
      <point x="824" y="1082"/>
      <point x="852" y="970" type="curve"/>
      <point x="1132" y="1038" type="line"/>
      <point x="1078" y="1262"/>
      <point x="928" y="1420"/>
      <point x="628" y="1420" type="curve" smooth="yes"/>
      <point x="246" y="1420"/>
      <point x="70" y="1156"/>
      <point x="70" y="698" type="curve" smooth="yes"/>
      <point x="70" y="240"/>
      <point x="246" y="-24"/>
      <point x="628" y="-24" type="curve" smooth="yes"/>
      <point x="928" y="-24"/>
      <point x="1078" y="134"/>
      <point x="1132" y="358" type="curve"/>
      <point x="852" y="426" type="line"/>
      <point x="828" y="314"/>
      <point x="774" y="218"/>
      <point x="622" y="218" type="curve" smooth="yes"/>
      <point x="452" y="218"/>
      <point x="390" y="354"/>
      <point x="390" y="576" type="curve" smooth="yes"/>
      <point x="390" y="584" type="line"/>
    </contour>
  </outline>
</glyph>
<glyph name="uni0409" format="2">
  <advance width="1200" height="1560"/>
  <unicode hex="0409"/>
  <outline>
    <contour>
      <point x="516" y="0" type="line" name="hr00"/>
      <point x="826" y="0" type="line" smooth="yes"/>
      <point x="1038" y="0"/>
      <point x="1190" y="166"/>
      <point x="1190" y="446" type="curve" smooth="yes"/>
      <point x="1190" y="726"/>
      <point x="1038" y="892"/>
      <point x="826" y="892" type="curve" smooth="yes"/>
      <point x="772" y="892" type="line"/>
      <point x="772" y="1396" type="line"/>
      <point x="176" y="1396" type="line"/>
      <point x="176" y="1022" type="line" smooth="yes"/>
      <point x="176" y="456"/>
      <point x="136" y="298"/>
      <point x="68" y="226" type="curve"/>
      <point x="-8" y="226" type="line"/>
      <point x="-8" y="-12" type="line"/>
      <point x="12" y="-12" type="line" smooth="yes"/>
      <point x="104" y="-12"/>
      <point x="186" y="12"/>
      <point x="248" y="74" type="curve" smooth="yes"/>
      <point x="360" y="186"/>
      <point x="408" y="358"/>
      <point x="408" y="1002" type="curve" smooth="yes"/>
      <point x="408" y="1170" type="line"/>
      <point x="516" y="1170" type="line"/>
    </contour>
    <contour>
      <point x="772" y="226" type="line"/>
      <point x="772" y="666" type="line"/>
      <point x="794" y="666" type="line" smooth="yes"/>
      <point x="868" y="666"/>
      <point x="926" y="618"/>
      <point x="926" y="518" type="curve" smooth="yes"/>
      <point x="926" y="374" type="line" smooth="yes"/>
      <point x="926" y="274"/>
      <point x="868" y="226"/>
      <point x="794" y="226" type="curve" smooth="yes"/>
    </contour>
  </outline>
</glyph>
<glyph name="uni040F" format="2">
  <advance width="1200" height="1560"/>
  <unicode hex="040F"/>
  <outline>
    <contour>
      <point x="458" y="-300" type="line" name="hr00"/>
      <point x="742" y="-300" type="line"/>
      <point x="742" y="0" type="line"/>
      <point x="1078" y="0" type="line"/>
      <point x="1078" y="1396" type="line"/>
      <point x="776" y="1396" type="line"/>
      <point x="776" y="246" type="line"/>
      <point x="424" y="246" type="line"/>
      <point x="424" y="1396" type="line"/>
      <point x="122" y="1396" type="line"/>
      <point x="122" y="0" type="line"/>
      <point x="458" y="0" type="line"/>
    </contour>
  </outline>
</glyph>
<glyph name="uni0411" format="2">
  <advance width="1200" height="1560"/>
  <unicode hex="0411"/>
  <outline>
    <contour>
      <point x="128" y="0" type="line" name="hr00"/>
      <point x="706" y="0" type="line" smooth="yes"/>
      <point x="966" y="0"/>
      <point x="1130" y="182"/>
      <point x="1130" y="430" type="curve" smooth="yes"/>
      <point x="1130" y="682"/>
      <point x="966" y="852"/>
      <point x="706" y="852" type="curve" smooth="yes"/>
      <point x="430" y="852" type="line"/>
      <point x="430" y="1150" type="line"/>
      <point x="994" y="1150" type="line"/>
      <point x="994" y="1396" type="line"/>
      <point x="128" y="1396" type="line"/>
    </contour>
    <contour>
      <point x="430" y="236" type="line"/>
      <point x="430" y="616" type="line"/>
      <point x="650" y="616" type="line" smooth="yes"/>
      <point x="760" y="616"/>
      <point x="816" y="568"/>
      <point x="816" y="468" type="curve" smooth="yes"/>
      <point x="816" y="384" type="line" smooth="yes"/>
      <point x="816" y="284"/>
      <point x="760" y="236"/>
      <point x="650" y="236" type="curve" smooth="yes"/>
    </contour>
  </outline>
</glyph>
<glyph name="uni0413" format="2">
  <advance width="1200" height="1560"/>
  <unicode hex="0413"/>
  <anchor x="634" y="1396" name="top"/>
  <outline>
    <contour>
      <point x="214" y="0" type="line" name="hr00"/>
      <point x="516" y="0" type="line"/>
      <point x="516" y="1150" type="line"/>
      <point x="1056" y="1150" type="line"/>
      <point x="1056" y="1396" type="line"/>
      <point x="214" y="1396" type="line"/>
    </contour>
  </outline>
</glyph>
<glyph name="uni0414" format="2">
  <advance width="1200" height="1560"/>
  <unicode hex="0414"/>
  <outline>
    <contour>
      <point x="22" y="-300" type="line" name="hr00"/>
      <point x="298" y="-300" type="line"/>
      <point x="298" y="0" type="line"/>
      <point x="890" y="0" type="line"/>
      <point x="890" y="-300" type="line"/>
      <point x="1166" y="-300" type="line"/>
      <point x="1166" y="246" type="line"/>
      <point x="1032" y="246" type="line"/>
      <point x="1032" y="1396" type="line"/>
      <point x="282" y="1396" type="line"/>
      <point x="282" y="1014" type="line" smooth="yes"/>
      <point x="282" y="564"/>
      <point x="214" y="346"/>
      <point x="122" y="246" type="curve"/>
      <point x="22" y="246" type="line"/>
    </contour>
    <contour>
      <point x="742" y="246" type="line"/>
      <point x="420" y="246" type="line"/>
      <point x="496" y="366"/>
      <point x="544" y="576"/>
      <point x="544" y="970" type="curve" smooth="yes"/>
      <point x="544" y="1158" type="line"/>
      <point x="742" y="1158" type="line"/>
    </contour>
  </outline>
</glyph>
<glyph name="uni0416" format="1">
  <unicode hex="0416"/>
  <advance width="1200" height="1560"/>
  <outline>
    <contour>
      <point x="470" y="0" type="line" name="hr00"/>
      <point x="730" y="0" type="line"/>
      <point x="730" y="594" type="line"/>
      <point x="814" y="594" type="line"/>
      <point x="926" y="0" type="line"/>
      <point x="1196" y="0" type="line"/>
      <point x="1102" y="498" type="line"/>
      <point x="1078" y="630"/>
      <point x="1028" y="694"/>
      <point x="928" y="714" type="curve"/>
      <point x="928" y="726" type="line"/>
      <point x="1012" y="750"/>
      <point x="1064" y="806"/>
      <point x="1088" y="930" type="curve" smooth="yes"/>
      <point x="1176" y="1396" type="line"/>
      <point x="922" y="1396" type="line"/>
      <point x="814" y="820" type="line"/>
      <point x="730" y="820" type="line"/>
      <point x="730" y="1396" type="line"/>
      <point x="470" y="1396" type="line"/>
      <point x="470" y="820" type="line"/>
      <point x="386" y="820" type="line"/>
      <point x="278" y="1396" type="line"/>
      <point x="24" y="1396" type="line"/>
      <point x="112" y="930" type="line" smooth="yes"/>
      <point x="136" y="806"/>
      <point x="188" y="750"/>
      <point x="272" y="726" type="curve"/>
      <point x="272" y="714" type="line"/>
      <point x="172" y="694"/>
      <point x="122" y="630"/>
      <point x="98" y="498" type="curve"/>
      <point x="4" y="0" type="line"/>
      <point x="274" y="0" type="line"/>
      <point x="386" y="594" type="line"/>
      <point x="470" y="594" type="line"/>
    </contour>
    <contour>
      <point x="600" y="1396" type="move" name="top"/>
    </contour>
  </outline>
</glyph>
